# Blender v2.91.0 OBJ File: ''
# www.blender.org
mtllib untitled.mtl
o Cube
v 0.272675 -0.087509 0.311601
v 0.255941 -0.087509 0.307117
v 0.299869 0.220084 0.262420
v 0.255941 -0.110249 0.320198
v 0.364900 0.170448 0.528955
v 0.266135 -0.110249 0.322930
v 0.049335 0.153201 0.224473
v 0.273597 -0.110249 0.330392
v 0.445265 0.170448 0.448590
v 0.276329 -0.110249 0.340586
v 0.332418 0.220084 0.294968
v 0.273597 -0.110249 0.350780
v 0.474680 0.170448 0.338810
v 0.266135 -0.110249 0.358243
v 0.017064 0.153201 0.344910
v 0.255941 -0.110249 0.360974
v 0.445265 0.170448 0.229030
v 0.245746 -0.110249 0.358243
v 0.344331 0.220084 0.339431
v 0.238284 -0.110249 0.350780
v 0.364900 0.170448 0.148665
v 0.235552 -0.110249 0.340586
v 0.375471 0.153201 0.130022
v 0.238284 -0.110249 0.330392
v 0.332418 0.220084 0.383893
v 0.245746 -0.110249 0.322930
v 0.284926 -0.087509 0.323851
v 0.289410 -0.087509 0.340586
v 0.284926 -0.087509 0.357321
v 0.272675 -0.087509 0.369572
v 0.255941 -0.087509 0.374056
v 0.239206 -0.087509 0.369572
v 0.226955 -0.087509 0.357321
v 0.222471 -0.087509 0.340586
v 0.226955 -0.087509 0.323851
v 0.239206 -0.087509 0.311601
v 0.266377 -0.003751 0.322509
v 0.274017 -0.003751 0.330150
v 0.276814 -0.003751 0.340586
v 0.274017 -0.003751 0.351023
v 0.266377 -0.003751 0.358663
v 0.255941 -0.003751 0.361460
v 0.245504 -0.003751 0.358663
v 0.237864 -0.003751 0.351023
v 0.235067 -0.003751 0.340586
v 0.237864 -0.003751 0.330150
v 0.255941 -0.003751 0.319713
v 0.245504 -0.003751 0.322509
v 0.273195 0.086070 0.309040
v 0.286138 0.086070 0.321983
v 0.290875 0.086070 0.339664
v 0.286138 0.086070 0.357344
v 0.273195 0.086070 0.370287
v 0.255514 0.086070 0.375024
v 0.237834 0.086070 0.370287
v 0.225317 0.086070 0.358267
v 0.220580 0.086070 0.340586
v 0.225317 0.086070 0.322906
v 0.238260 0.086070 0.309963
v 0.255514 0.086070 0.304303
v 0.255941 0.048707 0.323464
v 0.264502 0.048707 0.325758
v 0.270769 0.048707 0.332025
v 0.273063 0.048707 0.340586
v 0.270769 0.048707 0.349147
v 0.264502 0.048707 0.355415
v 0.255941 0.048707 0.357709
v 0.247379 0.048707 0.355415
v 0.241112 0.048707 0.349147
v 0.238818 0.048707 0.340586
v 0.241112 0.048707 0.332025
v 0.247379 0.048707 0.325758
v 0.255941 -0.030916 0.318702
v 0.266883 -0.030916 0.321634
v 0.274893 -0.030916 0.329644
v 0.277825 -0.030916 0.340586
v 0.274893 -0.030916 0.351528
v 0.266883 -0.030916 0.359538
v 0.255941 -0.030916 0.362470
v 0.244998 -0.030916 0.359538
v 0.236988 -0.030916 0.351528
v 0.234056 -0.030916 0.340586
v 0.236988 -0.030916 0.329644
v 0.244998 -0.030916 0.321634
v 0.328825 0.137597 0.212287
v 0.382567 0.137597 0.266029
v 0.402238 0.137597 0.339442
v 0.382567 0.137597 0.412856
v 0.328825 0.137597 0.466598
v 0.255412 0.137597 0.486269
v 0.181999 0.137597 0.466598
v 0.130027 0.137597 0.416687
v 0.110356 0.137597 0.343274
v 0.130027 0.137597 0.269861
v 0.183769 0.137597 0.216119
v 0.255412 0.137597 0.192616
v 0.255120 0.170448 0.558370
v 0.255034 0.153201 0.097751
v 0.145340 0.170448 0.528955
v 0.299869 0.220084 0.416442
v 0.067622 0.170448 0.454319
v 0.255034 0.153201 0.579498
v 0.038207 0.170448 0.344539
v 0.375471 0.153201 0.547227
v 0.067622 0.170448 0.234759
v 0.255407 0.220084 0.428355
v 0.147987 0.170448 0.154394
v 0.255120 0.170448 0.119249
v 0.255298 0.193199 0.481991
v 0.255506 0.232976 0.362423
v 0.275258 0.232976 0.373858
v 0.326696 0.193199 0.462860
v 0.266894 0.232976 0.359371
v 0.378962 0.193199 0.410593
v 0.289718 0.232976 0.359398
v 0.398093 0.193199 0.339196
v 0.275232 0.232976 0.351034
v 0.378962 0.193199 0.267799
v 0.295011 0.232976 0.339645
v 0.326696 0.193199 0.215533
v 0.278283 0.232976 0.339645
v 0.289718 0.232976 0.319893
v 0.183901 0.193199 0.462860
v 0.275232 0.232976 0.328257
v 0.133356 0.193199 0.414320
v 0.275258 0.232976 0.305433
v 0.114226 0.193199 0.342922
v 0.266894 0.232976 0.319920
v 0.133356 0.193199 0.271525
v 0.255506 0.232976 0.316868
v 0.185623 0.193199 0.219259
v 0.255298 0.193199 0.196402
v 0.049335 0.153201 0.465347
v 0.137501 0.153201 0.136307
v 0.210944 0.220084 0.416442
v 0.495908 0.153201 0.338624
v 0.179468 0.220084 0.386213
v 0.463637 0.153201 0.218188
v 0.167554 0.220084 0.341751
v 0.134597 0.153201 0.547227
v 0.179468 0.220084 0.297289
v 0.463637 0.153201 0.459061
v 0.212016 0.220084 0.264740
v 0.255407 0.220084 0.250506
v 0.255506 0.232976 0.379150
v 0.244117 0.232976 0.359371
v 0.235753 0.232976 0.373858
v 0.235780 0.232976 0.351034
v 0.221770 0.232976 0.360429
v 0.232729 0.232976 0.339645
v 0.216477 0.232976 0.340676
v 0.235780 0.232976 0.328257
v 0.221770 0.232976 0.320924
v 0.244117 0.232976 0.319920
v 0.236230 0.232976 0.306464
v 0.255506 0.232976 0.300141
v 0.267420 -0.087509 0.310193
v 0.262933 -0.110249 0.322072
v 0.263100 -0.003751 0.321631
v 0.267643 0.086070 0.307552
v 0.261813 0.048707 0.325037
v 0.263447 -0.030916 0.320713
v 0.305772 0.137597 0.206110
v 0.328470 0.174082 0.140871
v 0.263318 0.232976 0.318962
v 0.304275 0.193199 0.209525
v 0.285907 0.220084 0.258678
v 0.269056 0.232976 0.303771
v 0.334838 0.159167 0.122281
v 0.261683 -0.110249 0.321737
v 0.322876 0.153201 0.115929
v 0.265367 -0.087509 0.309642
v 0.261820 -0.003751 0.321288
v 0.265474 0.086070 0.306971
v 0.260763 0.048707 0.324756
v 0.262104 -0.030916 0.320354
v 0.296766 0.137597 0.203697
v 0.316556 0.171220 0.136126
v 0.261921 0.232976 0.318587
v 0.295516 0.193199 0.207178
v 0.280452 0.220084 0.257217
v 0.266632 0.232976 0.303122
v 0.269178 -0.087509 0.310663
v 0.264196 -0.003751 0.321925
v 0.269499 0.086070 0.308050
v 0.262712 0.048707 0.325278
v 0.264596 -0.030916 0.321021
v 0.313481 0.137597 0.208176
v 0.341169 0.171886 0.143088
v 0.264514 0.232976 0.319282
v 0.311773 0.193199 0.211534
v 0.290576 0.220084 0.259929
v 0.271130 0.232976 0.304327
v 0.264004 -0.110249 0.322359
v 0.350299 0.153201 0.123277
vt 0.750000 0.595158
vt 0.750000 0.728764
vt 0.666667 0.728764
vt 0.666667 0.595158
vt 0.916667 0.797950
vt 0.916667 0.942085
vt 0.833333 0.942085
vt 0.833333 0.797950
vt 0.934084 0.942085
vt 0.934084 1.000000
vt 0.916667 1.000000
vt 0.833333 0.595158
vt 0.833333 0.728765
vt 0.750000 0.942085
vt 0.750000 0.797950
vt 0.833333 1.000000
vt 0.583333 0.595158
vt 0.583333 0.728765
vt 0.500000 0.728764
vt 0.500000 0.595158
vt 0.666667 0.942085
vt 0.666667 0.797949
vt 0.750000 1.000000
vt 0.416667 0.728764
vt 0.416667 0.595158
vt 0.583333 0.942085
vt 0.583333 0.797950
vt 0.666667 1.000000
vt 0.333333 0.728765
vt 0.333333 0.595158
vt 0.500000 0.942085
vt 0.500000 0.797949
vt 0.583333 1.000000
vt 0.250000 0.728764
vt 0.250000 0.595158
vt 0.416667 0.942085
vt 0.416667 0.797949
vt 0.500000 1.000000
vt 0.166667 0.728764
vt 0.166667 0.595158
vt 0.333333 0.942085
vt 0.333333 0.797949
vt 0.416667 1.000000
vt 0.083333 0.728765
vt 0.083333 0.595158
vt 0.250000 0.942085
vt 0.250000 0.797949
vt 0.333333 1.000000
vt 0.000000 0.728765
vt 0.000000 0.595158
vt 0.166667 0.942085
vt 0.166667 0.797949
vt 0.250000 1.000000
vt 0.934084 0.595158
vt 0.934084 0.728765
vt 0.916667 0.728765
vt 0.916667 0.595158
vt 0.083333 0.942085
vt 0.083333 0.797950
vt 0.166667 1.000000
vt 0.370000 0.457846
vt 0.344919 0.464566
vt 0.332317 0.467943
vt 0.317596 0.471888
vt 0.250000 0.490000
vt 0.130000 0.457846
vt 0.042154 0.370000
vt 0.010000 0.250000
vt 0.042154 0.130000
vt 0.130000 0.042154
vt 0.250000 0.010000
vt 0.370000 0.042154
vt 0.457846 0.130000
vt 0.490000 0.250000
vt 0.457846 0.370000
vt 0.000000 0.942085
vt 0.000000 0.797949
vt 0.083333 1.000000
vt 0.934084 0.797950
vt 0.000000 1.000000
vt 0.250000 0.500000
vt 0.166667 0.500000
vt 0.166667 0.500000
vt 0.250000 0.500000
vt 0.416667 0.500000
vt 0.333333 0.500000
vt 0.333333 0.500000
vt 0.416667 0.500000
vt 0.916667 0.500000
vt 0.833333 0.500000
vt 0.833333 0.500000
vt 0.916667 0.500000
vt 0.750000 0.500000
vt 0.750000 0.500000
vt 0.083333 0.500000
vt 0.000000 0.500000
vt 0.000000 0.500000
vt 0.083333 0.500000
vt 0.250000 0.500000
vt 0.583333 0.500000
vt 0.500000 0.500000
vt 0.500000 0.500000
vt 0.583333 0.500000
vt 0.934084 0.500000
vt 0.934084 0.500000
vt 0.166667 0.500000
vt 0.666667 0.500000
vt 0.666667 0.500000
vt 0.500000 0.500000
vt 0.416667 0.500000
vt 0.416667 0.500000
vt 0.500000 0.500000
vt 0.666667 0.500000
vt 0.583333 0.500000
vt 0.583333 0.500000
vt 0.666667 0.500000
vt 0.750000 0.500000
vt 0.750000 0.500000
vt 0.083333 0.500000
vt 0.083333 0.500000
vt 0.166667 0.500000
vt 0.333333 0.500000
vt 0.333333 0.500000
vt 0.916667 0.500000
vt 0.833333 0.500000
vt 0.833333 0.500000
vt 0.916667 0.500000
vt 0.000000 0.500000
vt 0.000000 0.500000
vt 0.250000 0.500000
vt 0.934084 0.500000
vt 0.934084 0.500000
vt 0.833333 0.500000
vt 0.916667 0.500000
vt 0.750000 0.500000
vt 0.000000 0.500000
vt 0.083333 0.500000
vt 0.250000 0.500000
vt 0.333333 0.500000
vt 0.500000 0.500000
vt 0.583333 0.500000
vt 0.934084 0.500000
vt 0.166667 0.500000
vt 0.416667 0.500000
vt 0.666667 0.500000
vt 0.750000 0.490000
vt 0.817596 0.471888
vt 0.832317 0.467943
vt 0.844919 0.464566
vt 0.870000 0.457846
vt 0.957846 0.370000
vt 0.990000 0.250000
vt 0.957846 0.130000
vt 0.870000 0.042154
vt 0.750000 0.010000
vt 0.630000 0.042154
vt 0.542154 0.130000
vt 0.510000 0.250000
vt 0.542154 0.370000
vt 0.630000 0.457846
vt 0.416667 0.500000
vt 0.500000 0.500000
vt 0.583333 0.500000
vt 0.666667 0.500000
vt 0.750000 0.500000
vt 0.083333 0.500000
vt 0.166667 0.500000
vt 0.333333 0.500000
vt 0.833333 0.500000
vt 0.916667 0.500000
vt 0.000000 0.500000
vt 0.250000 0.500000
vt 0.934084 0.500000
vt 0.416667 0.500000
vt 0.500000 0.500000
vt 0.583333 0.500000
vt 0.666667 0.500000
vt 0.750000 0.500000
vt 0.083333 0.500000
vt 0.166667 0.500000
vt 0.333333 0.500000
vt 0.833333 0.500000
vt 0.916667 0.500000
vt 0.000000 0.500000
vt 0.250000 0.500000
vt 0.934084 0.500000
vt 0.916667 0.500000
vt 0.833333 0.500000
vt 0.666667 0.500000
vt 0.583333 0.500000
vt 0.934084 0.500000
vt 0.083333 0.500000
vt 0.000000 0.500000
vt 0.166667 0.500000
vt 0.250000 0.500000
vt 0.333333 0.500000
vt 0.416667 0.500000
vt 0.500000 0.500000
vt 0.750000 0.500000
vt 0.953058 0.500000
vt 0.942836 0.500000
vt 0.942835 0.500000
vt 0.953058 0.500000
vt 0.953058 0.500000
vt 0.953058 0.500000
vt 0.942835 0.500000
vt 0.942835 0.500000
vt 0.953058 0.500000
vt 0.942835 0.500000
vt 0.953058 0.500000
vt 0.942835 0.500000
vt 0.953058 0.500000
vt 0.942835 0.500000
vt 0.953058 0.728765
vt 0.953058 0.797950
vt 0.942835 0.797950
vt 0.942835 0.728765
vt 0.953058 0.500000
vt 0.953058 0.595158
vt 0.942835 0.595158
vt 0.942836 0.500000
vt 0.953058 0.942085
vt 0.942835 0.942085
vt 0.953058 1.000000
vt 0.942835 1.000000
vt 1.000000 0.942085
vt 1.000000 1.000000
vt 1.000000 0.595158
vt 1.000000 0.728765
vt 1.000000 0.797949
vt 1.000000 0.500000
vt 1.000000 0.500000
vt 1.000000 0.500000
vt 1.000000 0.500000
vt 1.000000 0.500000
vt 1.000000 0.500000
vt 1.000000 0.500000
vt 1.000000 0.500000
vn -0.9636 -0.0689 -0.2582
vn -0.6937 -0.1940 0.6937
vn -0.2262 0.4857 0.8443
vn -0.9636 -0.0689 0.2582
vn -0.9476 -0.1940 0.2539
vn -0.6181 0.4857 0.6181
vn -0.2582 -0.0689 -0.9636
vn -0.9476 -0.1940 -0.2539
vn -0.8443 0.4857 0.2262
vn 0.2582 -0.0689 -0.9636
vn -0.6937 -0.1940 -0.6937
vn -0.8443 0.4857 -0.2262
vn 0.7054 -0.0689 -0.7054
vn -0.2539 -0.1940 -0.9476
vn -0.6181 0.4857 -0.6181
vn 0.9636 -0.0689 -0.2582
vn 0.2539 -0.1940 -0.9476
vn -0.2262 0.4857 -0.8443
vn 0.9636 -0.0689 0.2582
vn 0.6937 -0.1940 -0.6937
vn 0.2262 0.4857 -0.8443
vn 0.7054 -0.0689 0.7054
vn 0.9476 -0.1940 -0.2539
vn 0.6181 0.4857 -0.6181
vn 0.2582 -0.0689 0.9636
vn 0.9476 -0.1940 0.2539
vn 0.8443 0.4857 -0.2262
vn -0.2582 -0.0689 0.9636
vn 0.6937 -0.1940 0.6937
vn 0.8443 0.4857 0.2262
vn 0.0000 1.0000 -0.0000
vn 0.2539 -0.1940 0.9476
vn 0.6181 0.4857 0.6181
vn -0.7054 -0.0689 -0.7054
vn -0.2539 -0.1940 0.9476
vn 0.2262 0.4857 0.8443
vn 0.1656 0.9852 0.0444
vn -0.7054 -0.0689 0.7054
vn 0.2979 0.9028 -0.3102
vn -0.3051 0.9022 0.3051
vn -0.4171 0.9020 0.1118
vn 0.1361 0.8996 0.4149
vn 0.4186 0.9012 -0.1122
vn -0.1119 0.9016 -0.4177
vn -0.1116 0.9023 0.4164
vn 0.4230 0.8990 0.1133
vn 0.1119 0.9017 -0.4176
vn -0.3058 0.9017 -0.3058
vn -0.4175 0.9018 -0.1119
vn 0.3118 0.8975 0.3118
vn -0.6372 0.4334 0.6372
vn -0.6458 0.4073 -0.6458
vn -0.2322 0.4418 0.8666
vn 0.2650 0.4361 0.8600
vn 0.6396 0.4265 0.6396
vn 0.8737 0.4265 0.2341
vn 0.8737 0.4265 -0.2341
vn 0.6321 0.4228 -0.6493
vn 0.2360 0.4108 -0.8806
vn -0.2365 0.4063 -0.8826
vn -0.8752 0.4230 0.2345
vn -0.8795 0.4135 -0.2357
vn -0.2587 -0.0359 0.9653
vn 0.2587 -0.0359 0.9653
vn 0.7067 -0.0359 0.7066
vn 0.9653 -0.0359 0.2587
vn 0.9653 -0.0359 -0.2587
vn 0.7066 -0.0359 -0.7067
vn 0.2587 -0.0359 -0.9653
vn -0.2587 -0.0359 -0.9653
vn -0.7066 -0.0359 -0.7067
vn -0.9653 -0.0359 -0.2587
vn -0.9653 -0.0359 0.2587
vn -0.7067 -0.0359 0.7066
vn 0.1670 -0.7641 -0.6231
vn -0.4566 -0.7636 -0.4566
vn -0.6226 -0.7645 -0.1668
vn 0.4591 -0.7606 0.4591
vn 0.4444 -0.7671 -0.4627
vn -0.4532 -0.7676 0.4532
vn -0.6209 -0.7660 0.1664
vn 0.2009 -0.7645 0.6125
vn 0.6215 -0.7655 -0.1665
vn -0.1672 -0.7634 -0.6239
vn -0.1790 -0.7629 0.6212
vn 0.6249 -0.7625 0.1675
vn -0.2070 -0.9562 0.2070
vn -0.2836 -0.9559 0.0760
vn 0.0923 -0.9551 0.2814
vn 0.2844 -0.9557 -0.0762
vn -0.0763 -0.9555 -0.2848
vn -0.1007 -0.9597 0.2622
vn 0.2874 -0.9547 0.0770
vn 0.0762 -0.9556 -0.2845
vn -0.2084 -0.9556 -0.2084
vn -0.2843 -0.9557 -0.0762
vn 0.2118 -0.9541 0.2118
vn 0.2026 -0.9563 -0.2110
vn 0.0000 -1.0000 0.0000
vn 0.1192 -0.8877 -0.4447
vn -0.3258 -0.8875 -0.3258
vn -0.4445 -0.8878 -0.1191
vn 0.3306 -0.8839 0.3306
vn 0.3171 -0.8891 -0.3302
vn -0.3241 -0.8887 0.3241
vn -0.4437 -0.8883 0.1189
vn 0.1444 -0.8863 0.4401
vn 0.4449 -0.8876 -0.1192
vn -0.1193 -0.8875 -0.4451
vn -0.1184 -0.8891 0.4421
vn 0.4490 -0.8854 0.1203
vn 0.0677 -0.9652 -0.2527
vn -0.1852 -0.9651 -0.1852
vn -0.2526 -0.9652 -0.0677
vn 0.1884 -0.9638 0.1884
vn 0.1800 -0.9656 -0.1875
vn -0.1841 -0.9655 0.1841
vn -0.2520 -0.9654 0.0675
vn 0.0821 -0.9647 0.2504
vn 0.2528 -0.9651 -0.0677
vn -0.0678 -0.9651 -0.2530
vn -0.0672 -0.9657 0.2509
vn 0.2556 -0.9643 0.0685
vn -0.0435 0.9858 0.1623
vn -0.0442 0.9853 -0.1651
vn 0.1641 0.9855 -0.0440
vn 0.0531 0.9854 0.1619
vn -0.1638 0.9855 0.0439
vn -0.1193 0.9857 0.1193
vn 0.1171 0.9856 -0.1219
vn 0.1219 0.9850 0.1219
vn -0.1645 0.9854 -0.0441
vn -0.1208 0.9853 -0.1208
vn 0.0441 0.9853 -0.1647
vn -0.3122 0.9443 0.1042
vn -0.1185 -0.8891 0.4421
vn 0.0323 -0.9560 0.2917
vn -0.0165 -0.7648 0.6440
vn -0.2586 -0.0359 0.9653
vn -0.1642 -0.7651 0.6226
vn -0.0687 -0.9577 0.2794
vn 0.2034 0.9365 0.2857
vn -0.1516 -0.9626 0.2246
vn -0.2888 -0.7753 0.5618
usemtl Material
s off
f 64/1/1 39/2/1 40/3/1 65/4/1
f 74/5/2 1/6/2 27/7/2 75/8/2
f 183/9/3 194/10/3 6/11/3 1/6/3
f 63/12/4 38/13/4 39/2/4 64/1/4
f 75/8/5 27/7/5 28/14/5 76/15/5
f 1/6/6 6/11/6 8/16/6 27/7/6
f 66/17/7 41/18/7 42/19/7 67/20/7
f 76/15/8 28/14/8 29/21/8 77/22/8
f 27/7/9 8/16/9 10/23/9 28/14/9
f 67/20/10 42/19/10 43/24/10 68/25/10
f 77/22/11 29/21/11 30/26/11 78/27/11
f 28/14/12 10/23/12 12/28/12 29/21/12
f 68/25/13 43/24/13 44/29/13 69/30/13
f 78/27/14 30/26/14 31/31/14 79/32/14
f 29/21/15 12/28/15 14/33/15 30/26/15
f 69/30/16 44/29/16 45/34/16 70/35/16
f 79/32/17 31/31/17 32/36/17 80/37/17
f 30/26/18 14/33/18 16/38/18 31/31/18
f 70/35/19 45/34/19 46/39/19 71/40/19
f 80/37/20 32/36/20 33/41/20 81/42/20
f 31/31/21 16/38/21 18/43/21 32/36/21
f 71/40/22 46/39/22 48/44/22 72/45/22
f 81/42/23 33/41/23 34/46/23 82/47/23
f 32/36/24 18/43/24 20/48/24 33/41/24
f 72/45/25 48/44/25 47/49/25 61/50/25
f 82/47/26 34/46/26 35/51/26 83/52/26
f 33/41/27 20/48/27 22/53/27 34/46/27
f 186/54/28 184/55/28 37/56/28 62/57/28
f 83/52/29 35/51/29 36/58/29 84/59/29
f 34/46/30 22/53/30 24/60/30 35/51/30
f 6/61/31 194/62/31 158/63/31 170/64/31 4/65/31 26/66/31 24/67/31 22/68/31 20/69/31 18/70/31 16/71/31 14/72/31 12/73/31 10/74/31 8/75/31
f 84/59/32 36/58/32 2/76/32 73/77/32
f 35/51/33 24/60/33 26/78/33 36/58/33
f 65/4/34 40/3/34 41/18/34 66/17/34
f 187/79/35 183/9/35 1/6/35 74/5/35
f 36/58/36 26/78/36 4/80/36 2/76/36
f 93/81/37 94/82/37 7/83/37 15/84/37
f 62/57/38 37/56/38 38/13/38 63/12/38
f 55/85/39 56/86/39 92/87/39 91/88/39
f 49/89/40 50/90/40 86/91/40 85/92/40
f 50/90/41 51/93/41 87/94/41 86/91/41
f 59/95/42 60/96/42 96/97/42 95/98/42
f 56/86/43 57/99/43 93/81/43 92/87/43
f 53/100/44 54/101/44 90/102/44 89/103/44
f 185/104/45 49/89/45 85/92/45 188/105/45
f 57/99/46 58/106/46 94/82/46 93/81/46
f 54/101/47 55/85/47 91/88/47 90/102/47
f 52/107/48 53/100/48 89/103/48 88/108/48
f 51/93/49 52/107/49 88/108/49 87/94/49
f 58/106/50 59/95/50 95/98/50 94/82/50
f 49/89/51 62/57/51 63/12/51 50/90/51
f 52/107/52 65/4/52 66/17/52 53/100/52
f 185/104/53 186/54/53 62/57/53 49/89/53
f 59/95/54 72/45/54 61/50/54 60/96/54
f 58/106/55 71/40/55 72/45/55 59/95/55
f 57/99/56 70/35/56 71/40/56 58/106/56
f 56/86/57 69/30/57 70/35/57 57/99/57
f 55/85/58 68/25/58 69/30/58 56/86/58
f 54/101/59 67/20/59 68/25/59 55/85/59
f 53/100/60 66/17/60 67/20/60 54/101/60
f 50/90/61 63/12/61 64/1/61 51/93/61
f 51/93/62 64/1/62 65/4/62 52/107/62
f 184/55/63 187/79/63 74/5/63 37/56/63
f 48/44/64 84/59/64 73/77/64 47/49/64
f 46/39/65 83/52/65 84/59/65 48/44/65
f 45/34/66 82/47/66 83/52/66 46/39/66
f 44/29/67 81/42/67 82/47/67 45/34/67
f 43/24/68 80/37/68 81/42/68 44/29/68
f 42/19/69 79/32/69 80/37/69 43/24/69
f 41/18/70 78/27/70 79/32/70 42/19/70
f 40/3/71 77/22/71 78/27/71 41/18/71
f 39/2/72 76/15/72 77/22/72 40/3/72
f 38/13/73 75/8/73 76/15/73 39/2/73
f 37/56/74 74/5/74 75/8/74 38/13/74
f 102/109/75 140/110/75 99/111/75 97/112/75
f 142/113/76 104/114/76 5/115/76 9/116/76
f 136/117/77 142/113/77 9/116/77 13/118/77
f 7/83/78 134/119/78 107/120/78 105/121/78
f 140/110/79 133/122/79 101/123/79 99/111/79
f 23/124/80 138/125/80 17/126/80 21/127/80
f 138/125/81 136/117/81 13/118/81 17/126/81
f 134/119/82 98/128/82 108/129/82 107/120/82
f 133/122/83 15/84/83 103/130/83 101/123/83
f 104/114/84 102/109/84 97/112/84 5/115/84
f 195/131/85 23/124/85 21/127/85 189/132/85
f 15/84/86 7/83/86 105/121/86 103/130/86
f 21/127/87 17/126/87 118/133/87 120/134/87
f 17/126/88 13/118/88 116/135/88 118/133/88
f 107/120/89 108/129/89 132/136/89 131/137/89
f 101/123/90 103/130/90 127/138/90 125/139/90
f 5/115/91 97/112/91 109/140/91 112/141/91
f 189/132/92 21/127/92 120/134/92 191/142/92
f 103/130/93 105/121/93 129/143/93 127/138/93
f 97/112/94 99/111/94 123/144/94 109/140/94
f 9/116/95 5/115/95 112/141/95 114/145/95
f 13/118/96 9/116/96 114/145/96 116/135/96
f 105/121/97 107/120/97 131/137/97 129/143/97
f 99/111/98 101/123/98 125/139/98 123/144/98
f 130/146/99 179/147/99 165/148/99 190/149/99 128/150/99 124/151/99 121/152/99 117/153/99 113/154/99 110/155/99 146/156/99 148/157/99 150/158/99 152/159/99 154/160/99
f 109/140/100 123/144/100 135/161/100 106/162/100
f 114/145/101 112/141/101 100/163/101 25/164/101
f 116/135/102 114/145/102 25/164/102 19/165/102
f 129/143/103 131/137/103 143/166/103 141/167/103
f 123/144/104 125/139/104 137/168/104 135/161/104
f 120/134/105 118/133/105 11/169/105 3/170/105
f 118/133/106 116/135/106 19/165/106 11/169/106
f 131/137/107 132/136/107 144/171/107 143/166/107
f 125/139/108 127/138/108 139/172/108 137/168/108
f 112/141/109 109/140/109 106/162/109 100/163/109
f 191/142/110 120/134/110 3/170/110 192/173/110
f 127/138/111 129/143/111 141/167/111 139/172/111
f 106/162/112 135/161/112 147/174/112 145/175/112
f 25/164/113 100/163/113 111/176/113 115/177/113
f 19/165/114 25/164/114 115/177/114 119/178/114
f 141/167/115 143/166/115 155/179/115 153/180/115
f 135/161/116 137/168/116 149/181/116 147/174/116
f 3/170/117 11/169/117 122/182/117 126/183/117
f 11/169/118 19/165/118 119/178/118 122/182/118
f 143/166/119 144/171/119 156/184/119 155/179/119
f 137/168/120 139/172/120 151/185/120 149/181/120
f 100/163/121 106/162/121 145/175/121 111/176/121
f 192/173/122 3/170/122 126/183/122 193/186/122
f 139/172/123 141/167/123 153/180/123 151/185/123
f 128/187/99 126/183/99 122/182/99 124/188/99
f 117/189/99 115/177/99 111/176/99 113/190/99
f 190/191/99 193/186/99 126/183/99 128/187/99
f 154/192/99 155/179/99 156/184/99 130/193/99
f 152/194/99 153/180/99 155/179/99 154/192/99
f 150/195/99 151/185/99 153/180/99 152/194/99
f 148/196/99 149/181/99 151/185/99 150/195/99
f 146/197/99 147/174/99 149/181/99 148/196/99
f 110/198/99 145/175/99 147/174/99 146/197/99
f 113/190/99 111/176/99 145/175/99 110/198/99
f 124/188/99 122/182/99 119/178/99 121/199/99
f 121/199/99 119/178/99 115/177/99 117/189/99
f 188/105/124 85/92/124 23/124/124 195/131/124
f 89/103/125 90/102/125 102/109/125 104/114/125
f 92/87/126 93/81/126 15/84/126 133/122/126
f 95/98/127 96/97/127 98/128/127 134/119/127
f 86/91/128 87/94/128 136/117/128 138/125/128
f 85/92/129 86/91/129 138/125/129 23/124/129
f 91/88/130 92/87/130 133/122/130 140/110/130
f 94/82/131 95/98/131 134/119/131 7/83/131
f 87/94/132 88/108/132 142/113/132 136/117/132
f 88/108/133 89/103/133 104/114/133 142/113/133
f 90/102/134 91/88/134 140/110/134 102/109/134
f 177/200/135 163/201/135 169/202/135 171/203/135
f 179/204/99 182/205/99 168/206/99 165/207/99
f 181/208/122 167/209/122 168/206/122 182/205/122
f 180/210/136 166/211/136 167/209/136 181/208/136
f 178/212/137 164/213/137 166/211/137 180/210/137
f 171/203/138 169/202/138 164/213/138 178/212/138
f 173/214/63 176/215/63 162/216/63 159/217/63
f 174/218/53 175/219/53 161/220/53 160/221/53
f 174/218/45 160/221/45 163/201/45 177/200/45
f 176/215/35 172/222/35 157/223/35 162/216/35
f 175/219/28 173/214/28 159/217/28 161/220/28
f 172/222/3 170/224/3 158/225/3 157/223/3
f 2/226/3 4/227/3 170/224/3 172/222/3
f 61/228/28 47/229/28 173/214/28 175/219/28
f 73/230/35 2/226/35 172/222/35 176/215/35
f 60/231/45 174/218/45 177/200/45 96/232/45
f 60/231/53 61/228/53 175/219/53 174/218/53
f 47/229/139 73/230/139 176/215/139 173/214/139
f 98/233/140 171/203/140 178/212/140 108/234/140
f 108/234/141 178/212/141 180/210/141 132/235/141
f 132/235/110 180/210/110 181/208/110 144/236/110
f 144/236/122 181/208/122 182/205/122 156/237/122
f 130/238/99 156/237/99 182/205/99 179/204/99
f 96/232/124 177/200/124 171/203/124 98/233/124
f 163/201/142 188/105/142 195/131/142 169/202/142
f 165/207/99 168/206/99 193/186/99 190/191/99
f 167/209/122 192/173/122 193/186/122 168/206/122
f 166/211/110 191/142/110 192/173/110 167/209/110
f 164/213/143 189/132/143 191/142/143 166/211/143
f 169/202/144 195/131/144 189/132/144 164/213/144
f 159/217/139 162/216/139 187/79/139 184/55/139
f 160/221/53 161/220/53 186/54/53 185/104/53
f 160/221/45 185/104/45 188/105/45 163/201/45
f 162/216/35 157/223/35 183/9/35 187/79/35
f 161/220/28 159/217/28 184/55/28 186/54/28
f 157/223/3 158/225/3 194/10/3 183/9/3
