# Blender v2.91.0 OBJ File: 'kamienie_1.blend'
# www.blender.org
mtllib kamienie_1.mtl
o Cube.002
v -0.237018 2.333473 4.514684
v 0.658394 1.524123 4.820011
v 0.607120 2.294284 4.244134
v 0.599503 1.990312 3.301745
v 0.196725 2.588985 3.301745
v 0.599503 2.588985 3.823629
v -0.525799 2.268473 4.030978
v -0.782270 0.267084 4.184682
v -0.680797 1.062275 4.833304
v -0.784452 1.057192 4.513349
v -0.354278 0.267084 4.929255
v -0.588924 0.674440 4.843861
v -0.640906 0.267084 4.557868
v 0.288871 2.226301 4.785524
v 0.288871 2.561366 4.493437
v 0.038103 2.561366 3.325822
v -0.525811 2.268486 4.030932
v -0.521598 2.033092 3.664014
v -0.224277 2.047010 3.155567
v -0.353097 0.267084 3.000000
v -0.782270 0.267084 3.556084
v -0.448064 0.500224 2.930169
v -0.678926 0.476758 3.322499
v -0.678057 1.037628 3.083208
v -0.601550 1.023178 2.930169
v 0.460945 0.267084 3.254777
v 0.674047 0.989217 3.248686
v 0.670686 0.267084 3.634950
v 0.658394 1.159879 4.820011
v 0.503050 0.267084 4.983624
v 0.739133 0.267084 4.666233
v 0.217221 2.802491 3.609813
v 0.002063 2.788038 3.957225
v 0.264878 2.778461 4.224243
v 0.456736 2.759429 3.863378
v -0.497097 0.000003 4.440895
v -0.281413 0.000003 4.720359
v -0.603471 0.000003 4.160077
v -0.280524 0.000003 3.268620
v -0.603471 0.000003 3.687065
v 0.489859 0.000003 3.746412
v 0.332032 0.000003 3.460336
v 0.363715 0.000003 4.761271
v 0.541364 0.000003 4.522439
vt 0.375000 0.546423
vt 0.403107 0.500000
vt 0.429868 0.500000
vt 0.429046 0.601953
vt 0.375000 0.601915
vt 0.818793 0.750000
vt 0.813544 0.694810
vt 0.848603 0.671941
vt 0.875000 0.693793
vt 0.375000 0.601915
vt 0.375000 0.546423
vt 0.568793 0.000000
vt 0.625000 0.943793
vt 0.375000 0.819510
vt 0.387547 0.775287
vt 0.423549 0.761941
vt 0.511139 0.798222
vt 0.625000 0.912083
vt 0.568793 1.000000
vt 0.456211 1.000000
vt 0.375000 0.921291
vt 0.625000 0.500000
vt 0.625000 0.602090
vt 0.328577 0.500000
vt 0.685796 0.500000
vt 0.588489 0.326514
vt 0.717728 0.382731
vt 0.681217 0.419242
vt 0.511975 0.250000
vt 0.625000 0.136975
vt 0.375000 0.297125
vt 0.416875 0.250000
vt 0.375000 0.453577
vt 0.375000 0.680490
vt 0.385927 0.719017
vt 0.787083 0.750000
vt 0.559361 0.750000
vt 0.521769 0.696297
vt 0.625000 0.602097
vt 0.427532 0.736129
vt 0.435490 0.750000
vt 0.203709 0.750000
vt 0.375000 0.078709
vt 0.125000 0.541882
vt 0.456211 0.000000
vt 0.625000 0.056207
vt 0.375000 0.208118
vt 0.803073 0.584736
vt 0.798486 0.536511
vt 0.875000 0.613025
vt 0.751577 0.627236
vt 0.125000 0.541882
vt 0.172125 0.500000
vt 0.328577 0.500000
vt 0.375000 0.680490
vt 0.305490 0.750000
vt 0.203709 0.750000
vt 0.125000 0.671291
vt 0.375000 0.921291
vt 0.375000 0.819510
vt 0.375000 0.453577
vt 0.375000 0.297125
vt 0.375000 0.078709
vt 0.375000 0.208118
vn -0.9229 -0.1591 0.3506
vn 0.6165 0.6273 -0.4758
vn -0.7810 -0.5501 0.2958
vn 0.6987 0.4701 -0.5393
vn 0.2318 0.0585 -0.9710
vn -0.8491 0.3638 0.3829
vn -0.7522 -0.3116 0.5806
vn -0.2465 0.6368 0.7305
vn 0.7556 0.4259 0.4977
vn -0.0904 0.1433 0.9855
vn -0.7630 -0.3555 -0.5398
vn -0.7455 0.5383 -0.3930
vn -0.9888 0.1220 -0.0856
vn -0.8006 0.3924 -0.4528
vn -0.8471 -0.2255 -0.4812
vn 0.8469 -0.2539 -0.4672
vn 0.8020 -0.0302 0.5966
vn 0.9988 0.0466 -0.0169
vn 0.7513 0.5458 0.3710
vn -0.5100 0.7480 0.4247
vn 0.0697 0.9970 0.0336
vn -0.6303 0.7109 -0.3121
vn 0.0000 -1.0000 -0.0000
vn 0.2244 -0.6601 -0.7169
vn -0.0495 -0.6237 0.7801
vn -0.6504 -0.5701 0.5020
vn 0.6856 -0.6220 -0.3782
vn -0.6093 -0.6385 -0.4702
vn 0.5918 -0.6752 0.4402
vn 0.8162 -0.5752 -0.0542
vn -0.8310 -0.5563 0.0000
g Cube.002_Cube.002_None
usemtl None
s off
f 13/1/1 12/2/1 9/3/1 10/4/1 8/5/1
f 5/6/2 32/7/2 35/8/2 6/9/2
f 13/1/3 8/5/3 38/10/3 36/11/3
f 4/12/4 5/13/4 6/9/4
f 20/14/5 22/15/5 25/16/5 19/17/5 16/18/5 5/13/5 4/19/5 27/20/5 26/21/5
f 10/4/6 9/3/6 1/22/6 7/23/6
f 11/24/7 12/2/7 13/1/7
f 1/25/8 14/26/8 15/27/8
f 15/27/9 14/28/9 2/29/9 3/30/9
f 30/31/10 29/32/10 2/29/10 14/26/10 1/22/10 9/3/10 12/2/10 11/33/10
f 20/14/11 21/34/11 23/35/11 22/15/11
f 16/36/12 19/37/12 18/38/12 17/39/12
f 8/5/13 10/4/13 7/23/13 17/39/13 18/38/13 24/40/13 23/35/13 21/34/13
f 25/41/14 24/40/14 18/38/14 19/37/14
f 22/15/15 23/35/15 24/40/15 25/41/15
f 26/42/16 27/20/16 28/43/16
f 29/32/17 30/31/17 31/44/17
f 28/43/18 27/45/18 4/12/18 6/46/18 3/30/18 2/29/18 29/32/18 31/47/18
f 6/9/19 35/8/19 34/48/19 15/49/19 3/50/19
f 1/25/20 15/49/20 34/48/20 33/51/20 7/23/20
f 32/7/21 33/51/21 34/48/21 35/8/21
f 7/23/22 33/51/22 32/7/22 5/6/22 16/36/22 17/39/22
f 44/52/23 43/53/23 37/54/23 36/11/23 38/10/23 40/55/23 39/56/23 42/57/23 41/58/23
f 20/14/24 26/21/24 42/59/24 39/60/24
f 30/31/25 11/33/25 37/61/25 43/62/25
f 11/24/26 13/1/26 36/11/26 37/54/26
f 26/42/27 28/43/27 41/63/27 42/57/27
f 21/34/28 20/14/28 39/60/28 40/55/28
f 31/44/29 30/31/29 43/62/29 44/52/29
f 28/43/30 31/47/30 44/64/30 41/63/30
f 8/5/31 21/34/31 40/55/31 38/10/31
