# Blender v2.90.1 OBJ File: 'pieniek.blend'
# www.blender.org
mtllib płot3.mtl
o Cube.003
v 0.044631 4.107461 -1.762102
v 0.044631 0.014097 -1.762102
v 0.044631 4.107461 -1.165694
v 0.044631 0.014097 -1.165694
v -0.044631 4.107461 -1.762102
v -0.044631 0.014097 -1.762102
v -0.044631 4.107461 -1.165694
v -0.044631 0.014097 -1.165694
v 0.044631 4.107461 -0.776233
v 0.044631 0.014097 -0.776233
v 0.044631 4.107461 -0.179825
v 0.044631 0.014097 -0.179825
v -0.044631 4.107461 -0.776233
v -0.044631 0.014097 -0.776233
v -0.044631 4.107461 -0.179825
v -0.044631 0.014097 -0.179825
v -0.044631 0.014097 1.756354
v -0.044631 4.107461 1.756354
v -0.044631 0.014097 1.159945
v -0.044631 4.107461 1.159945
v 0.044631 0.014097 1.756354
v 0.044631 4.107461 1.756354
v 0.044631 0.014097 1.159945
v 0.044631 4.107461 1.159945
v -0.044631 0.014097 0.770485
v -0.044631 4.107461 0.770485
v -0.044631 0.014097 0.174076
v -0.044631 4.107461 0.174076
v 0.044631 0.014097 0.770485
v 0.044631 4.107461 0.770485
v 0.044631 0.014097 0.174076
v 0.044631 4.107461 0.174076
v -0.044631 0.014097 -0.353833
v -0.044631 0.014097 -0.602225
v -0.044631 4.266581 -0.601195
v -0.044631 4.266581 -0.354864
v 0.044631 0.014097 -0.602225
v 0.044631 0.014097 -0.353833
v 0.044631 4.266581 -0.354864
v 0.044631 4.266581 -0.601195
v -0.044631 0.014097 -1.339702
v -0.044631 0.014097 -1.588094
v -0.044631 4.266581 -1.587063
v -0.044631 4.266581 -1.340733
v 0.044631 0.014097 -1.588094
v 0.044631 0.014097 -1.339702
v 0.044631 4.266581 -1.340733
v 0.044631 4.266581 -1.587063
v -0.044631 0.014097 1.582346
v -0.044631 0.014097 1.333953
v -0.044631 4.266581 1.334984
v -0.044631 4.266581 1.581315
v 0.044631 0.014097 1.333953
v 0.044631 0.014097 1.582346
v 0.044631 4.266581 1.581315
v 0.044631 4.266581 1.334984
v -0.044631 0.014097 0.596477
v -0.044631 0.014097 0.348084
v -0.044631 4.266581 0.349115
v -0.044631 4.266581 0.595446
v 0.044631 0.014097 0.348084
v 0.044631 0.014097 0.596477
v 0.044631 4.266581 0.595446
v 0.044631 4.266581 0.349115
v 0.137840 3.043141 -1.902896
v 0.137840 3.391204 -1.902896
v 0.137840 3.043141 1.901124
v 0.137840 3.391204 1.901124
v 0.036531 3.043141 -1.902896
v 0.036531 3.391204 -1.902896
v 0.036531 3.043141 1.901124
v 0.036531 3.391204 1.901124
v 0.137840 0.658497 -1.902896
v 0.137840 1.012692 -1.902896
v 0.137840 0.658497 1.901124
v 0.137840 1.012692 1.901124
v 0.036531 0.658497 -1.902896
v 0.036531 1.012692 -1.902896
v 0.036531 0.658497 1.901124
v 0.036531 1.012692 1.901124
v 0.215119 3.156407 -1.894432
v 0.215119 3.457012 -1.684826
v 0.215119 0.661894 1.683053
v 0.215119 0.962499 1.892659
v 0.108453 3.156407 -1.894432
v 0.108453 3.457012 -1.684826
v 0.108453 0.661894 1.683053
v 0.108453 0.962499 1.892659
v 0.268432 0.992328 1.435125
v 0.083843 0.993559 1.435125
v 0.016002 0.851710 -1.608826
v 0.200592 0.850478 -1.608826
v 0.015606 0.792384 -1.587233
v 0.200196 0.791153 -1.587233
v 0.015396 0.760818 -1.532556
v 0.199985 0.759586 -1.532556
v 0.015469 0.771781 -1.470381
v 0.200058 0.770549 -1.470381
v 0.015792 0.820143 -1.429799
v 0.200381 0.818912 -1.429799
v 0.016213 0.883277 -1.429799
v 0.200802 0.882045 -1.429799
v 0.016536 0.931640 -1.470381
v 0.201125 0.930408 -1.470381
v 0.016609 0.942603 -1.532556
v 0.201198 0.941371 -1.532556
v 0.016398 0.911036 -1.587233
v 0.200987 0.909804 -1.587233
v 0.083447 0.934233 1.456718
v 0.268037 0.933002 1.456718
v 0.083237 0.902667 1.511395
v 0.267826 0.901435 1.511395
v 0.083310 0.913630 1.573570
v 0.267899 0.912398 1.573570
v 0.083632 0.961993 1.614152
v 0.268222 0.960761 1.614152
v 0.084054 1.025126 1.614152
v 0.268643 1.023894 1.614152
v 0.084376 1.073489 1.573570
v 0.268966 1.072257 1.573570
v 0.084450 1.084452 1.511395
v 0.269039 1.083220 1.511395
v 0.084239 1.052885 1.456718
v 0.268828 1.051653 1.456718
v 0.268432 3.206406 -1.691721
v 0.083843 3.207638 -1.691721
v 0.083447 3.148312 -1.670128
v 0.268037 3.147080 -1.670128
v 0.083237 3.116745 -1.615452
v 0.267826 3.115514 -1.615452
v 0.083310 3.127708 -1.553276
v 0.267899 3.126476 -1.553276
v 0.083632 3.176071 -1.512694
v 0.268222 3.174839 -1.512694
v 0.084054 3.239204 -1.512694
v 0.268643 3.237973 -1.512694
v 0.084376 3.287567 -1.553276
v 0.268966 3.286335 -1.553276
v 0.084450 3.298530 -1.615452
v 0.269039 3.297298 -1.615452
v 0.084239 3.266963 -1.670128
v 0.268828 3.265732 -1.670128
v 0.016002 3.213805 1.388506
v 0.200592 3.212574 1.388506
v 0.015606 3.154479 1.410099
v 0.200196 3.153248 1.410099
v 0.015396 3.122912 1.464775
v 0.199985 3.121681 1.464775
v 0.015469 3.133875 1.526951
v 0.200058 3.132644 1.526951
v 0.015792 3.182238 1.567533
v 0.200381 3.181007 1.567533
v 0.016213 3.245372 1.567533
v 0.200802 3.244140 1.567533
v 0.016536 3.293735 1.526951
v 0.201125 3.292503 1.526951
v 0.016609 3.304698 1.464775
v 0.201198 3.303466 1.464775
v 0.016398 3.273131 1.410099
v 0.200987 3.271899 1.410099
vt 0.625000 0.500000
vt 0.875000 0.500000
vt 0.875000 0.573372
vt 0.625000 0.573372
vt 0.375000 0.250000
vt 0.625000 0.250000
vt 0.375000 0.500000
vt 0.375000 0.000000
vt 0.625000 0.000000
vt 0.625000 0.073372
vt 0.375000 0.072940
vt 0.375000 0.750000
vt 0.625000 0.750000
vt 0.625000 1.000000
vt 0.375000 1.000000
vt 0.375000 0.177060
vt 0.625000 0.176628
vt 0.375000 0.572940
vt 0.625000 0.676628
vt 0.875000 0.676628
vt 0.875000 0.750000
vt 0.125000 0.677060
vt 0.375000 0.677060
vt 0.125000 0.750000
vt 0.125000 0.500000
vt 0.125000 0.572940
vt 0.625000 0.500000
vt 0.875000 0.500000
vt 0.875000 0.573372
vt 0.625000 0.573372
vt 0.375000 0.250000
vt 0.625000 0.250000
vt 0.375000 0.500000
vt 0.375000 0.000000
vt 0.625000 0.000000
vt 0.625000 0.073372
vt 0.375000 0.072940
vt 0.375000 0.750000
vt 0.625000 0.750000
vt 0.625000 1.000000
vt 0.375000 1.000000
vt 0.375000 0.177060
vt 0.625000 0.176628
vt 0.375000 0.572940
vt 0.625000 0.676628
vt 0.875000 0.676628
vt 0.875000 0.750000
vt 0.125000 0.677060
vt 0.375000 0.677060
vt 0.125000 0.750000
vt 0.125000 0.500000
vt 0.125000 0.572940
vt 0.625000 0.500000
vt 0.875000 0.500000
vt 0.875000 0.573372
vt 0.625000 0.573372
vt 0.375000 0.250000
vt 0.625000 0.250000
vt 0.375000 0.500000
vt 0.375000 0.000000
vt 0.625000 0.000000
vt 0.625000 0.073372
vt 0.375000 0.072940
vt 0.375000 0.750000
vt 0.625000 0.750000
vt 0.625000 1.000000
vt 0.375000 1.000000
vt 0.375000 0.177060
vt 0.625000 0.176628
vt 0.375000 0.572940
vt 0.625000 0.676628
vt 0.875000 0.676628
vt 0.875000 0.750000
vt 0.125000 0.677060
vt 0.375000 0.677060
vt 0.125000 0.750000
vt 0.125000 0.500000
vt 0.125000 0.572940
vt 0.625000 0.500000
vt 0.875000 0.500000
vt 0.875000 0.573372
vt 0.625000 0.573372
vt 0.375000 0.250000
vt 0.625000 0.250000
vt 0.375000 0.500000
vt 0.375000 0.750000
vt 0.625000 0.750000
vt 0.625000 1.000000
vt 0.375000 1.000000
vt 0.375000 0.177060
vt 0.625000 0.176628
vt 0.375000 0.572940
vt 0.625000 0.676628
vt 0.875000 0.676628
vt 0.875000 0.750000
vt 0.125000 0.677060
vt 0.375000 0.677060
vt 0.125000 0.750000
vt 0.125000 0.500000
vt 0.125000 0.572940
vt 0.375000 0.072940
vt 0.625000 0.073372
vt 0.375000 0.000000
vt 0.625000 0.000000
vt 0.375000 0.000000
vt 0.625000 0.000000
vt 0.625000 0.250000
vt 0.375000 0.250000
vt 0.625000 0.500000
vt 0.375000 0.500000
vt 0.625000 0.750000
vt 0.375000 0.750000
vt 0.625000 1.000000
vt 0.375000 1.000000
vt 0.125000 0.500000
vt 0.125000 0.750000
vt 0.875000 0.500000
vt 0.875000 0.750000
vt 0.375000 0.000000
vt 0.625000 0.000000
vt 0.625000 0.250000
vt 0.375000 0.250000
vt 0.625000 0.500000
vt 0.375000 0.500000
vt 0.625000 0.750000
vt 0.375000 0.750000
vt 0.625000 1.000000
vt 0.375000 1.000000
vt 0.125000 0.500000
vt 0.125000 0.750000
vt 0.875000 0.500000
vt 0.875000 0.750000
vt 0.375000 0.000000
vt 0.625000 0.000000
vt 0.625000 0.250000
vt 0.375000 0.250000
vt 0.625000 0.500000
vt 0.375000 0.500000
vt 0.625000 0.750000
vt 0.375000 0.750000
vt 0.625000 1.000000
vt 0.375000 1.000000
vt 0.125000 0.500000
vt 0.125000 0.750000
vt 0.875000 0.500000
vt 0.875000 0.750000
vt 0.666667 0.500000
vt 0.666667 1.000000
vt 0.555556 1.000000
vt 0.555556 0.500000
vt 0.404269 0.433851
vt 0.250000 0.490000
vt 0.095731 0.433851
vt 0.013646 0.291676
vt 0.042154 0.130000
vt 0.167915 0.024474
vt 0.332085 0.024474
vt 0.457846 0.130000
vt 0.486354 0.291676
vt 1.000000 0.500000
vt 1.000000 1.000000
vt 0.888889 1.000000
vt 0.888889 0.500000
vt 0.750000 0.490000
vt 0.904269 0.433851
vt 0.986354 0.291676
vt 0.957846 0.130000
vt 0.832085 0.024474
vt 0.667915 0.024474
vt 0.542154 0.130000
vt 0.513646 0.291676
vt 0.595731 0.433851
vt 0.333333 0.500000
vt 0.333333 1.000000
vt 0.222222 1.000000
vt 0.222222 0.500000
vt 0.777778 1.000000
vt 0.777778 0.500000
vt 0.444444 0.500000
vt 0.444444 1.000000
vt 0.333333 1.000000
vt 0.333333 0.500000
vt 0.444444 0.500000
vt 0.444444 1.000000
vt 0.666667 1.000000
vt 0.666667 0.500000
vt 0.222222 1.000000
vt 0.222222 0.500000
vt 0.555556 0.500000
vt 0.555556 1.000000
vt 0.555556 1.000000
vt 0.555556 0.500000
vt 0.404269 0.433851
vt 0.250000 0.490000
vt 0.095731 0.433851
vt 0.013646 0.291676
vt 0.042154 0.130000
vt 0.167915 0.024474
vt 0.332085 0.024474
vt 0.457846 0.130000
vt 0.486354 0.291676
vt 0.666667 0.500000
vt 0.666667 1.000000
vt 0.444444 1.000000
vt 0.444444 0.500000
vt 0.750000 0.490000
vt 0.904269 0.433851
vt 0.986354 0.291676
vt 0.957846 0.130000
vt 0.832085 0.024474
vt 0.667915 0.024474
vt 0.542154 0.130000
vt 0.513646 0.291676
vt 0.595731 0.433851
vt 0.777778 0.500000
vt 0.777778 1.000000
vt 0.333333 1.000000
vt 0.333333 0.500000
vt 0.111111 0.500000
vt 0.111111 1.000000
vt 0.000000 1.000000
vt 0.000000 0.500000
vt 0.888889 0.500000
vt 0.888889 1.000000
vt 0.222222 1.000000
vt 0.222222 0.500000
vt 0.404269 0.433851
vt 0.250000 0.490000
vt 0.095731 0.433851
vt 0.013646 0.291676
vt 0.042154 0.130000
vt 0.167915 0.024474
vt 0.332085 0.024474
vt 0.457846 0.130000
vt 0.486354 0.291676
vt 1.000000 0.500000
vt 1.000000 1.000000
vt 0.111111 1.000000
vt 0.111111 0.500000
vt 0.000000 1.000000
vt 0.000000 0.500000
vt 0.750000 0.490000
vt 0.904269 0.433851
vt 0.986354 0.291676
vt 0.957846 0.130000
vt 0.832085 0.024474
vt 0.667915 0.024474
vt 0.542154 0.130000
vt 0.513646 0.291676
vt 0.595731 0.433851
vt 0.777778 0.500000
vt 0.777778 1.000000
vt 0.111111 0.500000
vt 0.111111 1.000000
vt 0.000000 1.000000
vt 0.000000 0.500000
vt 0.888889 0.500000
vt 0.888889 1.000000
vt 1.000000 0.500000
vt 1.000000 1.000000
vt 1.000000 0.500000
vt 1.000000 1.000000
vt 0.888889 1.000000
vt 0.888889 0.500000
vt 0.777778 1.000000
vt 0.777778 0.500000
vt 0.666667 1.000000
vt 0.666667 0.500000
vt 0.555556 1.000000
vt 0.555556 0.500000
vt 0.444444 1.000000
vt 0.444444 0.500000
vt 0.333333 1.000000
vt 0.333333 0.500000
vt 0.222222 1.000000
vt 0.222222 0.500000
vt 0.404269 0.433851
vt 0.250000 0.490000
vt 0.095731 0.433851
vt 0.013646 0.291676
vt 0.042154 0.130000
vt 0.167915 0.024474
vt 0.332085 0.024474
vt 0.457846 0.130000
vt 0.486354 0.291676
vt 0.111111 1.000000
vt 0.111111 0.500000
vt 0.000000 1.000000
vt 0.000000 0.500000
vt 0.750000 0.490000
vt 0.904269 0.433851
vt 0.986354 0.291676
vt 0.957846 0.130000
vt 0.832085 0.024474
vt 0.667915 0.024474
vt 0.542154 0.130000
vt 0.513646 0.291676
vt 0.595731 0.433851
vn 0.0000 0.7400 -0.6727
vn 0.0000 0.0000 -1.0000
vn -1.0000 -0.0000 0.0000
vn 0.0000 0.0000 1.0000
vn 1.0000 0.0000 0.0000
vn 0.0000 0.7400 0.6727
vn 0.0000 -1.0000 0.0000
vn 0.0000 1.0000 0.0000
vn 0.0000 -0.5720 0.8203
vn 0.0000 0.5720 -0.8203
vn 0.0000 -0.8203 -0.5720
vn 0.0000 0.8203 0.5720
vn -0.0043 -0.6428 0.7660
vn 1.0000 -0.0067 -0.0000
vn -0.0023 -0.3420 -0.9397
vn -1.0000 0.0067 0.0000
vn 0.0066 0.9848 0.1736
vn -0.0058 -0.8660 -0.5000
vn 0.0043 0.6428 0.7660
vn -0.0066 -0.9848 0.1736
vn 0.0023 0.3420 -0.9397
vn 0.0058 0.8660 -0.5000
vn -0.0066 -0.9848 0.1737
usemtl None
s off
f 9/1/1 13/2/1 35/3/1 40/4/1
f 14/5/2 13/6/2 9/1/2 10/7/2
f 8/8/3 7/9/3 44/10/3 41/11/3
f 12/12/4 11/13/4 15/14/4 16/15/4
f 34/16/3 35/17/3 13/6/3 14/5/3
f 10/7/5 9/1/5 40/4/5 37/18/5
f 39/19/6 36/20/6 15/21/6 11/13/6
f 33/22/7 38/23/7 12/12/7 16/24/7
f 38/23/5 39/19/5 11/13/5 12/12/5
f 14/25/7 10/7/7 37/18/7 34/26/7
f 1/27/1 5/28/1 43/29/1 48/30/1
f 6/31/2 5/32/2 1/27/2 2/33/2
f 17/34/3 18/35/3 52/36/3 49/37/3
f 4/38/4 3/39/4 7/40/4 8/41/4
f 42/42/3 43/43/3 5/32/3 6/31/3
f 2/33/5 1/27/5 48/30/5 45/44/5
f 47/45/6 44/46/6 7/47/6 3/39/6
f 41/48/7 46/49/7 4/38/7 8/50/7
f 46/49/5 47/45/5 3/39/5 4/38/5
f 6/51/7 2/33/7 45/44/7 42/52/7
f 24/53/1 20/54/1 51/55/1 56/56/1
f 19/57/2 20/58/2 24/53/2 23/59/2
f 25/60/3 26/61/3 60/62/3 57/63/3
f 21/64/4 22/65/4 18/66/4 17/67/4
f 50/68/3 51/69/3 20/58/3 19/57/3
f 23/59/5 24/53/5 56/56/5 53/70/5
f 55/71/6 52/72/6 18/73/6 22/65/6
f 49/74/7 54/75/7 21/64/7 17/76/7
f 54/75/5 55/71/5 22/65/5 21/64/5
f 19/77/7 23/59/7 53/70/7 50/78/7
f 32/79/1 28/80/1 59/81/1 64/82/1
f 27/83/2 28/84/2 32/79/2 31/85/2
f 29/86/4 30/87/4 26/88/4 25/89/4
f 58/90/3 59/91/3 28/84/3 27/83/3
f 31/85/5 32/79/5 64/82/5 61/92/5
f 63/93/6 60/94/6 26/95/6 30/87/6
f 57/96/7 62/97/7 29/86/7 25/98/7
f 62/97/5 63/93/5 30/87/5 29/86/5
f 27/99/7 31/85/7 61/92/7 58/100/7
f 36/20/8 39/19/8 40/4/8 35/3/8
f 38/23/7 33/22/7 34/26/7 37/18/7
f 39/19/5 38/23/5 37/18/5 40/4/5
f 35/17/3 34/16/3 33/101/3 36/102/3
f 44/46/8 47/45/8 48/30/8 43/29/8
f 46/49/7 41/48/7 42/52/7 45/44/7
f 47/45/5 46/49/5 45/44/5 48/30/5
f 43/43/3 42/42/3 41/11/3 44/10/3
f 52/72/8 55/71/8 56/56/8 51/55/8
f 54/75/7 49/74/7 50/78/7 53/70/7
f 55/71/5 54/75/5 53/70/5 56/56/5
f 51/69/3 50/68/3 49/37/3 52/36/3
f 60/94/8 63/93/8 64/82/8 59/81/8
f 62/97/7 57/96/7 58/100/7 61/92/7
f 63/93/5 62/97/5 61/92/5 64/82/5
f 59/91/3 58/90/3 57/63/3 60/62/3
f 16/103/3 15/104/3 36/102/3 33/101/3
f 65/105/5 66/106/5 68/107/5 67/108/5
f 67/108/4 68/107/4 72/109/4 71/110/4
f 71/110/3 72/109/3 70/111/3 69/112/3
f 69/112/2 70/111/2 66/113/2 65/114/2
f 67/115/7 71/110/7 69/112/7 65/116/7
f 72/109/8 68/117/8 66/118/8 70/111/8
f 73/119/5 74/120/5 76/121/5 75/122/5
f 75/122/4 76/121/4 80/123/4 79/124/4
f 79/124/3 80/123/3 78/125/3 77/126/3
f 77/126/2 78/125/2 74/127/2 73/128/2
f 75/129/7 79/124/7 77/126/7 73/130/7
f 80/123/8 76/131/8 74/132/8 78/125/8
f 81/133/5 82/134/5 84/135/5 83/136/5
f 83/136/9 84/135/9 88/137/9 87/138/9
f 87/138/3 88/137/3 86/139/3 85/140/3
f 85/140/10 86/139/10 82/141/10 81/142/10
f 83/143/11 87/138/11 85/140/11 81/144/11
f 88/137/12 84/145/12 82/146/12 86/139/12
f 131/147/13 132/148/13 134/149/13 133/150/13
f 110/151/14 89/152/14 124/153/14 122/154/14 120/155/14 118/156/14 116/157/14 114/158/14 112/159/14
f 91/160/15 92/161/15 94/162/15 93/163/15
f 126/164/16 127/165/16 129/166/16 131/167/16 133/168/16 135/169/16 137/170/16 139/171/16 141/172/16
f 119/173/17 120/174/17 122/175/17 121/176/17
f 93/163/18 94/162/18 96/177/18 95/178/18
f 135/179/19 136/180/19 138/181/19 137/182/19
f 117/183/19 118/184/19 120/174/19 119/173/19
f 95/178/20 96/177/20 98/185/20 97/186/20
f 137/182/17 138/181/17 140/187/17 139/188/17
f 115/189/4 116/190/4 118/184/4 117/183/4
f 97/186/13 98/185/13 100/191/13 99/192/13
f 128/193/14 125/194/14 142/195/14 140/196/14 138/197/14 136/198/14 134/199/14 132/200/14 130/201/14
f 113/202/13 114/203/13 116/190/13 115/189/13
f 99/192/4 100/191/4 102/204/4 101/205/4
f 90/206/16 109/207/16 111/208/16 113/209/16 115/210/16 117/211/16 119/212/16 121/213/16 123/214/16
f 111/215/20 112/216/20 114/203/20 113/202/20
f 101/205/19 102/204/19 104/217/19 103/218/19
f 123/219/21 124/220/21 89/221/21 90/222/21
f 109/223/18 110/224/18 112/216/18 111/215/18
f 103/218/17 104/217/17 106/225/17 105/226/17
f 94/227/14 92/228/14 108/229/14 106/230/14 104/231/14 102/232/14 100/233/14 98/234/14 96/235/14
f 90/236/15 89/237/15 110/224/15 109/223/15
f 105/226/22 106/225/22 108/238/22 107/239/22
f 133/150/4 134/149/4 136/180/4 135/179/4
f 121/176/22 122/175/22 124/220/22 123/219/22
f 107/239/21 108/238/21 92/240/21 91/241/21
f 91/242/16 93/243/16 95/244/16 97/245/16 99/246/16 101/247/16 103/248/16 105/249/16 107/250/16
f 129/251/23 130/252/23 132/148/23 131/147/23
f 141/253/21 142/254/21 125/255/21 126/256/21
f 127/257/18 128/258/18 130/252/18 129/251/18
f 126/259/15 125/260/15 128/258/15 127/257/15
f 139/188/22 140/187/22 142/254/22 141/253/22
f 143/261/15 144/262/15 146/263/15 145/264/15
f 145/264/18 146/263/18 148/265/18 147/266/18
f 147/266/20 148/265/20 150/267/20 149/268/20
f 149/268/13 150/267/13 152/269/13 151/270/13
f 151/270/4 152/269/4 154/271/4 153/272/4
f 153/272/19 154/271/19 156/273/19 155/274/19
f 155/274/17 156/273/17 158/275/17 157/276/17
f 146/277/14 144/278/14 160/279/14 158/280/14 156/281/14 154/282/14 152/283/14 150/284/14 148/285/14
f 157/276/22 158/275/22 160/286/22 159/287/22
f 159/287/21 160/286/21 144/288/21 143/289/21
f 143/290/16 145/291/16 147/292/16 149/293/16 151/294/16 153/295/16 155/296/16 157/297/16 159/298/16
