# Blender v2.91.0 OBJ File: 'drzewo_3.blend'
# www.blender.org
mtllib trunk_1.mtl
o Cylinder.001_Cylinder.004
v 0.578053 0.217409 2.086322
v 0.580156 0.210136 0.809452
v 0.179995 0.661931 2.131665
v 0.182098 0.654658 0.808682
v -0.415733 0.627872 2.131474
v -0.413630 0.620599 0.808492
v -0.760535 0.140878 2.132008
v -0.758432 0.133606 0.809025
v -0.594769 -0.432333 2.132863
v -0.592666 -0.439605 0.809880
v -0.043259 -0.660122 2.000101
v -0.041156 -0.667395 0.810413
v 0.478696 -0.370960 1.876374
v 0.480799 -0.378233 0.810223
v 0.265659 1.015749 -0.007022
v 0.963128 0.422088 -0.005927
v -0.580995 0.967343 -0.007292
v -0.961723 0.306834 -0.006534
v -0.835443 -0.539430 -0.005319
v -0.003440 -1.029811 -0.004562
v 0.690176 -0.452207 -0.004832
v 0.426869 0.173689 2.086322
v 0.119915 0.516472 2.131841
v -0.339467 0.490208 2.131694
v -0.605353 0.114674 2.132105
v -0.477526 -0.327345 2.132765
v -0.052242 -0.503000 1.999881
v 0.350252 -0.280019 1.876197
v 0.426881 0.173647 1.960653
v 0.119927 0.516430 2.083596
v -0.339455 0.490167 2.083450
v -0.605341 0.114633 2.083860
v -0.477514 -0.327386 2.084520
v -0.052230 -0.503041 1.951636
v 0.350263 -0.280060 1.827952
v 0.226539 0.921034 -0.006907
v 0.864685 0.393620 -0.005927
v -0.531335 0.877704 -0.007149
v -0.860678 0.289771 -0.006471
v -0.759101 -0.471068 -0.005383
v -0.009289 -0.927501 -0.004705
v 0.606540 -0.392991 -0.004946
v 0.226519 0.921104 0.053407
v 0.864665 0.393690 0.054386
v -0.531355 0.877775 0.053165
v -0.860698 0.289842 0.053843
v -0.759122 -0.470998 0.054931
v -0.009310 -0.927431 0.055608
v 0.606520 -0.392921 0.055367
v -0.309348 0.847864 0.915269
v 0.032169 0.809971 0.840097
v -0.287922 1.003993 0.665717
v 0.030863 1.055336 0.539581
v -0.192413 1.049880 1.437765
v -0.101947 1.054781 1.432301
v -0.205620 1.136681 1.380656
v -0.104127 1.142180 1.374527
v -0.165079 1.029567 1.746897
v -0.066170 1.039177 1.728950
v -0.183063 1.137274 1.743359
v -0.072098 1.148056 1.723226
v -0.193545 1.047040 2.034061
v -0.145014 1.051755 2.025256
v -0.202369 1.099888 2.032325
v -0.147922 1.105178 2.022447
v -0.041457 1.082429 1.514443
v -0.046164 1.131541 1.471196
v 0.027519 1.071203 1.731925
v 0.028967 1.130928 1.729157
v -0.029019 1.065359 1.834852
v -0.033463 1.146985 1.830560
v 0.041220 1.089369 1.837082
v 0.042306 1.134145 1.835007
v -0.008992 1.099465 1.958113
v -0.010346 1.124325 1.956806
v 0.012400 1.106777 1.958792
v 0.012731 1.120414 1.958160
v -0.157561 1.076225 2.208820
v -0.146363 1.077313 2.206788
v -0.159597 1.088420 2.208419
v -0.147034 1.089640 2.206140
v -0.239905 1.107474 1.650238
v -0.260003 1.207539 1.607797
v -0.343624 1.030923 1.559113
v -0.351256 1.141466 1.442271
v -0.356174 1.106843 1.692216
v -0.368236 1.211095 1.653588
v -0.269925 1.207436 1.964810
v -0.183562 1.208900 1.961766
v -0.273272 1.285394 1.960357
v -0.191942 1.284832 1.952068
v -0.239114 1.240063 2.093722
v -0.207015 1.240608 2.092590
v -0.240358 1.269039 2.092066
v -0.210129 1.268830 2.088986
v 0.578904 0.214466 1.597136
v 0.248598 0.372740 1.960308
v 0.237571 0.385083 2.008532
v 0.479890 -0.375090 1.324398
v 0.356703 0.464596 2.008470
v 0.399166 0.415514 1.685333
vt 1.000000 0.500000
vt 1.000000 0.702308
vt 0.935545 0.668844
vt 0.920561 0.500000
vt 0.857143 0.500000
vt 0.857143 1.000000
vt 0.714286 1.000000
vt 0.714286 0.500000
vt 0.571429 1.000000
vt 0.571429 0.500000
vt 0.428571 1.000000
vt 0.428571 0.500000
vt 0.285714 1.000000
vt 0.285714 0.500000
vt 0.714286 1.000000
vt 0.571429 1.000000
vt 0.142857 1.000000
vt 0.142857 0.783903
vt 0.142857 0.500000
vt 0.000000 0.702308
vt 0.000000 0.500000
vt 0.428571 0.500000
vt 0.571429 0.500000
vt 0.857143 1.000000
vt 1.000000 1.000000
vt 1.000000 1.000000
vt 0.857143 1.000000
vt 0.285714 1.000000
vt 0.142857 1.000000
vt 0.428571 1.000000
vt 0.000000 1.000000
vt 0.000000 1.000000
vt 0.714286 1.000000
vt 0.714286 1.000000
vt 1.000000 1.000000
vt 0.142857 0.500000
vt 0.000000 0.500000
vt 0.000000 0.500000
vt 0.142857 0.500000
vt 0.714286 0.500000
vt 0.857143 0.500000
vt 0.285714 0.500000
vt 0.911900 0.500000
vt 1.000000 0.500000
vt 0.750000 0.490000
vt 0.858983 0.437516
vt 0.937640 0.399638
vt 0.983983 0.196595
vt 0.854132 0.033767
vt 0.645868 0.033767
vt 0.516017 0.196595
vt 0.562360 0.399638
vt 0.285714 0.500000
vt 0.428571 0.500000
vt 0.571429 0.500000
vt 0.714286 0.500000
vt 0.917027 0.500000
vt 1.000000 0.500000
vt 0.857143 0.500000
vt 0.571429 1.000000
vt 0.714286 1.000000
vt 0.714286 1.000000
vt 0.571429 1.000000
vt 0.285714 1.000000
vt 0.142857 1.000000
vt 0.428571 1.000000
vt 0.000000 1.000000
vt 0.437640 0.399638
vt 0.250000 0.490000
vt 0.062360 0.399638
vt 0.016017 0.196595
vt 0.145868 0.033767
vt 0.354132 0.033767
vt 0.483983 0.196595
vt 1.000000 1.000000
vt 0.857143 1.000000
vt 0.285714 1.000000
vt 0.142857 1.000000
vt 0.428571 1.000000
vt 0.000000 1.000000
vt 0.857143 1.000000
vt 0.857143 1.000000
vt 0.857143 1.000000
vt 0.857143 1.000000
vt 0.714286 1.000000
vt 0.714286 1.000000
vt 0.714286 1.000000
vt 0.714286 1.000000
vt 0.714286 1.000000
vt 0.714286 1.000000
vt 0.714286 1.000000
vt 0.857143 1.000000
vt 0.857143 1.000000
vt 0.857143 1.000000
vt 0.857143 1.000000
vt 0.857143 1.000000
vt 0.857143 1.000000
vt 0.857143 1.000000
vt 0.857143 1.000000
vt 0.857143 1.000000
vt 0.857143 1.000000
vt 0.857143 1.000000
vt 0.857143 1.000000
vt 0.857143 1.000000
vt 0.857143 1.000000
vt 0.857143 1.000000
vt 0.857143 1.000000
vt 0.857143 1.000000
vt 0.857143 1.000000
vt 0.714286 1.000000
vt 0.714286 1.000000
vt 0.714286 1.000000
vt 0.714286 1.000000
vt 0.714286 1.000000
vt 0.714286 1.000000
vt 0.714286 1.000000
vt 0.714286 1.000000
vt 0.714286 1.000000
vt 0.714286 1.000000
vt 0.714286 1.000000
vt 0.714286 1.000000
vt 0.714286 1.000000
vt 0.714286 1.000000
vt 0.714286 1.000000
vn 0.7452 0.6669 -0.0030
vn -0.0571 0.9984 -0.0056
vn -0.8161 0.5778 -0.0045
vn -0.9606 -0.2778 0.0000
vn -0.3813 -0.9245 0.0047
vn -0.7945 0.5027 0.3407
vn 0.4849 -0.8745 0.0065
vn 0.9859 -0.1673 0.0031
vn -0.0004 0.0014 1.0000
vn 0.0004 -0.0014 -1.0000
vn 0.5552 -0.7785 0.2926
vn -0.9483 -0.1947 0.2506
vn 0.9200 -0.2338 0.3145
vn -0.8650 0.3976 0.3062
vn -0.4403 -0.8477 0.2958
vn 0.6265 0.6618 0.4117
vn -0.9860 0.1666 -0.0002
vn -0.0621 -0.3641 0.9293
vn 0.2257 -0.0921 0.9698
vn -0.1061 0.2331 0.9666
vn 0.1987 0.1117 0.9737
vn 0.1916 -0.1145 0.9748
vn 0.3816 0.9243 -0.0007
vn 0.8161 -0.5778 0.0007
vn -0.7450 -0.6671 0.0002
vn -0.4848 0.8746 -0.0009
vn 0.9606 0.2778 0.0000
vn 0.0571 -0.9984 0.0009
vn 0.8724 -0.4887 0.0009
vn 0.0007 -0.0012 -1.0000
vn 0.0001 -0.0013 -1.0000
vn 0.0004 -0.0013 -1.0000
vn -0.6371 -0.7708 0.0007
vn -0.6555 0.7552 -0.0011
vn 0.9912 0.1323 0.0002
vn 0.0571 -0.9984 0.0012
vn -0.9501 0.3118 -0.0007
vn 0.5200 0.8542 -0.0008
vn 0.9753 0.1666 0.1452
vn -0.0913 0.9941 -0.0578
vn 0.0739 -0.3310 0.9407
vn 0.7798 0.5242 0.3423
vn -0.9882 -0.1368 0.0694
vn -0.1770 0.9736 -0.1439
vn -0.0428 0.9832 -0.1775
vn -0.0014 -0.9282 0.3720
vn -0.9821 -0.1668 -0.0872
vn 0.0681 -0.9955 -0.0661
vn 0.1991 0.9790 -0.0437
vn -0.0768 0.9970 -0.0032
vn 0.9985 0.0544 -0.0002
vn 0.1092 -0.9915 0.0712
vn 0.9650 0.0659 0.2540
vn -0.0738 0.9896 0.1231
vn 0.9521 -0.0945 -0.2909
vn 0.3176 -0.9405 0.1211
vn 0.8013 -0.3292 -0.4995
vn 0.4205 -0.8975 -0.1325
vn -0.9841 -0.0445 0.1722
vn 0.1698 0.9841 -0.0513
vn -0.9405 -0.0334 0.3382
vn 0.9918 -0.0298 -0.1241
vn -0.0494 0.0489 0.9976
vn 0.3106 -0.9279 0.2063
vn 0.9726 -0.0128 0.2321
vn 0.1569 0.9767 0.1466
vn 0.1724 0.0611 0.9831
vn -0.0812 0.9931 0.0844
vn -0.9625 -0.1534 0.2238
vn 0.1208 -0.9829 0.1393
vn -0.9976 -0.0325 -0.0612
vn -0.1039 0.9421 -0.3188
vn 0.3332 -0.9021 0.2742
vn -0.9535 -0.0095 0.3011
vn 0.9568 0.2498 0.1487
vn -0.9925 -0.1169 -0.0357
vn 0.3011 -0.8707 0.3887
vn 0.9812 0.1268 0.1452
vn -0.0407 0.9753 -0.2169
vn 0.9730 0.0951 -0.2105
vn 0.0784 -0.9479 0.3087
vn 0.0666 0.0964 0.9931
vn 0.0189 0.9928 0.1185
vn -0.9706 -0.0280 0.2391
vn 0.0249 -0.9705 0.2397
vn 0.7449 0.6672 -0.0026
vn 0.9860 -0.1667 0.0026
vn -0.7448 -0.6673 0.0004
vn 0.3861 -0.3066 0.8700
usemtl None
s off
f 1/1/1 96/2/1 101/3/1 100/4/1
f 3/5/2 4/6/2 6/7/2 5/8/2
f 5/8/3 6/7/3 8/9/3 7/10/3
f 7/10/4 8/9/4 10/11/4 9/12/4
f 9/12/5 10/11/5 12/13/5 11/14/5
f 8/9/6 6/7/6 17/15/6 18/16/6
f 11/14/7 12/13/7 14/17/7 99/18/7 13/19/7
f 13/19/8 99/18/8 96/20/8 1/21/8
f 7/10/9 9/12/9 26/22/9 25/23/9
f 15/24/10 16/25/10 37/26/10 36/27/10
f 14/17/11 12/13/11 20/28/11 21/29/11
f 10/11/12 8/9/12 18/16/12 19/30/12
f 2/31/13 14/17/13 21/29/13 16/32/13
f 17/15/14 6/7/14 50/33/14 52/34/14
f 12/13/15 10/11/15 19/30/15 20/28/15
f 4/6/16 2/35/16 16/25/16 15/24/16
f 28/36/17 22/37/17 29/38/17 35/39/17
f 13/19/18 1/21/18 22/37/18 28/36/18
f 3/5/9 5/8/9 24/40/9 23/41/9
f 9/12/19 11/14/19 27/42/19 26/22/19
f 1/1/20 100/4/20 98/43/20 22/44/20
f 5/8/9 7/10/9 25/23/9 24/40/9
f 11/14/21 13/19/21 28/36/21 27/42/21
f 29/45/22 97/46/22 30/47/22 31/48/22 32/49/22 33/50/22 34/51/22 35/52/22
f 26/22/23 27/42/23 34/53/23 33/54/23
f 24/40/24 25/23/24 32/55/24 31/56/24
f 22/44/25 98/43/25 97/57/25 29/58/25
f 27/42/26 28/36/26 35/39/26 34/53/26
f 25/23/27 26/22/27 33/54/27 32/55/27
f 23/41/28 24/40/28 31/56/28 30/59/28
f 39/60/29 38/61/29 45/62/29 46/63/29
f 21/29/30 20/28/30 41/64/30 42/65/30
f 19/30/10 18/16/10 39/60/10 40/66/10
f 17/15/10 15/24/10 36/27/10 38/61/10
f 16/32/10 21/29/10 42/65/10 37/67/10
f 20/28/31 19/30/31 40/66/31 41/64/31
f 18/16/10 17/15/10 38/61/10 39/60/10
f 43/68/32 44/69/32 49/70/32 48/71/32 47/72/32 46/73/32 45/74/32
f 36/27/33 37/26/33 44/75/33 43/76/33
f 42/65/34 41/64/34 48/77/34 49/78/34
f 40/66/35 39/60/35 46/63/35 47/79/35
f 38/61/36 36/27/36 43/76/36 45/62/36
f 37/67/37 42/65/37 49/78/37 44/80/37
f 41/64/38 40/66/38 47/79/38 48/77/38
f 51/81/39 53/82/39 57/83/39 55/84/39
f 15/24/40 17/15/40 52/34/40 53/82/40
f 6/7/41 4/6/41 51/81/41 50/33/41
f 4/6/42 15/24/42 53/82/42 51/81/42
f 56/85/43 54/86/43 58/87/43 60/88/43
f 53/82/44 52/34/44 56/85/44 57/83/44
f 56/85/45 52/34/45 85/89/45
f 50/33/46 51/81/46 55/84/46 54/86/46
f 60/88/47 58/87/47 62/90/47 64/91/47
f 54/86/48 55/84/48 59/92/48 58/87/48
f 57/83/49 61/93/49 69/94/49 67/95/49
f 57/83/50 56/85/50 60/88/50 61/93/50
f 63/96/51 65/97/51 81/98/51 79/99/51
f 58/87/52 59/92/52 63/96/52 62/90/52
f 59/92/53 61/93/53 65/97/53 63/96/53
f 61/93/54 60/88/54 64/91/54 65/97/54
f 66/100/55 67/95/55 69/94/55 68/101/55
f 59/92/56 68/101/56 72/102/56 70/103/56
f 55/84/57 57/83/57 67/95/57 66/100/57
f 59/92/58 55/84/58 66/100/58 68/101/58
f 71/104/59 70/103/59 74/105/59 75/106/59
f 69/94/60 61/93/60 71/104/60 73/107/60
f 61/93/61 59/92/61 70/103/61 71/104/61
f 68/101/62 69/94/62 73/107/62 72/102/62
f 75/106/63 74/105/63 76/108/63 77/109/63
f 70/103/64 72/102/64 76/108/64 74/105/64
f 72/102/65 73/107/65 77/109/65 76/108/65
f 73/107/66 71/104/66 75/106/66 77/109/66
f 78/110/67 79/99/67 81/98/67 80/111/67
f 65/97/68 64/91/68 80/111/68 81/98/68
f 64/91/69 62/90/69 78/110/69 80/111/69
f 62/90/70 63/96/70 79/99/70 78/110/70
f 52/34/71 50/33/71 84/112/71 85/89/71
f 56/85/72 85/89/72 87/113/72 83/114/72
f 50/33/73 54/86/73 84/112/73
f 87/113/74 86/115/74 88/116/74 90/117/74
f 54/86/75 56/85/75 83/114/75 82/118/75
f 85/89/76 84/112/76 86/115/76 87/113/76
f 84/112/77 54/86/77 82/118/77 86/115/77
f 89/119/78 91/120/78 95/121/78 93/122/78
f 83/114/79 87/113/79 90/117/79 91/120/79
f 82/118/80 83/114/80 91/120/80 89/119/80
f 86/115/81 82/118/81 89/119/81 88/116/81
f 93/122/82 95/121/82 94/123/82 92/124/82
f 91/120/83 90/117/83 94/123/83 95/121/83
f 90/117/84 88/116/84 92/124/84 94/123/84
f 88/116/85 89/119/85 93/122/85 92/124/85
f 100/4/86 101/3/86 96/2/86 2/35/86 4/6/86 3/5/86
f 96/20/87 99/18/87 14/17/87 2/31/87
f 97/57/88 98/43/88 23/41/88 30/59/88
f 98/43/89 100/4/89 3/5/89 23/41/89
