# Blender v2.91.0 OBJ File: 'drzewo_3.blend'
# www.blender.org
mtllib three_1.mtl
o Cube.474_Cube.475
v -1.367834 -1.407221 -0.018668
v -1.049615 -0.916549 1.922938
v -1.367834 1.516073 -0.018243
v -0.621779 0.771680 1.979476
v 2.467646 -2.569612 -0.017940
v 0.972405 -0.916549 1.923411
v 1.555461 1.516073 -0.017560
v 0.972406 1.105471 1.923705
v -1.460083 -1.324214 0.515273
v -0.621779 0.054227 1.979373
v -0.038604 1.105471 1.923470
v 1.378193 1.514060 0.516349
v 1.544742 -0.290427 -0.017825
v 0.900824 0.094461 1.923541
v 1.723778 -1.533442 0.515986
v 0.339054 -1.545810 -0.018291
v -0.038604 -0.894149 1.923177
v 0.281422 1.459712 4.917120
v 1.069878 -1.021251 -0.018043
v 0.216635 -0.918685 0.980599
v 1.190296 -0.148054 0.516063
v 0.129957 0.453470 1.480193
v -0.245491 -0.035391 0.841232
v -0.408485 0.283981 3.190514
v -0.423768 1.125590 3.629966
v 0.283601 0.800310 3.630084
v 0.990970 0.475030 3.630202
v 0.615607 -0.209308 3.630015
v 0.340409 -0.939707 3.629844
v -0.132225 -0.437707 3.190476
v -0.639317 -0.217997 3.190389
v 0.452094 2.683537 6.339009
v 0.762509 1.731412 4.917272
v 1.034209 1.250325 4.917266
v 1.305908 0.769239 4.917260
v 0.805584 0.531601 4.917107
v 0.343734 0.225840 4.916955
v 0.082694 0.712946 4.916965
v -0.199664 1.188013 4.916969
v 1.202699 -0.469506 4.528103
v 0.824954 2.680916 6.339096
v 0.822333 2.308055 6.339042
v 0.819712 1.935194 6.338986
v 0.447037 1.964215 6.338902
v 0.073990 1.940437 6.338813
v 0.084873 2.313239 6.338868
v 0.079233 2.686159 6.338923
v 0.983595 -0.775991 4.528006
v 1.256578 -0.182349 4.528157
v 0.971326 -0.240507 6.007782
v 1.244420 -0.059709 6.007872
v 1.540263 0.080807 6.007962
v 1.986024 -0.938932 6.566682
v 1.785943 -1.018435 6.585752
v 2.096682 -0.749955 6.551451
v 1.624983 -0.771187 6.986684
v 1.777849 -0.669985 6.986733
v 1.943445 -0.540506 6.966657
v 2.052335 -1.824927 6.696380
v 1.852254 -1.904430 6.715453
v 2.162993 -1.635950 6.681150
v 1.691295 -1.657182 7.116383
v 1.844161 -1.555979 7.116435
v 2.009756 -1.426500 7.096355
v 2.710987 -2.144373 7.723256
v 2.528915 -2.177190 7.735953
v 2.876486 -2.053633 7.707787
v 2.532948 -2.013087 7.905264
v 2.701214 -1.960438 7.900345
v 2.876757 -1.905086 7.885122
v 0.525345 2.663765 7.793611
v 0.737270 2.588051 7.791841
v 0.661509 2.376258 7.786677
v 0.585749 2.164464 7.781518
v 0.379188 2.255173 7.783655
v 0.161900 2.315890 7.785061
v 0.242355 2.526007 7.790182
v 0.313420 2.739477 7.795383
v 0.449585 2.451971 7.788449
v 1.232965 -2.438274 9.893057
v -1.294950 0.802464 9.119490
v -0.899163 -1.205085 8.284620
v 1.106087 -0.796618 9.119001
v -1.857124 3.650606 9.119070
v -2.121716 4.989532 8.561716
v 2.961011 0.677695 9.118042
v 2.961015 0.677673 9.118042
v 1.687156 -0.678307 9.118776
v 3.168794 -0.376763 8.500853
v 3.168617 -0.376875 8.145227
v 1.257965 -0.766071 7.350207
v 2.790709 1.535465 7.349179
v -0.463224 5.326959 7.349489
v -1.794443 3.328028 7.350380
v -2.121975 4.989368 8.041275
v 2.287084 4.086991 7.348805
v 0.217229 5.465506 7.349224
v 1.010726 5.627199 7.954680
v 2.208997 4.483901 7.807646
v 0.091733 4.190067 9.118277
v -0.050364 5.411297 8.642687
v -1.742870 5.066703 8.719353
v -1.551171 4.110015 9.118864
v -1.516346 1.919105 7.350588
v 1.257943 -0.766076 7.350207
v -0.899163 -1.205085 8.284609
v 1.700392 -3.927436 8.742352
v 3.684684 -3.702580 9.892481
v 0.568918 -0.325818 9.892830
v 0.256323 0.667144 9.124960
v 5.480170 -2.689632 9.891638
v 5.480176 -2.689649 9.891638
v 4.259634 -3.637516 9.892265
v 5.725547 -3.471846 9.041019
v 5.725302 -3.472002 8.550966
v 3.834620 -3.686249 7.455094
v 5.278833 -2.053789 7.454242
v 1.897111 0.852391 7.454788
v 0.642783 -0.565434 7.455527
v 0.255965 0.666916 8.407791
v 4.683942 -0.161331 7.454043
v 2.570397 0.928584 7.454541
v 3.355655 1.017667 8.288996
v 4.591752 0.133149 8.086378
v 2.492058 -0.002846 9.892094
v 2.305874 0.899114 9.236891
v 0.631209 0.709626 9.342247
v 0.857199 0.000037 9.892660
v 0.971275 -1.610427 7.455637
v 3.834598 -3.686252 7.455094
v 1.700392 -3.927436 8.742336
v 3.018948 -2.536604 7.455130
v 3.460114 -2.037933 7.454870
v 2.427093 -1.150176 7.455036
v 2.043931 -1.583282 7.455263
v 3.278392 -1.459840 7.454808
v 2.632763 -1.126901 7.454960
v 2.144276 -1.902498 7.455296
v 3.018941 -2.536605 7.455130
v 2.886364 -2.164792 7.680562
v 3.107362 -1.914988 7.680431
v 2.589881 -1.470275 7.680515
v 2.397940 -1.687235 7.680626
v 3.016330 -1.625398 7.680400
v 2.692909 -1.458615 7.680477
v 2.448206 -1.847143 7.680644
v 2.886361 -2.164792 7.680562
v 0.854665 0.991086 7.349967
v 1.566868 2.060515 7.349491
v 0.054899 3.822265 7.349635
v -0.563663 2.893445 7.350049
v 1.332854 3.246103 7.349317
v 0.371078 3.886642 7.349511
v -0.434443 2.238776 7.350146
v 0.854655 0.991084 7.349967
v 0.742467 1.480712 7.663621
v 1.226076 2.206890 7.663298
v 0.199399 3.403175 7.663395
v -0.220625 2.772476 7.663677
v 1.067172 3.011943 7.663180
v 0.414095 3.446890 7.663312
v -0.132880 2.327935 7.663743
v 0.742460 1.480711 7.663621
vt 0.000000 0.000000
vt 1.000000 0.000000
vt 1.000000 1.000000
vt 0.000000 1.000000
vt 0.000000 0.000000
vt 1.000000 0.000000
vt 1.000000 1.000000
vt 0.000000 1.000000
vt 0.000000 0.000000
vt 1.000000 0.000000
vt 1.000000 1.000000
vt 0.000000 1.000000
vt 0.000000 0.000000
vt 1.000000 0.000000
vt 1.000000 1.000000
vt 0.000000 1.000000
vt 0.000000 0.000000
vt 1.000000 0.000000
vt 1.000000 1.000000
vt 0.000000 1.000000
vt 0.000000 0.000000
vt 1.000000 0.000000
vt 1.000000 1.000000
vt 0.000000 1.000000
vt 0.000000 0.000000
vt 1.000000 1.000000
vt 0.000000 1.000000
vt 0.000000 0.000000
vt 1.000000 0.000000
vt 1.000000 1.000000
vt 0.000000 1.000000
vt 0.000000 0.000000
vt 1.000000 0.000000
vt 1.000000 1.000000
vt 0.000000 1.000000
vt 0.000000 0.000000
vt 1.000000 0.000000
vt 1.000000 1.000000
vt 0.000000 1.000000
vt 0.000000 0.000000
vt 1.000000 0.000000
vt 0.000000 1.000000
vt 1.000000 0.000000
vt 1.000000 1.000000
vt 0.000000 1.000000
vt 0.000000 0.000000
vt 1.000000 0.000000
vt 1.000000 1.000000
vt 0.000000 0.000000
vt 1.000000 0.000000
vt 1.000000 1.000000
vt 0.000000 1.000000
vt 0.000000 0.000000
vt 1.000000 0.000000
vt 1.000000 1.000000
vt 0.000000 0.000000
vt 1.000000 0.000000
vt 1.000000 1.000000
vt 0.000000 1.000000
vt 1.000000 1.000000
vt 0.000000 1.000000
vt 1.000000 1.000000
vt 0.000000 1.000000
vt 0.000000 1.000000
vt 1.000000 0.000000
vt 0.000000 1.000000
vt 1.000000 0.000000
vt 1.000000 1.000000
vt 0.000000 1.000000
vt 0.000000 0.000000
vt 1.000000 0.000000
vt 1.000000 1.000000
vt 0.000000 1.000000
vt 0.000000 0.000000
vt 1.000000 0.000000
vt 1.000000 1.000000
vt 0.000000 1.000000
vt 0.000000 0.000000
vt 1.000000 0.000000
vt 1.000000 1.000000
vt 0.000000 1.000000
vt 0.000000 0.000000
vt 1.000000 0.000000
vt 1.000000 1.000000
vt 0.000000 1.000000
vt 0.000000 0.000000
vt 1.000000 1.000000
vt 0.000000 1.000000
vt 0.000000 0.000000
vt 1.000000 0.000000
vt 1.000000 1.000000
vt 0.000000 1.000000
vt 0.000000 0.000000
vt 1.000000 1.000000
vt 0.000000 1.000000
vt 0.000000 0.000000
vt 1.000000 1.000000
vt 0.000000 1.000000
vt 0.000000 0.000000
vt 1.000000 0.000000
vt 1.000000 1.000000
vt 0.000000 1.000000
vt 0.000000 0.000000
vt 1.000000 0.000000
vt 1.000000 1.000000
vt 0.000000 1.000000
vt 0.000000 0.000000
vt 1.000000 0.000000
vt 1.000000 1.000000
vt 0.000000 1.000000
vt 0.000000 0.000000
vt 1.000000 0.000000
vt 1.000000 1.000000
vt 0.000000 1.000000
vt 0.000000 0.000000
vt 1.000000 1.000000
vt 0.000000 1.000000
vt 0.000000 0.000000
vt 1.000000 0.000000
vt 1.000000 1.000000
vt 0.000000 1.000000
vt 1.000000 0.000000
vt 1.000000 1.000000
vt 0.000000 1.000000
vt 0.000000 0.000000
vt 1.000000 0.000000
vt 1.000000 1.000000
vt 0.000000 1.000000
vt 0.000000 0.000000
vt 1.000000 0.000000
vt 1.000000 1.000000
vt 0.000000 1.000000
vt 0.000000 0.000000
vt 1.000000 0.000000
vt 1.000000 1.000000
vt 0.000000 1.000000
vt 0.000000 0.000000
vt 1.000000 0.000000
vt 1.000000 1.000000
vt 0.000000 1.000000
vt 0.000000 0.000000
vt 1.000000 0.000000
vt 1.000000 1.000000
vt 0.000000 1.000000
vt 0.000000 0.000000
vt 1.000000 0.000000
vt 1.000000 1.000000
vt 0.000000 1.000000
vt 0.000000 0.000000
vt 1.000000 0.000000
vt 1.000000 1.000000
vt 0.000000 1.000000
vt 1.000000 1.000000
vt 0.000000 1.000000
vt 0.000000 0.000000
vt 1.000000 0.000000
vt 1.000000 1.000000
vt 0.000000 1.000000
vt 0.000000 0.000000
vt 1.000000 0.000000
vt 1.000000 1.000000
vt 0.000000 1.000000
vt 0.000000 0.000000
vt 1.000000 0.000000
vt 1.000000 1.000000
vt 0.000000 1.000000
vt 0.000000 0.000000
vt 1.000000 0.000000
vt 1.000000 1.000000
vt 0.000000 1.000000
vt 0.000000 0.000000
vt 1.000000 0.000000
vt 1.000000 1.000000
vt 0.000000 1.000000
vt 1.000000 1.000000
vt 0.000000 1.000000
vt 1.000000 1.000000
vt 0.000000 1.000000
vt 0.000000 0.000000
vt 1.000000 0.000000
vt 1.000000 1.000000
vt 0.000000 1.000000
vt 0.000000 0.000000
vt 1.000000 0.000000
vt 1.000000 1.000000
vt 0.000000 1.000000
vt 0.000000 0.000000
vt 1.000000 0.000000
vt 1.000000 1.000000
vt 0.000000 1.000000
vt 0.000000 0.000000
vt 1.000000 0.000000
vt 1.000000 1.000000
vt 0.000000 1.000000
vt 0.000000 0.000000
vt 1.000000 0.000000
vt 1.000000 1.000000
vt 0.000000 1.000000
vt 0.000000 0.000000
vt 1.000000 0.000000
vt 1.000000 1.000000
vt 0.000000 1.000000
vt 0.000000 0.000000
vt 1.000000 0.000000
vt 1.000000 1.000000
vt 0.000000 1.000000
vt 0.000000 0.000000
vt 1.000000 0.000000
vt 1.000000 1.000000
vt 0.000000 1.000000
vt 0.000000 0.000000
vt 1.000000 0.000000
vt 1.000000 1.000000
vt 0.000000 1.000000
vt 0.000000 0.000000
vt 1.000000 0.000000
vt 1.000000 1.000000
vt 0.000000 1.000000
vt 0.000000 0.000000
vt 1.000000 0.000000
vt 1.000000 1.000000
vt 0.000000 1.000000
vt 0.000000 0.000000
vt 1.000000 0.000000
vt 1.000000 1.000000
vt 0.000000 1.000000
vt 0.000000 0.000000
vt 1.000000 0.000000
vt 1.000000 1.000000
vt 0.000000 1.000000
vt 0.000000 0.000000
vt 1.000000 0.000000
vt 0.000000 1.000000
vt 0.000000 0.000000
vt 1.000000 0.000000
vt 1.000000 1.000000
vt 0.000000 0.000000
vt 1.000000 0.000000
vt 1.000000 1.000000
vt 0.000000 1.000000
vt 0.000000 0.000000
vt 1.000000 0.000000
vt 0.000000 1.000000
vt 0.000000 0.000000
vt 1.000000 0.000000
vt 1.000000 1.000000
vt 0.000000 0.000000
vt 1.000000 0.000000
vt 0.000000 1.000000
vt 0.000000 0.000000
vt 1.000000 0.000000
vt 1.000000 1.000000
vt 0.000000 0.000000
vt 1.000000 0.000000
vt 1.000000 1.000000
vt 0.000000 0.000000
vt 1.000000 0.000000
vt 0.000000 1.000000
vt 0.000000 0.000000
vt 1.000000 0.000000
vt 1.000000 1.000000
vt 0.000000 0.000000
vt 1.000000 0.000000
vt 1.000000 1.000000
vt 0.000000 1.000000
vt 0.000000 0.000000
vt 1.000000 0.000000
vt 0.000000 1.000000
vt 0.000000 0.000000
vt 1.000000 0.000000
vt 1.000000 1.000000
vt 0.000000 1.000000
vt 0.375000 0.617400
vt 0.375000 0.617401
vt 0.375000 0.617401
vt 0.375000 0.617400
vt 0.706010 0.750000
vt 0.506954 0.750000
vt 0.625000 0.626788
vt 0.375000 0.101964
vt 0.472688 0.000000
vt 0.546249 0.000000
vt 0.568551 0.023278
vt 0.557808 0.127298
vt 0.460621 0.192531
vt 0.375000 0.143783
vt 0.625000 0.591077
vt 0.667547 0.500000
vt 0.667548 0.500000
vt 0.826491 0.628565
vt 0.836364 0.726566
vt 0.820956 0.750000
vt 0.375001 0.319836
vt 0.439864 0.303824
vt 0.625000 0.457452
vt 0.625000 0.457453
vt 0.537742 0.500000
vt 0.487477 0.500000
vt 0.375000 0.422811
vt 0.297811 0.500000
vt 0.506953 0.750000
vt 0.192040 0.750000
vt 0.472688 1.000000
vt 0.634949 0.179894
vt 0.450903 0.314863
vt 0.125000 0.606217
vt 0.706010 0.750000
vt 0.506954 0.750000
vt 0.625000 0.626788
vt 0.696274 0.866656
vt 0.625000 0.945956
vt 0.639350 0.189119
vt 0.375000 0.876098
vt 0.625000 0.831010
vt 0.546249 1.000000
vt 0.375000 0.932960
vt 0.375000 0.101964
vt 0.472688 0.000000
vt 0.546249 0.000000
vt 0.568551 0.023278
vt 0.557808 0.127298
vt 0.460621 0.192531
vt 0.375000 0.143783
vt 0.625000 0.591077
vt 0.667547 0.500000
vt 0.667548 0.500000
vt 0.826491 0.628565
vt 0.836364 0.726566
vt 0.820956 0.750000
vt 0.375001 0.319836
vt 0.439864 0.303824
vt 0.625000 0.457452
vt 0.625000 0.457453
vt 0.537742 0.500000
vt 0.487477 0.500000
vt 0.375000 0.422811
vt 0.375000 0.617400
vt 0.297811 0.500000
vt 0.506953 0.750000
vt 0.375000 0.617401
vt 0.192040 0.750000
vt 0.472688 1.000000
vt 0.634949 0.179894
vt 0.450903 0.314863
vt 0.125000 0.606217
vt 0.696274 0.866656
vt 0.625000 0.945956
vt 0.639350 0.189119
vt 0.375000 0.876098
vt 0.625000 0.831010
vt 0.546249 1.000000
vt 0.375000 0.932960
vt 0.375000 0.143783
vt 0.375000 0.101964
vt 0.375000 0.617400
vt 0.375000 0.617401
vt 0.375000 0.617401
vt 0.375000 0.617400
vt 0.375000 0.932960
vt 0.375000 0.876098
vt 0.375000 0.422811
vt 0.375001 0.319836
vt 0.297811 0.500000
vt 0.125000 0.606217
vt 0.192040 0.750000
vt 0.375000 0.876098
vt 0.375000 0.932960
vt 0.375000 0.101964
vt 0.375000 0.143783
vt 0.375001 0.319836
vt 0.375000 0.422811
vt 0.192040 0.750000
vt 0.125000 0.606217
vt 0.297811 0.500000
vt 0.375000 0.876098
vt 0.375000 0.932960
vt 0.375000 0.932960
vt 0.375000 0.876098
vt 0.375000 0.101964
vt 0.192040 0.750000
vt 0.375000 0.422811
vt 0.375001 0.319836
vt 0.297811 0.500000
vt 0.125000 0.606217
vt 0.375000 0.143783
vt 0.125000 0.606217
vt 0.194836 0.500000
vt 0.297811 0.500000
vt 0.375000 0.617400
vt 0.375000 0.617401
vt 0.248902 0.750000
vt 0.192040 0.750000
vt 0.125000 0.648036
vt 0.375000 0.422811
vt 0.375001 0.319836
vt 0.375000 0.143783
vt 0.375000 0.101964
vn -0.7958 0.5963 -0.1058
vn -0.4998 0.8251 -0.2636
vn 0.9327 0.2355 0.2730
vn 0.1259 -0.9771 0.1714
vn 0.0002 0.0001 -1.0000
vn 0.9669 -0.2549 0.0058
vn 0.9622 -0.1126 0.2478
vn -0.0072 0.9999 -0.0134
vn 0.1804 0.9530 0.2432
vn 0.0135 -0.9066 0.4219
vn -0.2431 -0.7228 0.6469
vn -0.2117 -0.9621 0.1719
vn 0.8149 0.3238 0.4807
vn 0.8913 -0.0511 0.4505
vn 0.9678 -0.0940 0.2335
vn -0.0989 0.8536 0.5114
vn 0.3609 0.9313 -0.0501
vn -0.8984 -0.4390 0.0143
vn -0.7114 0.1520 0.6861
vn 0.5717 0.6941 -0.4373
vn -0.5461 -0.6204 0.5629
vn 0.4977 0.6042 -0.6222
vn -0.8140 -0.4306 0.3899
vn -0.9112 0.4045 0.0777
vn -0.9869 -0.0527 0.1526
vn -0.1168 -0.8982 0.4239
vn -0.3464 -0.9366 0.0519
vn 0.9415 0.2967 -0.1599
vn -0.9347 -0.2719 0.2290
vn -0.2456 0.7798 -0.5758
vn 0.2455 -0.6225 0.7432
vn -0.4579 0.6913 0.5590
vn -0.7112 0.6545 -0.2567
vn 0.9750 0.0389 -0.2188
vn -0.8804 0.1982 0.4309
vn 0.1328 0.9904 0.0390
vn -0.0604 -0.9726 0.2246
vn 0.1327 0.9908 -0.0254
vn -0.1995 -0.9678 0.1535
vn -0.8654 -0.2939 0.4058
vn 0.9538 0.3005 -0.0009
vn 0.1677 -0.7024 0.6917
vn -0.2271 0.7212 -0.6544
vn 0.8536 -0.3084 -0.4199
vn -0.4269 0.6445 0.6344
vn 0.7702 -0.3402 -0.5395
vn 0.7599 -0.3621 -0.5399
vn -0.3578 0.7530 0.5522
vn -0.7138 -0.5976 0.3651
vn -0.0357 -0.1474 -0.9884
vn -0.9444 -0.1157 -0.3078
vn -0.3762 0.6888 0.6197
vn -0.7464 -0.6360 0.1960
vn 0.6226 -0.6940 -0.3616
vn 0.8672 0.4658 -0.1759
vn -0.2886 0.6644 0.6894
vn 0.5462 -0.6030 -0.5814
vn 0.9493 0.1139 0.2929
vn -0.0914 0.1375 0.9863
vn 0.0982 -0.1369 -0.9857
vn 0.0063 0.1453 0.9894
vn 0.3489 -0.6788 0.6461
vn 0.2031 -0.6891 0.6957
vn -0.6573 -0.6853 0.3135
vn 0.2268 -0.8861 -0.4042
vn 0.6759 0.6949 -0.2454
vn -0.3140 0.6765 0.6662
vn -0.0003 -0.0243 0.9997
vn -0.0003 -0.0242 0.9997
vn -0.9867 0.1541 0.0523
vn 0.9876 -0.1331 0.0835
vn -0.9864 0.1090 0.1229
vn 0.9801 -0.1327 0.1475
vn -0.0198 -0.0001 -0.9998
vn -0.2762 -0.4150 0.8669
vn -0.1995 0.9799 -0.0002
vn 0.0003 0.0002 1.0000
vn 0.9811 0.1936 -0.0006
vn 0.4209 -0.3950 0.8166
vn 0.4167 -0.2779 -0.8655
vn 0.1995 -0.9799 0.0002
vn -0.4174 0.2776 -0.8653
vn 0.4517 0.3689 0.8123
vn 0.4544 0.6259 -0.6339
vn -0.3298 -0.6399 0.6941
vn -0.0255 0.3693 0.9289
vn -0.4167 0.2779 0.8655
vn -0.3183 -0.3287 -0.8892
vn -0.9811 -0.1936 0.0005
vn -0.1124 0.9937 -0.0003
vn 0.9540 0.2999 -0.0006
vn 0.4554 -0.5860 0.6702
vn 0.4883 -0.4324 -0.7580
vn 0.1124 -0.9937 0.0003
vn -0.4889 0.4321 -0.7578
vn 0.5136 0.5711 0.6403
vn 0.4427 0.7939 -0.4168
vn -0.0080 0.5977 0.8017
vn -0.4883 0.4324 0.7580
vn -0.3900 -0.5378 -0.7474
vn -0.9540 -0.2999 0.0006
vn -0.0003 -0.0002 -1.0000
vn -0.0398 0.4966 -0.8671
vn 0.0292 0.0000 -0.9996
vn 0.4170 0.5753 -0.7037
vn 0.0623 -0.5534 -0.8306
vn 0.4188 -0.3709 -0.8289
vn 0.5651 0.1775 -0.8057
vn -0.5737 -0.1804 -0.7989
vn -0.2958 -0.5732 -0.7642
vn -0.4094 0.3618 -0.8375
vn 0.6943 0.1369 -0.7066
vn -0.7024 -0.1387 -0.6981
vn -0.3748 -0.5625 -0.7369
vn -0.5429 0.3612 -0.7581
vn -0.1360 0.5189 -0.8439
vn 0.5239 0.5413 -0.6577
vn 0.1156 -0.5694 -0.8139
vn 0.5531 -0.3687 -0.7471
usemtl Material.002
s off
f 9/1/1 2/2/1 10/3/1 23/4/1
f 12/5/2 22/6/2 11/7/2 8/8/2
f 21/9/3 14/10/3 6/11/3 15/12/3
f 20/13/4 17/14/4 2/15/4 9/16/4
f 16/17/5 19/18/5 13/19/5 5/20/5
f 14/21/6 8/22/6 27/23/6 28/24/6
f 6/25/7 14/10/7 28/26/7 29/27/7
f 11/28/8 4/29/8 25/30/8 26/31/8
f 8/32/9 11/33/9 26/34/9 27/35/9
f 1/36/5 3/37/5 19/38/5 16/39/5
f 3/40/5 7/41/5 13/19/5 19/42/5
f 16/17/10 20/43/10 9/44/10 1/45/10
f 5/46/11 15/47/11 20/48/11 16/39/11
f 15/49/12 6/50/12 17/51/12 20/52/12
f 13/53/13 21/54/13 15/55/13 5/20/13
f 7/56/14 12/57/14 21/58/14 13/59/14
f 12/5/15 8/22/15 14/60/15 21/61/15
f 7/56/16 3/37/16 22/62/16 12/63/16
f 3/40/17 4/29/17 11/7/17 22/64/17
f 3/40/18 23/65/18 10/3/18 4/66/18
f 1/36/19 9/67/19 23/68/19 3/69/19
f 27/70/20 26/71/20 34/72/20 35/73/20
f 31/74/21 30/75/21 38/76/21 39/77/21
f 26/78/22 25/79/22 33/80/22 34/81/22
f 30/82/23 29/83/23 37/84/23 38/85/23
f 10/86/24 2/2/24 31/87/24 24/88/24
f 4/89/25 10/90/25 24/91/25 25/92/25
f 2/93/26 17/14/26 30/94/26 31/95/26
f 17/96/27 6/50/27 29/97/27 30/98/27
f 34/99/28 33/100/28 41/101/28 42/102/28
f 38/103/29 37/104/29 45/105/29 46/106/29
f 33/107/30 18/108/30 32/109/30 41/110/30
f 37/111/31 36/112/31 44/113/31 45/114/31
f 36/115/32 37/104/32 50/116/32 51/117/32
f 24/118/33 31/119/33 39/120/33 18/121/33
f 27/70/34 35/122/34 52/123/34 49/124/34
f 25/125/35 24/126/35 18/127/35 33/128/35
f 41/129/36 32/130/36 71/131/36 72/132/36
f 45/133/37 44/134/37 75/135/37 76/136/37
f 32/137/38 47/138/38 78/139/38 71/140/38
f 44/141/39 43/142/39 74/143/39 75/144/39
f 39/145/40 38/146/40 46/147/40 47/148/40
f 35/149/41 34/150/41 42/151/41 43/152/41
f 36/115/42 35/122/42 43/153/42 44/154/42
f 18/155/43 39/156/43 47/157/43 32/158/43
f 40/159/44 49/160/44 55/161/44 53/162/44
f 51/163/45 50/164/45 56/165/45 57/166/45
f 28/167/46 27/168/46 49/169/46 40/170/46
f 29/171/47 28/172/47 40/173/47 48/174/47
f 35/149/48 36/112/48 51/175/48 52/176/48
f 37/111/49 29/83/49 48/177/49 50/178/49
f 54/179/50 53/180/50 59/181/50 60/182/50
f 56/183/51 54/184/51 60/185/51 62/186/51
f 52/187/52 51/188/52 57/189/52 58/190/52
f 50/191/53 48/192/53 54/193/53 56/194/53
f 48/195/54 40/196/54 53/197/54 54/198/54
f 49/199/55 52/200/55 58/201/55 55/202/55
f 64/203/56 63/204/56 69/205/56 70/206/56
f 59/207/57 61/208/57 67/209/57 65/210/57
f 55/211/58 58/212/58 64/213/58 61/214/58
f 57/215/59 56/216/59 62/217/59 63/218/59
f 53/219/60 55/220/60 61/221/60 59/222/60
f 58/223/61 57/224/61 63/225/61 64/226/61
f 65/227/62 67/228/62 70/229/62 69/230/62
f 66/231/63 65/232/63 69/205/63 68/233/63
f 62/234/64 60/235/64 66/236/64 68/233/64
f 60/237/65 59/238/65 65/239/65 66/240/65
f 61/241/66 64/242/66 70/229/66 67/243/66
f 63/244/67 62/245/67 68/246/67 69/230/67
f 79/247/68 71/248/68 78/139/68 77/249/68
f 75/250/69 79/251/69 77/252/69 76/136/69
f 74/253/69 73/254/69 79/255/69 75/144/69
f 73/256/68 72/257/68 71/131/68 79/258/68
f 46/259/70 45/260/70 76/261/70 77/249/70
f 42/262/71 41/263/71 72/264/71 73/265/71
f 47/266/72 46/267/72 77/252/72 78/268/72
f 43/269/73 42/270/73 73/271/73 74/272/73
f 91/273/74 105/274/74 155/275/74 148/276/74
f 81/277/75 82/278/75 83/279/75
f 93/280/76 95/281/76 85/282/76 102/283/76 101/284/76 98/285/76 97/286/76
f 88/287/77 87/288/77 86/289/77 100/290/77 103/291/77 84/292/77 81/277/77 83/279/77
f 96/293/78 99/294/78 86/295/78 87/296/78 89/297/78 90/298/78 92/299/78
f 87/296/79 88/287/79 89/297/79
f 90/298/80 91/273/80 92/300/80
f 91/273/81 90/298/81 89/297/81 88/287/81 83/279/81 82/278/81 106/301/81 105/274/81
f 93/280/82 94/302/82 95/303/82
f 101/284/83 100/304/83 86/289/83 99/305/83 98/285/83
f 96/293/84 97/306/84 98/285/84 99/305/84
f 80/307/85 107/308/85 108/309/85
f 100/290/86 101/284/86 102/283/86 103/310/86
f 84/311/87 103/310/87 102/312/87 85/282/87
f 104/313/88 105/274/88 106/301/88
f 104/313/89 106/301/89 82/278/89 81/314/89 84/311/89 85/315/89 95/303/89 94/316/89
f 118/317/90 120/318/90 110/319/90 127/320/90 126/321/90 123/322/90 122/323/90
f 113/324/77 112/325/77 111/326/77 125/327/77 128/328/77 109/329/77 80/307/77 108/309/77
f 121/330/91 124/331/91 111/332/91 112/333/91 114/334/91 115/335/91 117/336/91
f 112/333/92 113/324/92 114/334/92
f 115/335/93 116/337/93 117/338/93
f 116/337/94 115/335/94 114/334/94 113/324/94 108/309/94 107/308/94 131/339/94 130/340/94
f 118/317/95 119/341/95 120/342/95
f 126/321/96 125/343/96 111/326/96 124/344/96 123/322/96
f 121/330/97 122/345/97 123/322/97 124/344/97
f 125/327/98 126/321/98 127/320/98 128/346/98
f 109/347/99 128/346/99 127/348/99 110/319/99
f 129/349/100 130/340/100 131/339/100
f 129/349/101 131/339/101 107/308/101 80/350/101 109/347/101 110/351/101 120/342/101 119/352/101
f 118/317/102 122/323/102 137/353/102 134/354/102
f 132/355/103 139/356/103 147/357/103 140/358/103
f 116/337/104 130/340/104 139/356/104 132/355/104
f 129/349/102 119/352/102 135/359/102 138/360/102
f 130/340/102 129/349/102 138/360/102 139/356/102
f 121/330/102 117/336/102 133/361/102 136/362/102
f 117/338/102 116/337/102 132/355/102 133/363/102
f 122/345/102 121/330/102 136/362/102 137/364/102
f 119/341/102 118/317/102 134/354/102 135/365/102
f 140/358/102 147/357/102 146/366/102 143/367/102 142/368/102 145/369/102 144/370/102 141/371/102
f 139/356/105 138/360/105 146/366/105 147/357/105
f 134/354/106 137/353/106 145/369/106 142/368/106
f 135/365/107 134/354/107 142/368/107 143/372/107
f 138/360/108 135/359/108 143/367/108 146/366/108
f 136/362/109 133/361/109 141/371/109 144/370/109
f 137/364/110 136/362/110 144/370/110 145/373/110
f 133/363/111 132/355/111 140/358/111 141/374/111
f 154/375/112 151/376/112 159/377/112 162/378/112
f 104/313/102 94/316/102 151/376/102 154/375/102
f 94/302/102 93/280/102 150/379/102 151/380/102
f 105/274/102 104/313/102 154/375/102 155/275/102
f 96/293/102 92/299/102 149/381/102 152/382/102
f 92/300/102 91/273/102 148/276/102 149/383/102
f 97/306/102 96/293/102 152/382/102 153/384/102
f 93/280/102 97/286/102 153/385/102 150/379/102
f 161/386/102 160/387/102 157/388/102 156/389/102 163/390/102 162/391/102 159/392/102 158/393/102
f 152/382/113 149/381/113 157/394/113 160/395/113
f 153/384/114 152/382/114 160/395/114 161/386/114
f 149/383/115 148/276/115 156/389/115 157/388/115
f 148/276/116 155/275/116 163/390/116 156/389/116
f 155/275/117 154/375/117 162/378/117 163/390/117
f 150/379/118 153/385/118 161/396/118 158/397/118
f 151/380/119 150/379/119 158/397/119 159/392/119
