# Blender v2.91.0 OBJ File: 'drzewo_3.blend'
# www.blender.org
mtllib three_3.mtl
o Cube.473_Cube.474
v -1.879691 -1.455891 -0.028376
v -1.577482 -0.997209 2.507108
v -1.879691 1.276308 -0.027715
v -1.171350 0.580664 2.581023
v 1.761189 -2.542297 -0.027246
v 0.341946 -0.997209 2.507842
v 0.895285 1.276308 -0.026654
v 0.341947 0.892632 2.508299
v -1.967222 -1.378287 0.668870
v -1.171350 -0.089890 2.580861
v -0.617768 0.892632 2.507932
v 0.727048 1.274450 0.670541
v 0.885110 -0.412102 -0.027066
v 0.273997 -0.052288 2.508044
v 1.055099 -1.573837 0.669977
v -0.259405 -1.585421 -0.027788
v -0.617768 -0.976273 2.507480
v -0.313771 1.223848 6.417224
v 0.434339 -1.095151 -0.027404
v -0.375544 -0.999247 1.276628
v 0.548685 -0.279012 0.670097
v -0.457790 0.283232 1.929065
v -0.814233 -0.173700 1.094639
v -0.968794 0.124898 4.162454
v -0.983271 0.911511 4.736340
v -0.311792 0.607495 4.736523
v 0.359688 0.303478 4.736706
v 0.003369 -0.336126 4.736415
v -0.257866 -1.018779 4.736151
v -0.706550 -0.549613 4.162392
v -1.187914 -0.344266 4.162258
v -0.151660 2.367734 8.274053
v 0.142907 1.477787 6.417459
v 0.400822 1.028148 6.417450
v 0.658736 0.578510 6.417439
v 0.183797 0.356407 6.417203
v -0.254620 0.070633 6.416967
v -0.502416 0.525898 6.416983
v -0.770449 0.969909 6.416987
v 0.560736 -0.579275 5.909208
v 0.202283 2.365284 8.274186
v 0.199795 2.016797 8.274102
v 0.197307 1.668310 8.274016
v -0.156460 1.695434 8.273888
v -0.510580 1.673210 8.273746
v -0.500250 2.021642 8.273834
v -0.505603 2.370184 8.273918
v 0.352749 -0.865725 5.909060
v 0.611882 -0.310889 5.909294
v 0.341205 -0.365180 7.841444
v 0.600443 -0.196201 7.841583
v 0.881276 -0.064871 7.841723
v 1.304459 -1.017926 8.571316
v 1.114531 -1.092231 8.596207
v 1.409501 -0.841303 8.551441
v 0.961766 -0.861128 9.119762
v 1.106875 -0.766541 9.119840
v 1.264068 -0.645526 9.093637
v 1.367415 -1.845997 8.740656
v 1.177487 -1.920302 8.765548
v 1.472457 -1.669374 8.720780
v 1.024722 -1.689199 9.289102
v 1.169832 -1.594612 9.289181
v 1.327024 -1.473598 9.262976
v 1.992720 -2.144516 10.081627
v 1.819887 -2.175188 10.098196
v 2.149821 -2.059709 10.061440
v 1.823727 -2.021805 10.319297
v 1.983455 -1.972597 10.312886
v 2.150090 -1.920864 10.293021
v -0.082025 2.349318 10.173547
v 0.119148 2.278554 10.171245
v 0.047231 2.080605 10.164492
v -0.024686 1.882656 10.157742
v -0.220766 1.967435 10.160524
v -0.427030 2.024184 10.162349
v -0.350656 2.220565 10.169050
v -0.283197 2.420082 10.175852
v -0.153941 2.151369 10.166795
v 0.455040 -2.439065 12.583646
v -1.926676 0.567181 11.708934
v -1.553779 -1.295107 10.764903
v 0.335499 -0.916195 11.708384
v -2.456337 3.209239 11.708459
v -2.705627 4.451283 11.078230
v 2.083146 0.451440 11.707295
v 2.083150 0.451420 11.707295
v 0.882963 -0.806445 11.708126
v 2.278912 -0.526720 11.009409
v 2.278745 -0.526824 10.607286
v 0.478594 -0.887859 9.708316
v 1.922693 1.247144 9.707153
v -1.143052 4.764294 9.707503
v -2.397281 2.910002 9.708512
v -2.705871 4.451131 10.489743
v 1.448194 3.614048 9.706730
v -0.501952 4.892816 9.707204
v 0.245654 5.042810 10.391824
v 1.374624 3.982239 10.225567
v -0.620190 3.709666 11.707563
v -0.754070 4.842530 11.169788
v -2.348691 4.522870 11.256477
v -2.168078 3.635406 11.708226
v -2.135268 1.603024 9.708747
v 0.478573 -0.887863 9.708316
v -1.553779 -1.295107 10.764894
v 0.895434 -3.820475 11.282484
v 2.764966 -3.611889 12.582994
v -0.170603 -0.479462 12.583389
v -0.465120 0.441653 11.715119
v 4.456612 -2.672235 12.582042
v 4.456618 -2.672251 12.582042
v 3.306664 -3.551532 12.582751
v 4.687797 -3.397850 11.620202
v 4.687567 -3.397994 11.066075
v 2.906230 -3.596740 9.826918
v 4.266920 -2.082400 9.825954
v 1.080775 0.613495 9.826570
v -0.101010 -0.701739 9.827405
v -0.465456 0.441441 10.904181
v 3.706433 -0.326876 9.825727
v 1.715123 0.684175 9.826290
v 2.454966 0.766813 10.769853
v 3.619575 -0.053704 10.540743
v 1.641314 -0.179859 12.582557
v 1.465898 0.656838 11.841687
v -0.111915 0.481061 11.960818
v 0.101006 -0.177185 12.583198
v 0.208484 -1.671119 9.827532
v 2.906210 -3.596742 9.826918
v 0.895434 -3.820475 11.282470
v 2.137732 -2.530280 9.826958
v 2.553385 -2.067692 9.826663
v 1.580106 -1.244170 9.826851
v 1.219104 -1.645938 9.827106
v 2.382172 -1.531428 9.826594
v 1.773882 -1.222580 9.826766
v 1.313646 -1.942057 9.827146
v 2.137726 -2.530281 9.826958
v 2.012816 -2.185371 10.081863
v 2.221033 -1.953642 10.081717
v 1.733479 -1.541108 10.081811
v 1.552639 -1.742369 10.081939
v 2.135266 -1.685006 10.081682
v 1.830549 -1.530292 10.081768
v 1.599999 -1.890707 10.081958
v 2.012813 -2.185372 10.081863
v 0.098618 0.742155 9.708045
v 0.769632 1.734202 9.707505
v -0.654894 3.368477 9.707668
v -1.237683 2.506864 9.708137
v 0.549151 2.834005 9.707309
v -0.357001 3.428196 9.707529
v -1.115936 1.899565 9.708246
v 0.098608 0.742153 9.708045
v -0.007091 1.196353 10.062710
v 0.448549 1.869986 10.062344
v -0.518751 2.979712 10.062454
v -0.914483 2.394648 10.062772
v 0.298836 2.616788 10.062210
v -0.316472 3.020263 10.062360
v -0.831813 1.982273 10.062846
v -0.007098 1.196351 10.062710
vt 0.000000 0.000000
vt 1.000000 0.000000
vt 1.000000 1.000000
vt 0.000000 1.000000
vt 0.000000 0.000000
vt 1.000000 0.000000
vt 1.000000 1.000000
vt 0.000000 1.000000
vt 0.000000 0.000000
vt 1.000000 0.000000
vt 1.000000 1.000000
vt 0.000000 1.000000
vt 0.000000 0.000000
vt 1.000000 0.000000
vt 1.000000 1.000000
vt 0.000000 1.000000
vt 0.000000 0.000000
vt 1.000000 0.000000
vt 1.000000 1.000000
vt 0.000000 1.000000
vt 0.000000 0.000000
vt 1.000000 0.000000
vt 1.000000 1.000000
vt 0.000000 1.000000
vt 0.000000 0.000000
vt 1.000000 1.000000
vt 0.000000 1.000000
vt 0.000000 0.000000
vt 1.000000 0.000000
vt 1.000000 1.000000
vt 0.000000 1.000000
vt 0.000000 0.000000
vt 1.000000 0.000000
vt 1.000000 1.000000
vt 0.000000 1.000000
vt 0.000000 0.000000
vt 1.000000 0.000000
vt 1.000000 1.000000
vt 0.000000 1.000000
vt 0.000000 0.000000
vt 1.000000 0.000000
vt 0.000000 1.000000
vt 1.000000 0.000000
vt 1.000000 1.000000
vt 0.000000 1.000000
vt 0.000000 0.000000
vt 1.000000 0.000000
vt 1.000000 1.000000
vt 0.000000 0.000000
vt 1.000000 0.000000
vt 1.000000 1.000000
vt 0.000000 1.000000
vt 0.000000 0.000000
vt 1.000000 0.000000
vt 1.000000 1.000000
vt 0.000000 0.000000
vt 1.000000 0.000000
vt 1.000000 1.000000
vt 0.000000 1.000000
vt 1.000000 1.000000
vt 0.000000 1.000000
vt 1.000000 1.000000
vt 0.000000 1.000000
vt 0.000000 1.000000
vt 1.000000 0.000000
vt 0.000000 1.000000
vt 1.000000 0.000000
vt 1.000000 1.000000
vt 0.000000 1.000000
vt 0.000000 0.000000
vt 1.000000 0.000000
vt 1.000000 1.000000
vt 0.000000 1.000000
vt 0.000000 0.000000
vt 1.000000 0.000000
vt 1.000000 1.000000
vt 0.000000 1.000000
vt 0.000000 0.000000
vt 1.000000 0.000000
vt 1.000000 1.000000
vt 0.000000 1.000000
vt 0.000000 0.000000
vt 1.000000 0.000000
vt 1.000000 1.000000
vt 0.000000 1.000000
vt 0.000000 0.000000
vt 1.000000 1.000000
vt 0.000000 1.000000
vt 0.000000 0.000000
vt 1.000000 0.000000
vt 1.000000 1.000000
vt 0.000000 1.000000
vt 0.000000 0.000000
vt 1.000000 1.000000
vt 0.000000 1.000000
vt 0.000000 0.000000
vt 1.000000 1.000000
vt 0.000000 1.000000
vt 0.000000 0.000000
vt 1.000000 0.000000
vt 1.000000 1.000000
vt 0.000000 1.000000
vt 0.000000 0.000000
vt 1.000000 0.000000
vt 1.000000 1.000000
vt 0.000000 1.000000
vt 0.000000 0.000000
vt 1.000000 0.000000
vt 1.000000 1.000000
vt 0.000000 1.000000
vt 0.000000 0.000000
vt 1.000000 0.000000
vt 1.000000 1.000000
vt 0.000000 1.000000
vt 0.000000 0.000000
vt 1.000000 1.000000
vt 0.000000 1.000000
vt 0.000000 0.000000
vt 1.000000 0.000000
vt 1.000000 1.000000
vt 0.000000 1.000000
vt 1.000000 0.000000
vt 1.000000 1.000000
vt 0.000000 1.000000
vt 0.000000 0.000000
vt 1.000000 0.000000
vt 1.000000 1.000000
vt 0.000000 1.000000
vt 0.000000 0.000000
vt 1.000000 0.000000
vt 1.000000 1.000000
vt 0.000000 1.000000
vt 0.000000 0.000000
vt 1.000000 0.000000
vt 1.000000 1.000000
vt 0.000000 1.000000
vt 0.000000 0.000000
vt 1.000000 0.000000
vt 1.000000 1.000000
vt 0.000000 1.000000
vt 0.000000 0.000000
vt 1.000000 0.000000
vt 1.000000 1.000000
vt 0.000000 1.000000
vt 0.000000 0.000000
vt 1.000000 0.000000
vt 1.000000 1.000000
vt 0.000000 1.000000
vt 0.000000 0.000000
vt 1.000000 0.000000
vt 1.000000 1.000000
vt 0.000000 1.000000
vt 1.000000 1.000000
vt 0.000000 1.000000
vt 0.000000 0.000000
vt 1.000000 0.000000
vt 1.000000 1.000000
vt 0.000000 1.000000
vt 0.000000 0.000000
vt 1.000000 0.000000
vt 1.000000 1.000000
vt 0.000000 1.000000
vt 0.000000 0.000000
vt 1.000000 0.000000
vt 1.000000 1.000000
vt 0.000000 1.000000
vt 0.000000 0.000000
vt 1.000000 0.000000
vt 1.000000 1.000000
vt 0.000000 1.000000
vt 0.000000 0.000000
vt 1.000000 0.000000
vt 1.000000 1.000000
vt 0.000000 1.000000
vt 1.000000 1.000000
vt 0.000000 1.000000
vt 1.000000 1.000000
vt 0.000000 1.000000
vt 0.000000 0.000000
vt 1.000000 0.000000
vt 1.000000 1.000000
vt 0.000000 1.000000
vt 0.000000 0.000000
vt 1.000000 0.000000
vt 1.000000 1.000000
vt 0.000000 1.000000
vt 0.000000 0.000000
vt 1.000000 0.000000
vt 1.000000 1.000000
vt 0.000000 1.000000
vt 0.000000 0.000000
vt 1.000000 0.000000
vt 1.000000 1.000000
vt 0.000000 1.000000
vt 0.000000 0.000000
vt 1.000000 0.000000
vt 1.000000 1.000000
vt 0.000000 1.000000
vt 0.000000 0.000000
vt 1.000000 0.000000
vt 1.000000 1.000000
vt 0.000000 1.000000
vt 0.000000 0.000000
vt 1.000000 0.000000
vt 1.000000 1.000000
vt 0.000000 1.000000
vt 0.000000 0.000000
vt 1.000000 0.000000
vt 1.000000 1.000000
vt 0.000000 1.000000
vt 0.000000 0.000000
vt 1.000000 0.000000
vt 1.000000 1.000000
vt 0.000000 1.000000
vt 0.000000 0.000000
vt 1.000000 0.000000
vt 1.000000 1.000000
vt 0.000000 1.000000
vt 0.000000 0.000000
vt 1.000000 0.000000
vt 1.000000 1.000000
vt 0.000000 1.000000
vt 0.000000 0.000000
vt 1.000000 0.000000
vt 1.000000 1.000000
vt 0.000000 1.000000
vt 0.000000 0.000000
vt 1.000000 0.000000
vt 1.000000 1.000000
vt 0.000000 1.000000
vt 0.000000 0.000000
vt 1.000000 0.000000
vt 0.000000 1.000000
vt 0.000000 0.000000
vt 1.000000 0.000000
vt 1.000000 1.000000
vt 0.000000 0.000000
vt 1.000000 0.000000
vt 1.000000 1.000000
vt 0.000000 1.000000
vt 0.000000 0.000000
vt 1.000000 0.000000
vt 0.000000 1.000000
vt 0.000000 0.000000
vt 1.000000 0.000000
vt 1.000000 1.000000
vt 0.000000 0.000000
vt 1.000000 0.000000
vt 0.000000 1.000000
vt 0.000000 0.000000
vt 1.000000 0.000000
vt 1.000000 1.000000
vt 0.000000 0.000000
vt 1.000000 0.000000
vt 1.000000 1.000000
vt 0.000000 0.000000
vt 1.000000 0.000000
vt 0.000000 1.000000
vt 0.000000 0.000000
vt 1.000000 0.000000
vt 1.000000 1.000000
vt 0.000000 0.000000
vt 1.000000 0.000000
vt 1.000000 1.000000
vt 0.000000 1.000000
vt 0.000000 0.000000
vt 1.000000 0.000000
vt 0.000000 1.000000
vt 0.000000 0.000000
vt 1.000000 0.000000
vt 1.000000 1.000000
vt 0.000000 1.000000
vt 0.375000 0.617400
vt 0.375000 0.617401
vt 0.375000 0.617401
vt 0.375000 0.617400
vt 0.706010 0.750000
vt 0.506954 0.750000
vt 0.625000 0.626788
vt 0.375000 0.101964
vt 0.472688 0.000000
vt 0.546249 0.000000
vt 0.568551 0.023278
vt 0.557808 0.127298
vt 0.460621 0.192531
vt 0.375000 0.143783
vt 0.625000 0.591077
vt 0.667547 0.500000
vt 0.667548 0.500000
vt 0.826491 0.628565
vt 0.836364 0.726566
vt 0.820956 0.750000
vt 0.375001 0.319836
vt 0.439864 0.303824
vt 0.625000 0.457452
vt 0.625000 0.457453
vt 0.537742 0.500000
vt 0.487477 0.500000
vt 0.375000 0.422811
vt 0.297811 0.500000
vt 0.506953 0.750000
vt 0.192040 0.750000
vt 0.472688 1.000000
vt 0.634949 0.179894
vt 0.450903 0.314863
vt 0.125000 0.606217
vt 0.706010 0.750000
vt 0.506954 0.750000
vt 0.625000 0.626788
vt 0.696274 0.866656
vt 0.625000 0.945956
vt 0.639350 0.189119
vt 0.375000 0.876098
vt 0.625000 0.831010
vt 0.546249 1.000000
vt 0.375000 0.932960
vt 0.375000 0.101964
vt 0.472688 0.000000
vt 0.546249 0.000000
vt 0.568551 0.023278
vt 0.557808 0.127298
vt 0.460621 0.192531
vt 0.375000 0.143783
vt 0.625000 0.591077
vt 0.667547 0.500000
vt 0.667548 0.500000
vt 0.826491 0.628565
vt 0.836364 0.726566
vt 0.820956 0.750000
vt 0.375001 0.319836
vt 0.439864 0.303824
vt 0.625000 0.457452
vt 0.625000 0.457453
vt 0.537742 0.500000
vt 0.487477 0.500000
vt 0.375000 0.422811
vt 0.375000 0.617400
vt 0.297811 0.500000
vt 0.506953 0.750000
vt 0.375000 0.617401
vt 0.192040 0.750000
vt 0.472688 1.000000
vt 0.634949 0.179894
vt 0.450903 0.314863
vt 0.125000 0.606217
vt 0.696274 0.866656
vt 0.625000 0.945956
vt 0.639350 0.189119
vt 0.375000 0.876098
vt 0.625000 0.831010
vt 0.546249 1.000000
vt 0.375000 0.932960
vt 0.375000 0.143783
vt 0.375000 0.101964
vt 0.375000 0.617400
vt 0.375000 0.617401
vt 0.375000 0.617401
vt 0.375000 0.617400
vt 0.375000 0.932960
vt 0.375000 0.876098
vt 0.375000 0.422811
vt 0.375001 0.319836
vt 0.297811 0.500000
vt 0.125000 0.606217
vt 0.192040 0.750000
vt 0.375000 0.876098
vt 0.375000 0.932960
vt 0.375000 0.101964
vt 0.375000 0.143783
vt 0.375001 0.319836
vt 0.375000 0.422811
vt 0.192040 0.750000
vt 0.125000 0.606217
vt 0.297811 0.500000
vt 0.375000 0.876098
vt 0.375000 0.932960
vt 0.375000 0.932960
vt 0.375000 0.876098
vt 0.375000 0.101964
vt 0.192040 0.750000
vt 0.375000 0.422811
vt 0.375001 0.319836
vt 0.297811 0.500000
vt 0.125000 0.606217
vt 0.375000 0.143783
vt 0.125000 0.606217
vt 0.194836 0.500000
vt 0.297811 0.500000
vt 0.375000 0.617400
vt 0.375000 0.617401
vt 0.248902 0.750000
vt 0.192040 0.750000
vt 0.125000 0.648036
vt 0.375000 0.422811
vt 0.375001 0.319836
vt 0.375000 0.143783
vt 0.375000 0.101964
vn -0.7934 0.6039 -0.0767
vn -0.5026 0.8428 -0.1927
vn 0.9487 0.2433 0.2018
vn 0.1249 -0.9844 0.1236
vn 0.0004 0.0002 -1.0000
vn 0.9660 -0.2586 0.0041
vn 0.9763 -0.1160 0.1827
vn -0.0071 0.9999 -0.0096
vn 0.1803 0.9676 0.1767
vn 0.0138 -0.9487 0.3160
vn -0.2687 -0.8111 0.5196
vn -0.2101 -0.9698 0.1241
vn 0.8617 0.3478 0.3695
vn 0.9372 -0.0546 0.3444
vn 0.9804 -0.0967 0.1719
vn -0.1043 0.9141 0.3919
vn 0.3563 0.9337 -0.0360
vn -0.8957 -0.4445 0.0104
vn -0.8062 0.1749 0.5652
vn 0.5945 0.7330 -0.3306
vn -0.5879 -0.6784 0.4406
vn 0.5467 0.6740 -0.4968
vn -0.8422 -0.4525 0.2933
vn -0.9102 0.4104 0.0565
vn -0.9923 -0.0538 0.1116
vn -0.1205 -0.9405 0.3177
vn -0.3420 -0.9390 0.0373
vn 0.9459 0.3027 -0.1169
vn -0.9453 -0.2793 0.1684
vn -0.2643 0.8527 -0.4507
vn 0.2831 -0.7292 0.6231
vn -0.4915 0.7537 0.4362
vn -0.7175 0.6707 -0.1882
vn 0.9862 0.0400 -0.1609
vn -0.9210 0.2106 0.3277
vn 0.1308 0.9910 0.0279
vn -0.0602 -0.9848 0.1628
vn 0.1307 0.9913 -0.0182
vn -0.1977 -0.9740 0.1106
vn -0.8998 -0.3104 0.3067
vn 0.9524 0.3048 -0.0007
vn 0.1886 -0.8027 0.5658
vn -0.2516 0.8117 -0.5271
vn 0.8900 -0.3265 -0.3183
vn -0.4705 0.7213 0.5082
vn 0.8275 -0.3712 -0.4213
vn 0.8162 -0.3950 -0.4216
vn -0.3828 0.8180 0.4293
vn -0.7329 -0.6233 0.2726
vn -0.0485 -0.2037 -0.9778
vn -0.9660 -0.1202 -0.2288
vn -0.4120 0.7661 0.4933
vn -0.7484 -0.6477 0.1429
vn 0.6376 -0.7218 -0.2692
vn 0.8706 0.4749 -0.1284
vn -0.3248 0.7593 0.5639
vn 0.5917 -0.6635 -0.4579
vn 0.9689 0.1181 0.2173
vn -0.1242 0.1897 0.9739
vn 0.1334 -0.1888 -0.9729
vn 0.0086 0.2010 0.9796
vn 0.3858 -0.7624 0.5194
vn 0.2289 -0.7890 0.5701
vn -0.6679 -0.7073 0.2316
vn 0.2330 -0.9244 -0.3018
vn 0.6804 0.7105 -0.1796
vn -0.3500 0.7657 0.5397
vn -0.0005 -0.0339 0.9994
vn -0.9869 0.1566 0.0381
vn 0.9889 -0.1354 0.0607
vn -0.9898 0.1110 0.0897
vn 0.9849 -0.1355 0.1077
vn -0.0231 -0.0002 -0.9997
vn -0.3136 -0.4785 0.8202
vn -0.1966 0.9805 -0.0002
vn 0.0004 0.0003 1.0000
vn 0.9805 0.1966 -0.0005
vn 0.4703 -0.4482 0.7602
vn 0.4739 -0.3210 -0.8200
vn 0.1966 -0.9805 0.0002
vn -0.4746 0.3205 -0.8198
vn 0.5042 0.4182 0.7556
vn 0.4817 0.6740 -0.5600
vn -0.3545 -0.6985 0.6216
vn -0.0296 0.4359 0.8995
vn -0.4739 0.3210 0.8200
vn -0.3647 -0.3825 -0.8489
vn -0.9805 -0.1966 0.0005
vn -0.1107 0.9938 -0.0002
vn 0.9526 0.3041 -0.0005
vn 0.4873 -0.6368 0.5975
vn 0.5359 -0.4820 -0.6931
vn 0.1107 -0.9938 0.0002
vn -0.5365 0.4816 -0.6929
vn 0.5460 0.6166 0.5671
vn 0.4502 0.8201 -0.3532
vn -0.0089 0.6725 0.7400
vn -0.5359 0.4820 0.6931
vn -0.4260 -0.5966 -0.6802
vn -0.9526 -0.3041 0.0005
vn -0.0004 -0.0003 -1.0000
vn -0.1337 0.5744 -0.8076
vn 0.0398 0.0000 -0.9992
vn 0.4499 0.6304 -0.6326
vn 0.0697 -0.6289 -0.7744
vn 0.4699 -0.4227 -0.7749
vn 0.6308 0.2013 -0.7494
vn -0.6391 -0.2041 -0.7415
vn -0.3243 -0.6383 -0.6982
vn -0.4608 0.4135 -0.7853
vn 0.7540 0.1510 -0.6393
vn -0.7612 -0.1527 -0.6303
vn -0.4080 -0.6219 -0.6684
vn -0.5965 0.4031 -0.6940
vn -0.1169 0.5923 -0.7972
vn 0.5594 0.5871 -0.5851
vn 0.1287 -0.6435 -0.7545
vn 0.6058 -0.4101 -0.6818
usemtl Material.002
s off
f 9/1/1 2/2/1 10/3/1 23/4/1
f 12/5/2 22/6/2 11/7/2 8/8/2
f 21/9/3 14/10/3 6/11/3 15/12/3
f 20/13/4 17/14/4 2/15/4 9/16/4
f 16/17/5 19/18/5 13/19/5 5/20/5
f 14/21/6 8/22/6 27/23/6 28/24/6
f 6/25/7 14/10/7 28/26/7 29/27/7
f 11/28/8 4/29/8 25/30/8 26/31/8
f 8/32/9 11/33/9 26/34/9 27/35/9
f 1/36/5 3/37/5 19/38/5 16/39/5
f 3/40/5 7/41/5 13/19/5 19/42/5
f 16/17/10 20/43/10 9/44/10 1/45/10
f 5/46/11 15/47/11 20/48/11 16/39/11
f 15/49/12 6/50/12 17/51/12 20/52/12
f 13/53/13 21/54/13 15/55/13 5/20/13
f 7/56/14 12/57/14 21/58/14 13/59/14
f 12/5/15 8/22/15 14/60/15 21/61/15
f 7/56/16 3/37/16 22/62/16 12/63/16
f 3/40/17 4/29/17 11/7/17 22/64/17
f 3/40/18 23/65/18 10/3/18 4/66/18
f 1/36/19 9/67/19 23/68/19 3/69/19
f 27/70/20 26/71/20 34/72/20 35/73/20
f 31/74/21 30/75/21 38/76/21 39/77/21
f 26/78/22 25/79/22 33/80/22 34/81/22
f 30/82/23 29/83/23 37/84/23 38/85/23
f 10/86/24 2/2/24 31/87/24 24/88/24
f 4/89/25 10/90/25 24/91/25 25/92/25
f 2/93/26 17/14/26 30/94/26 31/95/26
f 17/96/27 6/50/27 29/97/27 30/98/27
f 34/99/28 33/100/28 41/101/28 42/102/28
f 38/103/29 37/104/29 45/105/29 46/106/29
f 33/107/30 18/108/30 32/109/30 41/110/30
f 37/111/31 36/112/31 44/113/31 45/114/31
f 36/115/32 37/104/32 50/116/32 51/117/32
f 24/118/33 31/119/33 39/120/33 18/121/33
f 27/70/34 35/122/34 52/123/34 49/124/34
f 25/125/35 24/126/35 18/127/35 33/128/35
f 41/129/36 32/130/36 71/131/36 72/132/36
f 45/133/37 44/134/37 75/135/37 76/136/37
f 32/137/38 47/138/38 78/139/38 71/140/38
f 44/141/39 43/142/39 74/143/39 75/144/39
f 39/145/40 38/146/40 46/147/40 47/148/40
f 35/149/41 34/150/41 42/151/41 43/152/41
f 36/115/42 35/122/42 43/153/42 44/154/42
f 18/155/43 39/156/43 47/157/43 32/158/43
f 40/159/44 49/160/44 55/161/44 53/162/44
f 51/163/45 50/164/45 56/165/45 57/166/45
f 28/167/46 27/168/46 49/169/46 40/170/46
f 29/171/47 28/172/47 40/173/47 48/174/47
f 35/149/48 36/112/48 51/175/48 52/176/48
f 37/111/49 29/83/49 48/177/49 50/178/49
f 54/179/50 53/180/50 59/181/50 60/182/50
f 56/183/51 54/184/51 60/185/51 62/186/51
f 52/187/52 51/188/52 57/189/52 58/190/52
f 50/191/53 48/192/53 54/193/53 56/194/53
f 48/195/54 40/196/54 53/197/54 54/198/54
f 49/199/55 52/200/55 58/201/55 55/202/55
f 64/203/56 63/204/56 69/205/56 70/206/56
f 59/207/57 61/208/57 67/209/57 65/210/57
f 55/211/58 58/212/58 64/213/58 61/214/58
f 57/215/59 56/216/59 62/217/59 63/218/59
f 53/219/60 55/220/60 61/221/60 59/222/60
f 58/223/61 57/224/61 63/225/61 64/226/61
f 65/227/62 67/228/62 70/229/62 69/230/62
f 66/231/63 65/232/63 69/205/63 68/233/63
f 62/234/64 60/235/64 66/236/64 68/233/64
f 60/237/65 59/238/65 65/239/65 66/240/65
f 61/241/66 64/242/66 70/229/66 67/243/66
f 63/244/67 62/245/67 68/246/67 69/230/67
f 79/247/68 71/248/68 78/139/68 77/249/68
f 75/250/68 79/251/68 77/252/68 76/136/68
f 74/253/68 73/254/68 79/255/68 75/144/68
f 73/256/68 72/257/68 71/131/68 79/258/68
f 46/259/69 45/260/69 76/261/69 77/249/69
f 42/262/70 41/263/70 72/264/70 73/265/70
f 47/266/71 46/267/71 77/252/71 78/268/71
f 43/269/72 42/270/72 73/271/72 74/272/72
f 91/273/73 105/274/73 155/275/73 148/276/73
f 81/277/74 82/278/74 83/279/74
f 93/280/75 95/281/75 85/282/75 102/283/75 101/284/75 98/285/75 97/286/75
f 88/287/76 87/288/76 86/289/76 100/290/76 103/291/76 84/292/76 81/277/76 83/279/76
f 96/293/77 99/294/77 86/295/77 87/296/77 89/297/77 90/298/77 92/299/77
f 87/296/78 88/287/78 89/297/78
f 90/298/79 91/273/79 92/300/79
f 91/273/80 90/298/80 89/297/80 88/287/80 83/279/80 82/278/80 106/301/80 105/274/80
f 93/280/81 94/302/81 95/303/81
f 101/284/82 100/304/82 86/289/82 99/305/82 98/285/82
f 96/293/83 97/306/83 98/285/83 99/305/83
f 80/307/84 107/308/84 108/309/84
f 100/290/85 101/284/85 102/283/85 103/310/85
f 84/311/86 103/310/86 102/312/86 85/282/86
f 104/313/87 105/274/87 106/301/87
f 104/313/88 106/301/88 82/278/88 81/314/88 84/311/88 85/315/88 95/303/88 94/316/88
f 118/317/89 120/318/89 110/319/89 127/320/89 126/321/89 123/322/89 122/323/89
f 113/324/76 112/325/76 111/326/76 125/327/76 128/328/76 109/329/76 80/307/76 108/309/76
f 121/330/90 124/331/90 111/332/90 112/333/90 114/334/90 115/335/90 117/336/90
f 112/333/91 113/324/91 114/334/91
f 115/335/92 116/337/92 117/338/92
f 116/337/93 115/335/93 114/334/93 113/324/93 108/309/93 107/308/93 131/339/93 130/340/93
f 118/317/94 119/341/94 120/342/94
f 126/321/95 125/343/95 111/326/95 124/344/95 123/322/95
f 121/330/96 122/345/96 123/322/96 124/344/96
f 125/327/97 126/321/97 127/320/97 128/346/97
f 109/347/98 128/346/98 127/348/98 110/319/98
f 129/349/99 130/340/99 131/339/99
f 129/349/100 131/339/100 107/308/100 80/350/100 109/347/100 110/351/100 120/342/100 119/352/100
f 118/317/101 122/323/101 137/353/101 134/354/101
f 132/355/102 139/356/102 147/357/102 140/358/102
f 116/337/103 130/340/103 139/356/103 132/355/103
f 129/349/101 119/352/101 135/359/101 138/360/101
f 130/340/101 129/349/101 138/360/101 139/356/101
f 121/330/101 117/336/101 133/361/101 136/362/101
f 117/338/101 116/337/101 132/355/101 133/363/101
f 122/345/101 121/330/101 136/362/101 137/364/101
f 119/341/101 118/317/101 134/354/101 135/365/101
f 140/358/101 147/357/101 146/366/101 143/367/101 142/368/101 145/369/101 144/370/101 141/371/101
f 139/356/104 138/360/104 146/366/104 147/357/104
f 134/354/105 137/353/105 145/369/105 142/368/105
f 135/365/106 134/354/106 142/368/106 143/372/106
f 138/360/107 135/359/107 143/367/107 146/366/107
f 136/362/108 133/361/108 141/371/108 144/370/108
f 137/364/109 136/362/109 144/370/109 145/373/109
f 133/363/110 132/355/110 140/358/110 141/374/110
f 154/375/111 151/376/111 159/377/111 162/378/111
f 104/313/101 94/316/101 151/376/101 154/375/101
f 94/302/101 93/280/101 150/379/101 151/380/101
f 105/274/101 104/313/101 154/375/101 155/275/101
f 96/293/101 92/299/101 149/381/101 152/382/101
f 92/300/101 91/273/101 148/276/101 149/383/101
f 97/306/101 96/293/101 152/382/101 153/384/101
f 93/280/101 97/286/101 153/385/101 150/379/101
f 161/386/101 160/387/101 157/388/101 156/389/101 163/390/101 162/391/101 159/392/101 158/393/101
f 152/382/112 149/381/112 157/394/112 160/395/112
f 153/384/113 152/382/113 160/395/113 161/386/113
f 149/383/114 148/276/114 156/389/114 157/388/114
f 148/276/115 155/275/115 163/390/115 156/389/115
f 155/275/116 154/375/116 162/378/116 163/390/116
f 150/379/117 153/385/117 161/396/117 158/397/117
f 151/380/118 150/379/118 158/397/118 159/392/118
