# MagicaVoxel @ Ephtracy

# group
o 

# material
mtllib sygnalizacja_ul_ver2.mtl
usemtl palette

# normals
vn -1 0 0
vn 1 0 0
vn 0 0 1
vn 0 0 -1
vn 0 -1 0
vn 0 1 0

# texcoords
vt 0.0410156 0.5
vt 0.275391 0.5
vt 0.603516 0.5
vt 0.982422 0.5

# verts
v -0.2 1.5 0.6
v -0.2 1.5 0.4
v -0.2 2.2 0.6
v -0.2 2.2 0.4
v -0.1 0 0.4
v -0.1 0 0.2
v -0.1 0.6 0.5
v -0.1 0.6 0.4
v -0.1 0.8 0.5
v -0.1 0.8 0.4
v -0.1 1.5 0.4
v -0.1 1.6 0.7
v -0.1 1.6 0.6
v -0.1 1.8 0.7
v -0.1 1.8 0.6
v -0.1 1.9 0.7
v -0.1 1.9 0.6
v -0.1 2 0.4
v -0.1 2 0.2
v -0.1 2.1 0.7
v -0.1 2.1 0.6
v 0.1 0 0.4
v 0.1 0 0.2
v 0.1 0.6 0.5
v 0.1 0.6 0.4
v 0.1 0.8 0.5
v 0.1 0.8 0.4
v 0.1 1.5 0.4
v 0.1 1.6 0.7
v 0.1 1.6 0.6
v 0.1 1.8 0.7
v 0.1 1.8 0.6
v 0.1 1.9 0.7
v 0.1 1.9 0.6
v 0.1 2 0.4
v 0.1 2 0.2
v 0.1 2.1 0.7
v 0.1 2.1 0.6
v 0.2 1.5 0.6
v 0.2 1.5 0.4
v 0.2 2.2 0.6
v 0.2 2.2 0.4
v -0.1 1.6 0.7
v -0.1 1.8 0.7
v -0.1 1.9 0.7
v -0.1 2.1 0.7
v 0.1 1.6 0.7
v 0.1 1.8 0.7
v 0.1 1.9 0.7
v 0.1 2.1 0.7
v -0.2 1.5 0.6
v -0.2 2.2 0.6
v -0.1 1.6 0.6
v -0.1 1.8 0.6
v -0.1 1.9 0.6
v -0.1 2.1 0.6
v 0.1 1.6 0.6
v 0.1 1.8 0.6
v 0.1 1.9 0.6
v 0.1 2.1 0.6
v 0.2 1.5 0.6
v 0.2 2.2 0.6
v -0.1 0.6 0.5
v -0.1 0.8 0.5
v 0.1 0.6 0.5
v 0.1 0.8 0.5
v -0.1 0 0.4
v -0.1 0.6 0.4
v -0.1 0.8 0.4
v -0.1 1.5 0.4
v 0.1 0 0.4
v 0.1 0.6 0.4
v 0.1 0.8 0.4
v 0.1 1.5 0.4
v -0.2 1.5 0.4
v -0.2 2.2 0.4
v -0.1 1.5 0.4
v -0.1 2 0.4
v 0.1 1.5 0.4
v 0.1 2 0.4
v 0.2 1.5 0.4
v 0.2 2.2 0.4
v -0.1 0 0.2
v -0.1 2 0.2
v 0.1 0 0.2
v 0.1 2 0.2
v -0.1 0 0.4
v 0.1 0 0.4
v -0.1 0 0.2
v 0.1 0 0.2
v -0.1 0.6 0.5
v 0.1 0.6 0.5
v -0.1 0.6 0.4
v 0.1 0.6 0.4
v -0.2 1.5 0.6
v 0.2 1.5 0.6
v -0.2 1.5 0.4
v -0.1 1.5 0.4
v 0.1 1.5 0.4
v 0.2 1.5 0.4
v -0.1 1.6 0.7
v 0.1 1.6 0.7
v -0.1 1.6 0.6
v 0.1 1.6 0.6
v -0.1 1.9 0.7
v 0.1 1.9 0.7
v -0.1 1.9 0.6
v 0.1 1.9 0.6
v -0.1 0.8 0.5
v 0.1 0.8 0.5
v -0.1 0.8 0.4
v 0.1 0.8 0.4
v -0.1 1.8 0.7
v 0.1 1.8 0.7
v -0.1 1.8 0.6
v 0.1 1.8 0.6
v -0.1 2 0.4
v 0.1 2 0.4
v -0.1 2 0.2
v 0.1 2 0.2
v -0.1 2.1 0.7
v 0.1 2.1 0.7
v -0.1 2.1 0.6
v 0.1 2.1 0.6
v -0.2 2.2 0.6
v 0.2 2.2 0.6
v -0.2 2.2 0.4
v 0.2 2.2 0.4

# faces
f 3/4/1 2/4/1 1/4/1
f 4/4/1 2/4/1 3/4/1
f 8/4/1 6/4/1 5/4/1
f 9/1/1 8/1/1 7/1/1
f 10/4/1 6/4/1 8/4/1
f 10/1/1 8/1/1 9/1/1
f 11/4/1 6/4/1 10/4/1
f 14/3/1 13/3/1 12/3/1
f 15/3/1 13/3/1 14/3/1
f 18/4/1 6/4/1 11/4/1
f 19/4/1 6/4/1 18/4/1
f 20/2/1 17/2/1 16/2/1
f 21/2/1 17/2/1 20/2/1
f 22/4/2 23/4/2 25/4/2
f 24/1/2 25/1/2 26/1/2
f 25/4/2 23/4/2 27/4/2
f 26/1/2 25/1/2 27/1/2
f 27/4/2 23/4/2 28/4/2
f 29/3/2 30/3/2 31/3/2
f 31/3/2 30/3/2 32/3/2
f 28/4/2 23/4/2 35/4/2
f 35/4/2 23/4/2 36/4/2
f 33/2/2 34/2/2 37/2/2
f 37/2/2 34/2/2 38/2/2
f 39/4/2 40/4/2 41/4/2
f 41/4/2 40/4/2 42/4/2
f 47/3/3 44/3/3 43/3/3
f 48/3/3 44/3/3 47/3/3
f 49/2/3 46/2/3 45/2/3
f 50/2/3 46/2/3 49/2/3
f 53/4/3 52/4/3 51/4/3
f 54/4/3 52/4/3 53/4/3
f 55/4/3 52/4/3 54/4/3
f 56/4/3 52/4/3 55/4/3
f 57/4/3 53/4/3 51/4/3
f 58/4/3 55/4/3 54/4/3
f 59/4/3 55/4/3 58/4/3
f 60/4/3 52/4/3 56/4/3
f 61/4/3 59/4/3 58/4/3
f 61/4/3 60/4/3 59/4/3
f 61/4/3 57/4/3 51/4/3
f 61/4/3 58/4/3 57/4/3
f 62/4/3 52/4/3 60/4/3
f 62/4/3 60/4/3 61/4/3
f 65/1/3 64/1/3 63/1/3
f 66/1/3 64/1/3 65/1/3
f 71/4/3 68/4/3 67/4/3
f 72/4/3 68/4/3 71/4/3
f 73/4/3 70/4/3 69/4/3
f 74/4/3 70/4/3 73/4/3
f 75/4/4 76/4/4 77/4/4
f 77/4/4 76/4/4 78/4/4
f 78/4/4 76/4/4 80/4/4
f 79/4/4 80/4/4 81/4/4
f 80/4/4 76/4/4 82/4/4
f 81/4/4 80/4/4 82/4/4
f 83/4/4 84/4/4 85/4/4
f 85/4/4 84/4/4 86/4/4
f 89/4/5 88/4/5 87/4/5
f 90/4/5 88/4/5 89/4/5
f 93/1/5 92/1/5 91/1/5
f 94/1/5 92/1/5 93/1/5
f 97/4/5 96/4/5 95/4/5
f 98/4/5 96/4/5 97/4/5
f 99/4/5 96/4/5 98/4/5
f 100/4/5 96/4/5 99/4/5
f 103/3/5 102/3/5 101/3/5
f 104/3/5 102/3/5 103/3/5
f 107/2/5 106/2/5 105/2/5
f 108/2/5 106/2/5 107/2/5
f 109/1/6 110/1/6 111/1/6
f 111/1/6 110/1/6 112/1/6
f 113/3/6 114/3/6 115/3/6
f 115/3/6 114/3/6 116/3/6
f 117/4/6 118/4/6 119/4/6
f 119/4/6 118/4/6 120/4/6
f 121/2/6 122/2/6 123/2/6
f 123/2/6 122/2/6 124/2/6
f 125/4/6 126/4/6 127/4/6
f 127/4/6 126/4/6 128/4/6
