# MagicaVoxel @ Ephtracy

# group
o 

# material
mtllib sklep2_ver2.mtl
usemtl palette

# normals
vn -1 0 0
vn 1 0 0
vn 0 0 1
vn 0 0 -1
vn 0 -1 0
vn 0 1 0

# texcoords
vt 0.00195313 0.5
vt 0.306641 0.5
vt 0.337891 0.5
vt 0.369141 0.5
vt 0.611328 0.5
vt 0.638672 0.5
vt 0.642578 0.5
vt 0.669922 0.5
vt 0.962891 0.5

# verts
v -3.1 0 3
v -3.1 0 -3.1
v -3.1 2.6 3
v -3.1 2.6 -3.1
v -2.7 2.5 -1
v -2.7 2.5 -1.1
v -2.7 2.5 -2.6
v -2.7 2.5 -2.7
v -2.7 2.7 -1.1
v -2.7 2.7 -2.6
v -2.7 2.8 -1
v -2.7 2.8 -2.7
v -1.3 0.3 3
v -1.3 0.3 2.9
v -1.3 2 3
v -1.3 2 2.9
v -1.3 2.1 3.1
v -1.3 2.1 3
v -1.3 2.6 3
v -1.3 2.6 2.9
v -1.3 2.7 3.1
v -1.3 2.7 2.9
v 0.9 0 3
v 0.9 0 2.9
v 0.9 2 3
v 0.9 2 2.9
v 2.8 0.3 3
v 2.8 0.3 2.9
v 2.8 2.1 3
v 2.8 2.1 2.9
v 2.8 2.5 2.8
v 2.8 2.5 -2.9
v 2.8 2.6 2.8
v 2.8 2.6 2.7
v 2.8 2.6 -2.9
v 2.8 2.7 2.8
v 2.8 2.7 2.7
v -2.9 0.3 3
v -2.9 0.3 2.9
v -2.9 2 3
v -2.9 2 2.9
v -2.9 2.5 2.8
v -2.9 2.5 -2.9
v -2.9 2.6 2.8
v -2.9 2.6 -2.9
v -1.1 0 3
v -1.1 0 2.9
v -1.1 2 3
v -1.1 2 2.9
v -0.0999999 2.5 -1
v -0.0999999 2.5 -2.7
v -0.0999999 2.8 -1
v -0.0999999 2.8 -2.7
v 1 2.1 3.1
v 1 2.1 3
v 1 2.6 3
v 1 2.6 2.9
v 1 2.7 3.1
v 1 2.7 2.9
v 1.1 0.3 3
v 1.1 0.3 2.9
v 1.1 2.1 3
v 1.1 2.1 2.9
v 3 0 3
v 3 0 2.8
v 3 0 2.7
v 3 0 -3.1
v 3 2.6 3
v 3 2.6 2.8
v 3 2.6 2.7
v 3 2.6 -3.1
v 3.1 0 2.8
v 3.1 0 2.7
v 3.1 2.7 2.8
v 3.1 2.7 2.7
v -1.3 2.1 3.1
v -1.3 2.7 3.1
v -1.2 2.2 3.1
v -1.2 2.6 3.1
v -0.9 2.4 3.1
v -0.9 2.5 3.1
v -0.8 2.3 3.1
v -0.8 2.4 3.1
v -0.7 2.3 3.1
v -0.7 2.4 3.1
v -0.6 2.4 3.1
v -0.6 2.5 3.1
v -0.5 2.3 3.1
v -0.5 2.5 3.1
v -0.2 2.3 3.1
v -0.2 2.5 3.1
v -0.0999999 2.4 3.1
v -0.0999999 2.5 3.1
v 0 2.3 3.1
v 0 2.4 3.1
v 0 2.5 3.1
v 0.0999999 2.3 3.1
v 0.0999999 2.4 3.1
v 0.0999999 2.5 3.1
v 0.2 2.4 3.1
v 0.2 2.5 3.1
v 0.3 2.3 3.1
v 0.3 2.4 3.1
v 0.4 2.4 3.1
v 0.4 2.5 3.1
v 0.5 2.3 3.1
v 0.5 2.4 3.1
v 0.6 2.4 3.1
v 0.6 2.5 3.1
v 0.9 2.2 3.1
v 0.9 2.6 3.1
v 1 2.1 3.1
v 1 2.7 3.1
v -3.1 0 3
v -3.1 2.6 3
v -2.9 0.3 3
v -2.9 2 3
v -1.3 0.3 3
v -1.3 2 3
v -1.3 2.1 3
v -1.3 2.6 3
v -1.1 0 3
v -1.1 2 3
v 0.9 0 3
v 0.9 2 3
v 1 2.1 3
v 1 2.6 3
v 1.1 0.3 3
v 1.1 2.1 3
v 2.8 0.3 3
v 2.8 2.1 3
v 3 0 3
v 3 2.6 3
v -2.9 0.3 2.9
v -2.9 2 2.9
v -2.8 0.4 2.9
v -2.8 1.9 2.9
v -1.4 0.4 2.9
v -1.4 1.9 2.9
v -1.3 0.3 2.9
v -1.3 2 2.9
v -1.1 0 2.9
v -1.1 2 2.9
v -1 0.1 2.9
v -1 1.9 2.9
v -0.2 0.1 2.9
v -0.2 1.9 2.9
v 0 0.1 2.9
v 0 1.9 2.9
v 0.8 0.1 2.9
v 0.8 1.9 2.9
v 0.9 0 2.9
v 0.9 2 2.9
v 1.1 0.3 2.9
v 1.1 2.1 2.9
v 1.2 0.4 2.9
v 1.2 2 2.9
v 2.7 0.4 2.9
v 2.7 2 2.9
v 2.8 0.3 2.9
v 2.8 2.1 2.9
v 2.8 2.6 2.8
v 2.8 2.7 2.8
v 3 0 2.8
v 3 2.6 2.8
v 3.1 0 2.8
v 3.1 2.7 2.8
v -2.7 2.5 -1
v -2.7 2.8 -1
v -0.0999999 2.5 -1
v -0.0999999 2.8 -1
v -2.9 2.5 -2.9
v -2.9 2.6 -2.9
v 2.8 2.5 -2.9
v 2.8 2.6 -2.9
v -1.3 2.6 2.9
v -1.3 2.7 2.9
v 1 2.6 2.9
v 1 2.7 2.9
v -2.9 2.5 2.8
v -2.9 2.6 2.8
v 2.8 2.5 2.8
v 2.8 2.6 2.8
v 2.8 2.6 2.7
v 2.8 2.7 2.7
v 3 0 2.7
v 3 2.6 2.7
v 3.1 0 2.7
v 3.1 2.7 2.7
v -2.7 2.5 -2.7
v -2.7 2.8 -2.7
v -0.0999999 2.5 -2.7
v -0.0999999 2.8 -2.7
v -3.1 0 -3.1
v -3.1 2.6 -3.1
v 3 0 -3.1
v 3 2.6 -3.1
v -3.1 0 3
v -1.1 0 3
v 0.9 0 3
v 3 0 3
v -1.1 0 2.9
v 0.9 0 2.9
v -1.1 0 2.8
v 0.9 0 2.8
v 3 0 2.8
v 3.1 0 2.8
v 3 0 2.7
v 3.1 0 2.7
v -3.1 0 -3.1
v 3 0 -3.1
v -2.9 2 3
v -1.3 2 3
v -1.1 2 3
v 0.9 2 3
v -2.9 2 2.9
v -1.3 2 2.9
v -1.1 2 2.9
v 0.9 2 2.9
v -1.3 2.1 3.1
v 1 2.1 3.1
v -1.3 2.1 3
v 1 2.1 3
v 1.1 2.1 3
v 2.8 2.1 3
v 1.1 2.1 2.9
v 2.8 2.1 2.9
v -2.9 0.3 3
v -1.3 0.3 3
v 1.1 0.3 3
v 2.8 0.3 3
v -2.9 0.3 2.9
v -1.3 0.3 2.9
v 1.1 0.3 2.9
v 2.8 0.3 2.9
v -2.9 2.5 2.8
v 2.8 2.5 2.8
v -2.7 2.5 -1
v -0.0999999 2.5 -1
v -2.7 2.5 -1.1
v -2.7 2.5 -2.6
v -2.7 2.5 -2.7
v -0.0999999 2.5 -2.7
v -2.9 2.5 -2.9
v 2.8 2.5 -2.9
v -3.1 2.6 3
v -1.3 2.6 3
v 1 2.6 3
v 3 2.6 3
v -1.3 2.6 2.9
v 1 2.6 2.9
v -2.9 2.6 2.8
v 2.8 2.6 2.8
v 3 2.6 2.8
v 2.8 2.6 2.7
v 3 2.6 2.7
v -2.9 2.6 -2.9
v 2.8 2.6 -2.9
v -3.1 2.6 -3.1
v 3 2.6 -3.1
v -1.3 2.7 3.1
v 1 2.7 3.1
v -1.3 2.7 2.9
v 1 2.7 2.9
v 2.8 2.7 2.8
v 3.1 2.7 2.8
v 2.8 2.7 2.7
v 3.1 2.7 2.7
v -2.7 2.8 -1
v -0.0999999 2.8 -1
v -2.7 2.8 -2.7
v -0.0999999 2.8 -2.7

# faces
f 3/7/1 2/7/1 1/7/1
f 4/7/1 2/7/1 3/7/1
f 9/6/1 6/6/1 5/6/1
f 9/7/1 7/7/1 6/7/1
f 10/6/1 8/6/1 7/6/1
f 10/7/1 7/7/1 9/7/1
f 11/6/1 9/6/1 5/6/1
f 11/6/1 10/6/1 9/6/1
f 12/6/1 8/6/1 10/6/1
f 12/6/1 10/6/1 11/6/1
f 15/7/1 14/7/1 13/7/1
f 16/7/1 14/7/1 15/7/1
f 19/8/1 18/8/1 17/8/1
f 21/8/1 19/8/1 17/8/1
f 21/8/1 20/8/1 19/8/1
f 22/8/1 20/8/1 21/8/1
f 25/7/1 24/7/1 23/7/1
f 26/7/1 24/7/1 25/7/1
f 29/7/1 28/7/1 27/7/1
f 30/7/1 28/7/1 29/7/1
f 33/7/1 32/7/1 31/7/1
f 34/7/1 32/7/1 33/7/1
f 35/7/1 32/7/1 34/7/1
f 36/9/1 34/9/1 33/9/1
f 37/9/1 34/9/1 36/9/1
f 38/7/2 39/7/2 40/7/2
f 40/7/2 39/7/2 41/7/2
f 42/7/2 43/7/2 44/7/2
f 44/7/2 43/7/2 45/7/2
f 46/7/2 47/7/2 48/7/2
f 48/7/2 47/7/2 49/7/2
f 50/6/2 51/6/2 52/6/2
f 52/6/2 51/6/2 53/6/2
f 54/8/2 55/8/2 56/8/2
f 54/8/2 56/8/2 58/8/2
f 56/8/2 57/8/2 58/8/2
f 58/8/2 57/8/2 59/8/2
f 60/7/2 61/7/2 62/7/2
f 62/7/2 61/7/2 63/7/2
f 64/7/2 65/7/2 68/7/2
f 68/7/2 65/7/2 69/7/2
f 66/7/2 67/7/2 70/7/2
f 70/7/2 67/7/2 71/7/2
f 72/9/2 73/9/2 74/9/2
f 74/9/2 73/9/2 75/9/2
f 78/8/3 77/8/3 76/8/3
f 79/8/3 77/8/3 78/8/3
f 80/1/3 79/1/3 78/1/3
f 81/1/3 79/1/3 80/1/3
f 82/1/3 80/1/3 78/1/3
f 83/5/3 81/5/3 80/5/3
f 83/1/3 80/1/3 82/1/3
f 84/1/3 82/1/3 78/1/3
f 84/5/3 83/5/3 82/5/3
f 85/5/3 81/5/3 83/5/3
f 85/5/3 83/5/3 84/5/3
f 86/1/3 85/1/3 84/1/3
f 86/5/3 81/5/3 85/5/3
f 87/1/3 79/1/3 81/1/3
f 87/5/3 81/5/3 86/5/3
f 88/1/3 86/1/3 84/1/3
f 88/1/3 84/1/3 78/1/3
f 88/1/3 87/1/3 86/1/3
f 89/1/3 79/1/3 87/1/3
f 89/1/3 87/1/3 88/1/3
f 90/1/3 88/1/3 78/1/3
f 90/5/3 89/5/3 88/5/3
f 91/1/3 79/1/3 89/1/3
f 91/5/3 89/5/3 90/5/3
f 92/1/3 91/1/3 90/1/3
f 93/1/3 79/1/3 91/1/3
f 93/1/3 91/1/3 92/1/3
f 94/1/3 90/1/3 78/1/3
f 94/1/3 92/1/3 90/1/3
f 95/5/3 93/5/3 92/5/3
f 95/1/3 92/1/3 94/1/3
f 96/1/3 79/1/3 93/1/3
f 96/5/3 93/5/3 95/5/3
f 97/5/3 95/5/3 94/5/3
f 97/1/3 94/1/3 78/1/3
f 98/1/3 96/1/3 95/1/3
f 98/5/3 95/5/3 97/5/3
f 99/1/3 79/1/3 96/1/3
f 99/1/3 96/1/3 98/1/3
f 100/1/3 98/1/3 97/1/3
f 100/5/3 99/5/3 98/5/3
f 101/1/3 79/1/3 99/1/3
f 101/5/3 99/5/3 100/5/3
f 102/1/3 100/1/3 97/1/3
f 102/1/3 97/1/3 78/1/3
f 102/1/3 101/1/3 100/1/3
f 103/1/3 101/1/3 102/1/3
f 104/5/3 103/5/3 102/5/3
f 104/1/3 101/1/3 103/1/3
f 105/1/3 79/1/3 101/1/3
f 105/1/3 101/1/3 104/1/3
f 106/5/3 104/5/3 102/5/3
f 106/1/3 102/1/3 78/1/3
f 106/5/3 105/5/3 104/5/3
f 107/5/3 105/5/3 106/5/3
f 108/1/3 107/1/3 106/1/3
f 108/5/3 105/5/3 107/5/3
f 109/1/3 79/1/3 105/1/3
f 109/5/3 105/5/3 108/5/3
f 110/8/3 78/8/3 76/8/3
f 110/1/3 108/1/3 106/1/3
f 110/1/3 109/1/3 108/1/3
f 110/1/3 106/1/3 78/1/3
f 111/1/3 79/1/3 109/1/3
f 111/1/3 109/1/3 110/1/3
f 111/8/3 77/8/3 79/8/3
f 112/8/3 110/8/3 76/8/3
f 112/8/3 111/8/3 110/8/3
f 113/8/3 77/8/3 111/8/3
f 113/8/3 111/8/3 112/8/3
f 116/7/3 115/7/3 114/7/3
f 117/7/3 115/7/3 116/7/3
f 118/7/3 116/7/3 114/7/3
f 119/7/3 115/7/3 117/7/3
f 120/7/3 115/7/3 119/7/3
f 121/7/3 115/7/3 120/7/3
f 122/7/3 118/7/3 114/7/3
f 122/7/3 119/7/3 118/7/3
f 122/7/3 120/7/3 119/7/3
f 123/7/3 120/7/3 122/7/3
f 125/7/3 120/7/3 123/7/3
f 126/7/3 120/7/3 125/7/3
f 126/7/3 125/7/3 124/7/3
f 128/7/3 126/7/3 124/7/3
f 128/7/3 127/7/3 126/7/3
f 129/7/3 127/7/3 128/7/3
f 130/7/3 128/7/3 124/7/3
f 131/7/3 127/7/3 129/7/3
f 132/7/3 130/7/3 124/7/3
f 132/7/3 131/7/3 130/7/3
f 133/7/3 127/7/3 131/7/3
f 133/7/3 131/7/3 132/7/3
f 136/4/3 135/4/3 134/4/3
f 137/4/3 135/4/3 136/4/3
f 138/4/3 136/4/3 134/4/3
f 138/2/3 137/2/3 136/2/3
f 139/4/3 135/4/3 137/4/3
f 139/2/3 137/2/3 138/2/3
f 140/4/3 138/4/3 134/4/3
f 140/4/3 139/4/3 138/4/3
f 141/4/3 135/4/3 139/4/3
f 141/4/3 139/4/3 140/4/3
f 144/4/3 143/4/3 142/4/3
f 145/4/3 143/4/3 144/4/3
f 146/4/3 144/4/3 142/4/3
f 146/2/3 145/2/3 144/2/3
f 147/4/3 143/4/3 145/4/3
f 147/2/3 145/2/3 146/2/3
f 148/4/3 146/4/3 142/4/3
f 148/4/3 147/4/3 146/4/3
f 149/4/3 143/4/3 147/4/3
f 149/4/3 147/4/3 148/4/3
f 150/4/3 148/4/3 142/4/3
f 150/2/3 149/2/3 148/2/3
f 151/4/3 143/4/3 149/4/3
f 151/2/3 149/2/3 150/2/3
f 152/4/3 150/4/3 142/4/3
f 152/4/3 151/4/3 150/4/3
f 153/4/3 143/4/3 151/4/3
f 153/4/3 151/4/3 152/4/3
f 156/4/3 155/4/3 154/4/3
f 157/4/3 155/4/3 156/4/3
f 158/4/3 156/4/3 154/4/3
f 158/2/3 157/2/3 156/2/3
f 159/4/3 155/4/3 157/4/3
f 159/2/3 157/2/3 158/2/3
f 160/4/3 158/4/3 154/4/3
f 160/4/3 159/4/3 158/4/3
f 161/4/3 155/4/3 159/4/3
f 161/4/3 159/4/3 160/4/3
f 165/9/3 163/9/3 162/9/3
f 166/9/3 165/9/3 164/9/3
f 167/9/3 163/9/3 165/9/3
f 167/9/3 165/9/3 166/9/3
f 170/6/3 169/6/3 168/6/3
f 171/6/3 169/6/3 170/6/3
f 174/7/3 173/7/3 172/7/3
f 175/7/3 173/7/3 174/7/3
f 176/8/4 177/8/4 178/8/4
f 178/8/4 177/8/4 179/8/4
f 180/7/4 181/7/4 182/7/4
f 182/7/4 181/7/4 183/7/4
f 184/9/4 185/9/4 187/9/4
f 186/9/4 187/9/4 188/9/4
f 187/9/4 185/9/4 189/9/4
f 188/9/4 187/9/4 189/9/4
f 190/6/4 191/6/4 192/6/4
f 192/6/4 191/6/4 193/6/4
f 194/7/4 195/7/4 196/7/4
f 196/7/4 195/7/4 197/7/4
f 202/7/5 199/7/5 198/7/5
f 203/7/5 201/7/5 200/7/5
f 204/7/5 202/7/5 198/7/5
f 204/4/5 203/4/5 202/4/5
f 205/7/5 201/7/5 203/7/5
f 205/4/5 203/4/5 204/4/5
f 206/7/5 201/7/5 205/7/5
f 208/7/5 205/7/5 204/7/5
f 208/9/5 207/9/5 206/9/5
f 208/7/5 206/7/5 205/7/5
f 209/9/5 207/9/5 208/9/5
f 210/7/5 204/7/5 198/7/5
f 210/7/5 208/7/5 204/7/5
f 211/7/5 208/7/5 210/7/5
f 216/7/5 213/7/5 212/7/5
f 217/7/5 213/7/5 216/7/5
f 218/7/5 215/7/5 214/7/5
f 219/7/5 215/7/5 218/7/5
f 222/8/5 221/8/5 220/8/5
f 223/8/5 221/8/5 222/8/5
f 226/7/5 225/7/5 224/7/5
f 227/7/5 225/7/5 226/7/5
f 228/7/6 229/7/6 232/7/6
f 232/7/6 229/7/6 233/7/6
f 230/7/6 231/7/6 234/7/6
f 234/7/6 231/7/6 235/7/6
f 236/7/6 237/7/6 238/7/6
f 238/7/6 237/7/6 239/7/6
f 236/7/6 238/7/6 240/7/6
f 236/7/6 240/7/6 241/7/6
f 236/7/6 241/7/6 242/7/6
f 239/7/6 237/7/6 243/7/6
f 236/7/6 242/7/6 244/7/6
f 242/7/6 243/7/6 244/7/6
f 243/7/6 237/7/6 245/7/6
f 244/7/6 243/7/6 245/7/6
f 246/7/6 247/7/6 250/7/6
f 248/7/6 249/7/6 251/7/6
f 246/7/6 250/7/6 252/7/6
f 250/7/6 251/7/6 252/7/6
f 251/7/6 249/7/6 253/7/6
f 252/7/6 251/7/6 253/7/6
f 253/7/6 249/7/6 254/7/6
f 246/7/6 252/7/6 257/7/6
f 255/7/6 256/7/6 258/7/6
f 246/7/6 257/7/6 259/7/6
f 257/7/6 258/7/6 259/7/6
f 258/7/6 256/7/6 260/7/6
f 259/7/6 258/7/6 260/7/6
f 261/8/6 262/8/6 263/8/6
f 263/8/6 262/8/6 264/8/6
f 265/9/6 266/9/6 267/9/6
f 267/9/6 266/9/6 268/9/6
f 269/6/6 270/6/6 271/6/6
f 271/6/6 270/6/6 272/6/6
