# Blender v2.90.1 OBJ File: ''
# www.blender.org
mtllib pieniek.mtl
o Cylinder
v -0.000000 -0.011746 -0.669874
v -0.000000 1.213781 -0.669874
v 0.302275 -0.042883 -0.588880
v 0.302275 1.213781 -0.588880
v 0.523556 -0.015242 -0.367599
v 0.523556 1.115908 -0.367599
v 0.604588 0.008728 -0.065231
v 0.604551 1.177104 -0.065323
v 0.526410 -0.020702 0.243959
v 0.523556 1.238330 0.236952
v 0.309295 -0.063910 0.475465
v 0.302275 1.213781 0.458233
v 0.008605 -0.077179 0.560353
v 0.000000 1.213781 0.539228
v -0.297397 -0.042576 0.470209
v -0.302275 1.213781 0.458233
v -0.522797 0.093934 0.238818
v -0.523556 1.213781 0.236952
v -0.604551 0.004679 -0.065323
v -0.527071 1.213781 -0.065323
v -0.523557 0.078359 -0.367598
v -0.523557 1.213781 -0.367598
v -0.302276 0.004679 -0.588879
v -0.302276 1.043102 -0.588879
v -0.000000 0.428325 -0.669874
v 0.302275 0.219620 -0.588880
v 0.523556 0.364553 -0.367599
v 0.604588 0.476495 -0.065231
v 0.526410 0.368265 0.243959
v 0.309295 0.199003 0.475465
v 0.008605 0.293578 0.560353
v -0.297397 0.220426 0.470209
v -0.522797 0.260544 0.238818
v -0.604551 0.267181 -0.065323
v -0.523557 0.267181 -0.367598
v -0.302276 0.267181 -0.588879
v 0.227673 1.127149 -0.459665
v -0.000000 1.127149 -0.520670
v 0.394342 1.127149 -0.292996
v 0.455346 1.180770 -0.065323
v 0.394342 1.180770 0.162350
v 0.227673 1.127149 0.329018
v 0.000000 1.127149 0.390023
v -0.227673 1.127149 0.329018
v -0.394341 1.127149 0.162350
v -0.455347 1.127149 -0.065323
v -0.394342 1.127149 -0.292996
v -0.227674 1.127149 -0.459665
v 0.095860 -0.014936 -0.909434
v 0.339038 -0.062231 -0.844275
v 0.339038 0.151832 -0.844275
v 0.095860 0.259898 -0.909434
v 0.305689 -0.030178 -1.077047
v 0.405365 -0.041206 -0.973464
v 0.405365 0.079378 -0.973464
v 0.305689 0.090445 -1.077047
v 0.610561 -0.001521 -1.091610
v 0.763861 -0.005452 0.211955
v 0.751332 0.004679 -0.103352
v 0.751332 0.384177 -0.103352
v 0.763861 0.297663 0.211955
v 1.046202 0.266981 0.048532
v 0.946315 0.270244 0.193730
v 0.946315 0.083163 0.193730
v 1.046202 0.038645 0.048532
v 1.196836 0.163210 0.230837
v 1.096185 0.201291 0.300793
v 1.096185 0.081915 0.300793
v 1.196836 0.029022 0.230837
v 1.184549 0.050264 0.464455
v -0.226276 -0.070421 0.819852
v 0.004543 -0.089540 0.610490
v -0.031713 0.153256 0.651864
v -0.226276 0.192444 0.819852
v 0.114081 0.028985 0.811388
v 0.038643 0.065644 0.932024
v 0.038643 -0.054476 0.932024
v 0.114081 -0.091136 0.811388
v 0.276746 -0.031076 0.855126
v 0.116913 1.127149 -0.489343
v 0.155223 0.435690 -0.628282
v 0.155223 1.213781 -0.628282
v 0.220735 0.256189 -0.875974
v 0.356874 0.099216 -1.023856
v 0.564054 1.272277 0.085815
v 0.565499 0.570634 0.089364
v 0.424844 1.211511 0.048513
v 0.757596 0.446613 0.054302
v 0.996259 0.321911 0.121131
v 1.146511 0.192851 0.265815
v 0.367288 -0.052369 0.413628
v 0.311247 1.220338 0.362667
v 0.367288 0.244214 0.413628
v 0.272191 1.141472 0.284500
v 0.416064 1.231967 0.257850
v 0.351139 1.166871 0.205552
v 0.470132 -0.031902 0.303968
v 0.470132 0.324390 0.303968
v 0.004753 0.843943 -0.614331
v 0.279860 0.756092 -0.540616
v 0.481253 0.769221 -0.339223
v 0.554984 0.846277 -0.064077
v 0.482454 0.830671 0.213942
v 0.282815 0.747414 0.419639
v 0.008375 0.787223 0.494993
v -0.268302 0.756432 0.417426
v -0.471428 0.773319 0.211778
v -0.545463 0.776112 -0.064115
v -0.471748 0.776112 -0.339223
v -0.270356 0.643663 -0.540616
v 0.146024 0.847043 -0.576477
v 0.518719 0.892166 0.074932
v 0.290512 0.769652 0.331512
v 0.385078 0.809090 0.234076
v -0.564054 0.004679 -0.216461
v -0.486574 1.213781 -0.216461
v -0.564054 0.267181 -0.216461
v -0.424844 1.127149 -0.179160
v -0.508606 0.592537 -0.201669
v -0.151138 1.213781 0.498731
v -0.144396 0.333260 0.515281
v -0.113837 1.127149 0.359521
v -0.128995 0.249108 0.735858
v 0.076362 0.047435 0.871706
v -0.129964 0.771828 0.456209
v 0.412916 0.022856 -0.478239
v 0.412916 1.164844 -0.478239
v 0.412916 0.292086 -0.478239
v 0.311007 1.127149 -0.376330
v 0.380557 0.762657 -0.439920
vt 0.957207 0.818956
vt 0.957207 1.000000
vt 0.916667 1.000000
vt 0.916667 0.818956
vt 0.875000 0.818956
vt 0.875000 1.000000
vt 0.833333 1.000000
vt 0.833333 0.818956
vt 0.750000 1.000000
vt 0.750000 0.818956
vt 0.708333 0.818956
vt 0.708333 1.000000
vt 0.666667 1.000000
vt 0.666667 0.818956
vt 0.605592 0.818956
vt 0.605592 1.000000
vt 0.583333 1.000000
vt 0.583333 0.818956
vt 0.500000 1.000000
vt 0.500000 0.818956
vt 0.458333 0.818956
vt 0.458333 1.000000
vt 0.416667 1.000000
vt 0.416667 0.818956
vt 0.333333 1.000000
vt 0.333333 0.818956
vt 0.250000 1.000000
vt 0.250000 0.818956
vt 0.208333 0.818956
vt 0.208333 1.000000
vt 0.166667 1.000000
vt 0.166667 0.818956
vt 0.583333 1.000000
vt 0.500000 1.000000
vt 0.083333 1.000000
vt 0.083333 0.818956
vt 0.000000 1.000000
vt 0.000000 0.818956
vt 0.750000 0.490000
vt 0.870000 0.457846
vt 0.913923 0.413923
vt 0.957846 0.370000
vt 0.990000 0.250000
vt 0.957846 0.130000
vt 0.935075 0.107229
vt 0.893464 0.065618
vt 0.870000 0.042154
vt 0.750000 0.010000
vt 0.630000 0.042154
vt 0.542154 0.130000
vt 0.510000 0.250000
vt 0.526077 0.310000
vt 0.542154 0.370000
vt 0.630000 0.457846
vt 0.083333 0.500000
vt 0.083333 0.608553
vt 0.000000 0.608553
vt 0.000000 0.500000
vt 0.166667 0.500000
vt 0.166667 0.608553
vt 0.208333 0.500000
vt 0.208333 0.608553
vt 0.333333 0.500000
vt 0.333333 0.608553
vt 0.250000 0.608553
vt 0.250000 0.500000
vt 0.416667 0.500000
vt 0.416667 0.608553
vt 0.500000 0.500000
vt 0.500000 0.608553
vt 0.500000 0.608553
vt 0.500000 0.500000
vt 0.583333 0.500000
vt 0.583333 0.608553
vt 0.605592 0.500000
vt 0.605592 0.608553
vt 0.666667 0.608553
vt 0.666667 0.500000
vt 0.666667 0.500000
vt 0.666667 0.608553
vt 0.833333 0.500000
vt 0.833333 0.608553
vt 0.750000 0.608553
vt 0.750000 0.500000
vt 0.875000 0.500000
vt 0.875000 0.608553
vt 0.916667 0.608553
vt 0.916667 0.500000
vt 0.916667 0.500000
vt 0.916667 0.608553
vt 0.370000 0.457846
vt 0.311622 0.473489
vt 0.250000 0.490000
vt 0.130000 0.457846
vt 0.042154 0.370000
vt 0.026077 0.310000
vt 0.010000 0.250000
vt 0.042154 0.130000
vt 0.130000 0.042154
vt 0.190000 0.026077
vt 0.250000 0.010000
vt 0.370000 0.042154
vt 0.393464 0.065618
vt 0.435075 0.107229
vt 0.457846 0.130000
vt 0.473923 0.190000
vt 0.490000 0.250000
vt 0.457846 0.370000
vt 0.413923 0.413923
vt 0.645066 1.000000
vt 0.666667 1.000000
vt 0.645066 1.000000
vt 0.750000 1.000000
vt 0.708333 1.000000
vt 0.083333 1.000000
vt 0.000000 1.000000
vt 1.000000 1.000000
vt 1.000000 1.000000
vt 0.957207 1.000000
vt 0.833333 1.000000
vt 0.166667 1.000000
vt 0.916667 1.000000
vt 0.875000 1.000000
vt 0.250000 1.000000
vt 0.208333 1.000000
vt 0.333333 1.000000
vt 0.416667 1.000000
vt 0.458333 1.000000
vt 0.870000 0.457846
vt 0.750000 0.490000
vt 0.750000 0.490000
vt 0.870000 0.457846
vt 0.000000 0.608553
vt 0.000000 0.500000
vt 0.957207 0.608553
vt 0.957207 0.608553
vt 1.000000 0.608553
vt 0.957207 0.608553
vt 0.916667 0.608553
vt 1.000000 0.608553
vt 0.916667 0.500000
vt 0.000000 0.608553
vt 0.000000 0.500000
vt 0.708333 0.608553
vt 0.708333 0.608553
vt 0.916667 0.608553
vt 0.000000 0.500000
vt 0.870000 0.457846
vt 0.957846 0.130000
vt 0.990000 0.250000
vt 0.990000 0.250000
vt 0.957846 0.130000
vt 0.750000 0.608553
vt 0.750000 0.500000
vt 0.750000 0.500000
vt 0.750000 0.608553
vt 0.750000 0.608553
vt 0.750000 0.500000
vt 0.666667 0.608553
vt 0.708333 0.608553
vt 0.666667 0.500000
vt 0.957846 0.130000
vt 0.990000 0.250000
vt 0.957846 0.130000
vt 0.666667 0.500000
vt 0.666667 0.608553
vt 0.708333 0.608553
vt 0.416667 0.500000
vt 0.416667 0.608553
vt 0.750000 0.608553
vt 0.750000 0.500000
vt 0.666667 0.608553
vt 0.416667 0.500000
vt 0.416667 0.608553
vt 0.750000 0.010000
vt 0.630000 0.042154
vt 0.458333 0.608553
vt 0.458333 0.608553
vt 0.630000 0.042154
vt 0.750000 0.010000
vt 0.630000 0.042154
vt 0.500000 0.608553
vt 0.500000 0.500000
vt 0.458333 0.608553
vt 1.000000 0.608553
vt 1.000000 0.608553
vt 0.500000 0.608553
vt 0.500000 0.500000
vt 0.416667 0.608553
vt 1.000000 0.818956
vt 0.605592 1.000000
vt 0.645066 0.500000
vt 0.645066 0.608553
vt 0.645066 0.818956
vn 0.2185 -0.1258 -0.9677
vn 0.6875 -0.1321 -0.7140
vn 0.9642 -0.1406 -0.2247
vn 0.9690 -0.1157 0.2183
vn 0.9953 -0.0499 0.0825
vn 0.2546 -0.0925 0.9626
vn -0.2575 -0.1048 0.9606
vn -0.7065 -0.1190 0.6976
vn -0.9903 -0.0417 0.1326
vn -0.9994 -0.0288 -0.0179
vn -0.1333 0.8571 -0.4976
vn -0.7472 -0.1343 -0.6509
vn -0.1715 -0.1398 -0.9752
vn -0.0475 -0.9982 -0.0360
vn -0.2588 0.0000 -0.9659
vn -0.7071 0.0000 -0.7071
vn -0.9659 0.0000 -0.2588
vn -0.9657 0.0000 0.2596
vn -0.7163 0.0000 0.6978
vn 0.9429 0.0334 0.3314
vn 0.2717 0.0000 0.9624
vn 0.7294 0.0000 0.6841
vn 0.1336 0.0000 0.9910
vn 0.9659 0.0000 -0.2589
vn 0.7071 0.0000 -0.7071
vn 0.9898 0.0000 0.1425
vn -0.0422 0.9990 -0.0113
vn -0.2875 0.8698 -0.4009
vn -0.1167 0.8846 -0.4516
vn -0.2847 0.9548 0.0851
vn -0.1333 0.8571 0.4976
vn -0.0041 0.9775 -0.2107
vn 0.2161 0.9548 -0.2040
vn -0.1480 0.9137 0.3785
vn 0.7544 0.6246 0.2021
vn 0.6345 0.7691 -0.0772
vn 0.3643 0.8571 -0.3643
vn 0.1333 0.8571 -0.4976
vn -0.1086 -0.9868 -0.1203
vn -0.9284 0.0000 -0.3715
vn 0.7776 0.6123 -0.1429
vn -0.1440 -0.9896 0.0065
vn 0.3140 0.9274 -0.2031
vn 0.6384 0.7534 -0.1573
vn 0.8896 0.0000 0.4567
vn -0.6241 0.0000 -0.7813
vn 0.3800 0.5944 0.7087
vn 0.4990 0.0000 0.8666
vn -0.0477 0.0000 -0.9989
vn 0.0832 -0.9793 -0.1844
vn 0.2172 -0.9695 0.1136
vn 0.0179 -0.9980 -0.0613
vn -0.2514 0.0000 -0.9679
vn 0.7709 0.0000 -0.6370
vn 0.1845 0.7234 0.6653
vn 0.0994 0.0000 0.9950
vn 0.4579 0.0000 -0.8890
vn -0.4319 -0.9000 0.0591
vn -0.5813 0.0000 0.8137
vn -0.2361 -0.9489 0.2095
vn 0.1554 0.8580 0.4896
vn -0.9799 0.0000 0.1993
vn 0.5582 0.7210 0.4106
vn 0.9986 0.0000 0.0525
vn -0.8799 0.0000 0.4751
vn -0.3899 0.0000 0.9209
vn -0.1168 -0.9899 -0.0800
vn -0.5185 0.8207 0.2401
vn 0.2184 -0.8873 0.4062
vn 0.8305 0.1443 -0.5380
vn -0.0575 -0.9918 0.1143
vn 0.3031 0.8114 0.4998
vn 0.1354 0.8270 -0.5457
vn 0.3600 0.9311 -0.0578
vn 0.2597 0.0000 -0.9657
vn 0.3073 0.0000 0.9516
vn 0.2485 0.7963 -0.5514
vn 0.2576 -0.1409 -0.9559
vn 0.6287 0.7773 -0.0251
vn 0.4965 0.8079 -0.3176
vn 0.4442 0.8187 -0.3639
vn -0.4364 0.8940 0.1013
vn 0.9411 -0.1299 0.3121
vn -0.7037 0.6909 -0.1657
vn 0.7203 -0.0859 0.6884
vn 0.2054 -0.0728 0.9760
vn -0.5409 0.7448 -0.3908
vn 0.4061 0.1504 0.9014
vn 0.6425 0.2137 0.7359
vn 0.9731 0.1392 0.1834
vn 0.2526 0.1259 -0.9593
vn -0.3358 0.1377 -0.9318
vn -0.6812 0.1268 -0.7210
vn -0.9752 0.1345 -0.1758
vn -0.9594 0.1103 0.2595
vn -0.7029 0.1074 0.7032
vn -0.3238 0.1221 0.9382
vn 0.2920 0.1179 0.9491
vn 0.8814 0.1426 0.4502
vn 0.9272 0.1273 0.3524
vn 0.9476 0.1237 -0.2944
vn 0.6811 0.1132 -0.7234
vn 0.3674 0.1098 -0.9235
vn -0.9325 0.1344 -0.3353
vn 0.6772 0.7356 -0.0166
vn -0.9601 0.0325 -0.2779
vn -0.2640 0.1316 0.9555
vn 0.6655 0.7458 0.0318
vn 0.4639 0.7012 0.5414
vn -0.2575 -0.1047 0.9606
vn 0.6848 0.0993 -0.7219
vn 0.0434 0.9781 0.2034
vn 0.6906 -0.1159 -0.7139
usemtl None
s off
f 111/1/1 82/2/1 4/3/1 100/4/1
f 130/5/2 127/6/2 6/7/2 101/8/2
f 101/8/3 6/7/3 8/9/3 102/10/3
f 112/11/4 85/12/4 10/13/4 103/14/4
f 113/15/5 92/16/5 12/17/5 104/18/5
f 104/18/6 12/17/6 14/19/6 105/20/6
f 125/21/7 120/22/7 16/23/7 106/24/7
f 106/24/8 16/23/8 18/25/8 107/26/8
f 107/26/9 18/25/9 20/27/9 108/28/9
f 119/29/10 116/30/10 22/31/10 109/32/10
f 14/19/11 12/17/11 42/33/11 43/34/11
f 109/32/12 22/31/12 24/35/12 110/36/12
f 110/36/13 24/35/13 2/37/13 99/38/13
f 1/39/14 3/40/14 126/41/14 5/42/14 7/43/14 9/44/14 97/45/14 91/46/14 11/47/14 13/48/14 15/49/14 17/50/14 19/51/14 115/52/14 21/53/14 23/54/14
f 23/55/15 36/56/15 25/57/15 1/58/15
f 21/59/16 35/60/16 36/56/16 23/55/16
f 115/61/17 117/62/17 35/60/17 21/59/17
f 17/63/18 33/64/18 34/65/18 19/66/18
f 15/67/19 32/68/19 33/64/19 17/63/19
f 13/69/20 31/70/20 73/71/20 72/72/20
f 11/73/21 30/74/21 31/70/21 13/69/21
f 91/75/22 93/76/22 30/74/22 11/73/22
f 29/77/23 9/78/23 58/79/23 61/80/23
f 5/81/24 27/82/24 28/83/24 7/84/24
f 126/85/25 128/86/25 27/82/25 5/81/25
f 26/87/26 3/88/26 50/89/26 51/90/26
f 37/91/27 80/92/27 38/93/27 48/94/27 47/95/27 118/96/27 46/97/27 45/98/27 44/99/27 122/100/27 43/101/27 42/102/27 94/103/27 96/104/27 41/105/27 87/106/27 40/107/27 39/108/27 129/109/27
f 95/110/28 10/13/28 41/111/28 96/112/28
f 85/12/29 8/9/29 40/113/29 87/114/29
f 2/37/30 24/35/30 48/115/30 38/116/30
f 82/2/31 2/117/31 38/118/31 80/119/31
f 8/9/32 6/7/32 39/120/32 40/113/32
f 24/35/33 22/31/33 47/121/33 48/115/33
f 127/6/34 4/3/34 37/122/34 129/123/34
f 116/30/35 20/27/35 46/124/35 118/125/35
f 20/27/36 18/25/36 45/126/36 46/124/36
f 18/25/37 16/23/37 44/127/37 45/126/37
f 120/22/38 14/19/38 43/34/38 122/128/38
f 50/129/39 49/130/39 53/131/39 54/132/39
f 1/58/40 25/57/40 52/133/40 49/134/40
f 81/135/41 26/87/41 51/90/41 83/136/41
f 3/40/42 1/39/42 49/130/42 50/129/42
f 56/137/43 84/138/43 55/139/43 57/140/43
f 83/136/44 51/90/44 55/139/44 84/138/44
f 51/90/45 50/89/45 54/141/45 55/139/45
f 49/134/46 52/133/46 56/142/46 53/143/46
f 86/144/47 29/77/47 61/80/47 88/145/47
f 55/139/48 54/141/48 57/146/48
f 53/143/49 56/142/49 57/147/49
f 54/132/50 53/131/50 57/148/50
f 58/149/51 59/150/51 65/151/51 64/152/51
f 9/44/52 7/43/52 59/150/52 58/149/52
f 7/84/53 28/83/53 60/153/53 59/154/53
f 65/155/54 62/156/54 66/157/54 69/158/54
f 88/145/55 61/80/55 63/159/55 89/160/55
f 61/80/56 58/79/56 64/161/56 63/159/56
f 59/154/57 60/153/57 62/156/57 65/155/57
f 68/162/58 69/163/58 70/164/58
f 63/159/59 64/161/59 68/165/59 67/166/59
f 64/152/60 65/151/60 69/163/60 68/162/60
f 89/160/61 63/159/61 67/166/61 90/167/61
f 32/68/62 15/67/62 71/168/62 74/169/62
f 66/157/63 90/167/63 67/166/63 70/170/63
f 69/158/64 66/157/64 70/171/64
f 67/166/65 68/165/65 70/172/65
f 74/169/66 71/168/66 77/173/66 76/174/66
f 15/49/67 13/48/67 72/175/67 71/176/67
f 121/177/68 32/68/68 74/169/68 123/178/68
f 77/179/69 78/180/69 79/181/69
f 72/72/70 73/71/70 75/182/70 78/183/70
f 71/176/71 72/175/71 78/180/71 77/179/71
f 123/178/72 74/169/72 76/174/72 124/184/72
f 25/185/73 81/135/73 83/136/73 52/186/73
f 75/182/74 124/184/74 76/174/74 79/187/74
f 78/183/75 75/182/75 79/188/75
f 76/174/76 77/173/76 79/189/76
f 52/186/77 83/136/77 84/138/77 56/137/77
f 4/3/31 82/2/31 80/119/31 37/122/31
f 99/190/78 2/117/78 82/2/78 111/1/78
f 62/156/79 89/160/79 90/167/79 66/157/79
f 60/153/80 88/145/80 89/160/80 62/156/80
f 28/83/81 86/144/81 88/145/81 60/153/81
f 10/13/82 85/12/82 87/114/82 41/111/82
f 102/10/83 8/9/83 85/12/83 112/11/83
f 12/17/84 92/16/84 94/191/84 42/33/84
f 97/192/22 98/193/22 93/76/22 91/75/22
f 114/194/85 95/110/85 92/16/85 113/15/85
f 103/14/86 10/13/86 95/110/86 114/194/86
f 9/78/22 29/77/22 98/193/22 97/192/22
f 92/16/87 95/110/87 96/112/87 94/191/87
f 29/77/88 103/14/88 114/194/88 98/193/88
f 98/193/89 114/194/89 113/15/89 93/76/89
f 28/83/90 102/10/90 112/11/90 86/144/90
f 25/185/91 99/190/91 111/1/91 81/135/91
f 36/56/92 110/36/92 99/38/92 25/57/92
f 35/60/93 109/32/93 110/36/93 36/56/93
f 117/62/94 119/29/94 109/32/94 35/60/94
f 33/64/95 107/26/95 108/28/95 34/65/95
f 32/68/96 106/24/96 107/26/96 33/64/96
f 121/177/97 125/21/97 106/24/97 32/68/97
f 30/74/98 104/18/98 105/20/98 31/70/98
f 93/76/99 113/15/99 104/18/99 30/74/99
f 86/144/100 112/11/100 103/14/100 29/77/100
f 27/82/101 101/8/101 102/10/101 28/83/101
f 128/86/102 130/5/102 101/8/102 27/82/102
f 81/135/103 111/1/103 100/4/103 26/87/103
f 34/65/104 108/28/104 119/29/104 117/62/104
f 22/31/105 116/30/105 118/125/105 47/121/105
f 19/66/17 34/65/17 117/62/17 115/61/17
f 108/28/106 20/27/106 116/30/106 119/29/106
f 31/70/107 105/20/107 125/21/107 121/177/107
f 73/71/108 123/178/108 124/184/108 75/182/108
f 31/70/109 121/177/109 123/178/109 73/71/109
f 16/23/38 120/22/38 122/128/38 44/127/38
f 105/20/110 14/19/110 120/22/110 125/21/110
f 26/87/111 100/4/111 130/5/111 128/86/111
f 6/7/112 127/6/112 129/123/112 39/120/112
f 3/88/25 26/87/25 128/86/25 126/85/25
f 100/4/113 4/3/113 127/6/113 130/5/113
