# MagicaVoxel @ Ephtracy

# group
o 

# material
mtllib samochod3.mtl
usemtl palette

# normals
vn -1 0 0
vn 1 0 0
vn 0 0 1
vn 0 0 -1
vn 0 -1 0
vn 0 1 0

# texcoords
vt 0.00195313 0.5
vt 0.416016 0.5
vt 0.423828 0.5
vt 0.498047 0.5
vt 0.615234 0.5
vt 0.982422 0.5
vt 0.986328 0.5

# verts
v 1.6 2.1 -0.1
v 1.6 2.1 -0.3
v 1.6 2.1 -0.8
v 1.6 2.1 -1
v 1.6 2.2 -0.1
v 1.6 2.2 -0.2
v 1.6 2.2 -0.3
v 1.6 2.2 -0.8
v 1.6 2.2 -0.9
v 1.6 2.2 -1
v 1.6 2.3 -0.1
v 1.6 2.3 -0.2
v 1.6 2.3 -0.9
v 1.6 2.3 -1
v 1.6 2.4 -0.1
v 1.6 2.4 -1
v 1.8 2.1 0
v 1.8 2.1 -0.1
v 1.8 2.1 -1
v 1.8 2.1 -1.1
v 1.8 2.2 0
v 1.8 2.2 -0.1
v 1.8 2.2 -1
v 1.8 2.2 -1.1
v 1.9 2 0
v 1.9 2 -0.1
v 1.9 2 -1
v 1.9 2 -1.1
v 1.9 2.1 0
v 1.9 2.1 -0.1
v 1.9 2.1 -1
v 1.9 2.1 -1.1
v 1.9 2.2 0
v 1.9 2.2 -0.1
v 1.9 2.2 -1
v 1.9 2.2 -1.1
v 1.9 2.3 0
v 1.9 2.3 -0.1
v 1.9 2.3 -1
v 1.9 2.3 -1.1
v 1.9 2.4 -0.1
v 1.9 2.4 -0.2
v 1.9 2.4 -0.9
v 1.9 2.4 -1
v 1.9 2.6 -0.2
v 1.9 2.6 -0.9
v 1.9 2.7 -0.1
v 1.9 2.7 -1
v 2.4 2.1 0
v 2.4 2.1 -0.1
v 2.4 2.1 -1
v 2.4 2.1 -1.1
v 2.4 2.2 0
v 2.4 2.2 -0.1
v 2.4 2.2 -1
v 2.4 2.2 -1.1
v 2.5 2 0
v 2.5 2 -0.1
v 2.5 2 -1
v 2.5 2 -1.1
v 2.5 2.1 0
v 2.5 2.1 -0.1
v 2.5 2.1 -1
v 2.5 2.1 -1.1
v 2.5 2.2 0
v 2.5 2.2 -0.1
v 2.5 2.2 -1
v 2.5 2.2 -1.1
v 2.5 2.3 0
v 2.5 2.3 -0.1
v 2.5 2.3 -1
v 2.5 2.3 -1.1
v 2 2 0
v 2 2 -0.1
v 2 2 -1
v 2 2 -1.1
v 2 2.1 0
v 2 2.1 -0.1
v 2 2.1 -1
v 2 2.1 -1.1
v 2 2.2 0
v 2 2.2 -0.1
v 2 2.2 -1
v 2 2.2 -1.1
v 2 2.3 0
v 2 2.3 -0.1
v 2 2.3 -1
v 2 2.3 -1.1
v 2.1 2.1 0
v 2.1 2.1 -0.1
v 2.1 2.1 -1
v 2.1 2.1 -1.1
v 2.1 2.2 0
v 2.1 2.2 -0.1
v 2.1 2.2 -1
v 2.1 2.2 -1.1
v 2.6 2 0
v 2.6 2 -0.1
v 2.6 2 -1
v 2.6 2 -1.1
v 2.6 2.1 0
v 2.6 2.1 -0.1
v 2.6 2.1 -1
v 2.6 2.1 -1.1
v 2.6 2.2 0
v 2.6 2.2 -0.1
v 2.6 2.2 -1
v 2.6 2.2 -1.1
v 2.6 2.3 0
v 2.6 2.3 -0.1
v 2.6 2.3 -1
v 2.6 2.3 -1.1
v 2.7 2.1 0
v 2.7 2.1 -0.1
v 2.7 2.1 -1
v 2.7 2.1 -1.1
v 2.7 2.2 0
v 2.7 2.2 -0.1
v 2.7 2.2 -1
v 2.7 2.2 -1.1
v 2.7 2.4 -0.1
v 2.7 2.4 -0.2
v 2.7 2.4 -0.9
v 2.7 2.4 -1
v 2.7 2.6 -0.2
v 2.7 2.6 -0.9
v 2.7 2.7 -0.1
v 2.7 2.7 -1
v 2.8 2.1 -0.1
v 2.8 2.1 -0.3
v 2.8 2.1 -0.8
v 2.8 2.1 -1
v 2.8 2.2 -0.2
v 2.8 2.2 -0.3
v 2.8 2.2 -0.8
v 2.8 2.2 -0.9
v 2.8 2.3 -0.2
v 2.8 2.3 -0.3
v 2.8 2.3 -0.8
v 2.8 2.3 -0.9
v 2.8 2.4 -0.1
v 2.8 2.4 -1
v 1.8 2.1 0
v 1.8 2.2 0
v 1.9 2 0
v 1.9 2.1 0
v 1.9 2.2 0
v 1.9 2.3 0
v 2 2 0
v 2 2.1 0
v 2 2.2 0
v 2 2.3 0
v 2.1 2.1 0
v 2.1 2.2 0
v 2.4 2.1 0
v 2.4 2.2 0
v 2.5 2 0
v 2.5 2.1 0
v 2.5 2.2 0
v 2.5 2.3 0
v 2.6 2 0
v 2.6 2.1 0
v 2.6 2.2 0
v 2.6 2.3 0
v 2.7 2.1 0
v 2.7 2.2 0
v 1.6 2.1 -0.1
v 1.6 2.2 -0.1
v 1.6 2.3 -0.1
v 1.6 2.4 -0.1
v 1.7 2.2 -0.1
v 1.7 2.3 -0.1
v 1.8 2.1 -0.1
v 1.8 2.2 -0.1
v 1.9 2.2 -0.1
v 1.9 2.3 -0.1
v 1.9 2.4 -0.1
v 1.9 2.7 -0.1
v 2 2.2 -0.1
v 2 2.3 -0.1
v 2 2.4 -0.1
v 2 2.6 -0.1
v 2.1 2.1 -0.1
v 2.1 2.2 -0.1
v 2.4 2.1 -0.1
v 2.4 2.2 -0.1
v 2.5 2.2 -0.1
v 2.5 2.3 -0.1
v 2.6 2.2 -0.1
v 2.6 2.3 -0.1
v 2.6 2.4 -0.1
v 2.6 2.6 -0.1
v 2.7 2.1 -0.1
v 2.7 2.2 -0.1
v 2.7 2.4 -0.1
v 2.7 2.7 -0.1
v 2.8 2.1 -0.1
v 2.8 2.4 -0.1
v 1.9 2 -1
v 1.9 2.1 -1
v 2 2 -1
v 2 2.1 -1
v 2.5 2 -1
v 2.5 2.1 -1
v 2.6 2 -1
v 2.6 2.1 -1
v 1.9 2 -0.1
v 1.9 2.1 -0.1
v 2 2 -0.1
v 2 2.1 -0.1
v 2.5 2 -0.1
v 2.5 2.1 -0.1
v 2.6 2 -0.1
v 2.6 2.1 -0.1
v 1.6 2.1 -1
v 1.6 2.2 -1
v 1.6 2.3 -1
v 1.6 2.4 -1
v 1.7 2.2 -1
v 1.7 2.3 -1
v 1.8 2.1 -1
v 1.8 2.2 -1
v 1.9 2.2 -1
v 1.9 2.3 -1
v 1.9 2.4 -1
v 1.9 2.7 -1
v 2 2.2 -1
v 2 2.3 -1
v 2 2.4 -1
v 2 2.6 -1
v 2.1 2.1 -1
v 2.1 2.2 -1
v 2.4 2.1 -1
v 2.4 2.2 -1
v 2.5 2.2 -1
v 2.5 2.3 -1
v 2.6 2.2 -1
v 2.6 2.3 -1
v 2.6 2.4 -1
v 2.6 2.6 -1
v 2.7 2.1 -1
v 2.7 2.2 -1
v 2.7 2.4 -1
v 2.7 2.7 -1
v 2.8 2.1 -1
v 2.8 2.4 -1
v 1.8 2.1 -1.1
v 1.8 2.2 -1.1
v 1.9 2 -1.1
v 1.9 2.1 -1.1
v 1.9 2.2 -1.1
v 1.9 2.3 -1.1
v 2 2 -1.1
v 2 2.1 -1.1
v 2 2.2 -1.1
v 2 2.3 -1.1
v 2.1 2.1 -1.1
v 2.1 2.2 -1.1
v 2.4 2.1 -1.1
v 2.4 2.2 -1.1
v 2.5 2 -1.1
v 2.5 2.1 -1.1
v 2.5 2.2 -1.1
v 2.5 2.3 -1.1
v 2.6 2 -1.1
v 2.6 2.1 -1.1
v 2.6 2.2 -1.1
v 2.6 2.3 -1.1
v 2.7 2.1 -1.1
v 2.7 2.2 -1.1
v 1.9 2 0
v 2 2 0
v 2.5 2 0
v 2.6 2 0
v 1.9 2 -0.1
v 2 2 -0.1
v 2.5 2 -0.1
v 2.6 2 -0.1
v 1.9 2 -1
v 2 2 -1
v 2.5 2 -1
v 2.6 2 -1
v 1.9 2 -1.1
v 2 2 -1.1
v 2.5 2 -1.1
v 2.6 2 -1.1
v 1.8 2.1 0
v 1.9 2.1 0
v 2 2.1 0
v 2.1 2.1 0
v 2.4 2.1 0
v 2.5 2.1 0
v 2.6 2.1 0
v 2.7 2.1 0
v 1.6 2.1 -0.1
v 1.8 2.1 -0.1
v 1.9 2.1 -0.1
v 2 2.1 -0.1
v 2.1 2.1 -0.1
v 2.4 2.1 -0.1
v 2.5 2.1 -0.1
v 2.6 2.1 -0.1
v 2.7 2.1 -0.1
v 2.8 2.1 -0.1
v 1.7 2.1 -0.2
v 1.8 2.1 -0.2
v 2.1 2.1 -0.2
v 2.4 2.1 -0.2
v 1.6 2.1 -0.3
v 1.7 2.1 -0.3
v 2.7 2.1 -0.3
v 2.8 2.1 -0.3
v 1.6 2.1 -0.8
v 1.7 2.1 -0.8
v 2.7 2.1 -0.8
v 2.8 2.1 -0.8
v 1.7 2.1 -0.9
v 1.8 2.1 -0.9
v 2.1 2.1 -0.9
v 2.4 2.1 -0.9
v 1.6 2.1 -1
v 1.8 2.1 -1
v 1.9 2.1 -1
v 2 2.1 -1
v 2.1 2.1 -1
v 2.4 2.1 -1
v 2.5 2.1 -1
v 2.6 2.1 -1
v 2.7 2.1 -1
v 2.8 2.1 -1
v 1.8 2.1 -1.1
v 1.9 2.1 -1.1
v 2 2.1 -1.1
v 2.1 2.1 -1.1
v 2.4 2.1 -1.1
v 2.5 2.1 -1.1
v 2.6 2.1 -1.1
v 2.7 2.1 -1.1
v 1.8 2.2 0
v 1.9 2.2 0
v 2 2.2 0
v 2.1 2.2 0
v 2.4 2.2 0
v 2.5 2.2 0
v 2.6 2.2 0
v 2.7 2.2 0
v 1.8 2.2 -0.1
v 1.9 2.2 -0.1
v 2 2.2 -0.1
v 2.1 2.2 -0.1
v 2.4 2.2 -0.1
v 2.5 2.2 -0.1
v 2.6 2.2 -0.1
v 2.7 2.2 -0.1
v 1.8 2.2 -1
v 1.9 2.2 -1
v 2 2.2 -1
v 2.1 2.2 -1
v 2.4 2.2 -1
v 2.5 2.2 -1
v 2.6 2.2 -1
v 2.7 2.2 -1
v 1.8 2.2 -1.1
v 1.9 2.2 -1.1
v 2 2.2 -1.1
v 2.1 2.2 -1.1
v 2.4 2.2 -1.1
v 2.5 2.2 -1.1
v 2.6 2.2 -1.1
v 2.7 2.2 -1.1
v 1.9 2.3 0
v 2 2.3 0
v 2.5 2.3 0
v 2.6 2.3 0
v 1.9 2.3 -0.1
v 2 2.3 -0.1
v 2.5 2.3 -0.1
v 2.6 2.3 -0.1
v 1.9 2.3 -1
v 2 2.3 -1
v 2.5 2.3 -1
v 2.6 2.3 -1
v 1.9 2.3 -1.1
v 2 2.3 -1.1
v 2.5 2.3 -1.1
v 2.6 2.3 -1.1
v 1.6 2.4 -0.1
v 1.9 2.4 -0.1
v 2.7 2.4 -0.1
v 2.8 2.4 -0.1
v 1.9 2.4 -0.2
v 2.7 2.4 -0.2
v 1.9 2.4 -0.9
v 2.7 2.4 -0.9
v 1.6 2.4 -1
v 1.9 2.4 -1
v 2.7 2.4 -1
v 2.8 2.4 -1
v 1.9 2.7 -0.1
v 2.7 2.7 -0.1
v 1.9 2.7 -1
v 2.7 2.7 -1

# faces
f 5/4/1 2/4/1 1/4/1
f 6/4/1 2/4/1 5/4/1
f 7/6/1 3/6/1 2/6/1
f 7/4/1 2/4/1 6/4/1
f 8/4/1 4/4/1 3/4/1
f 8/6/1 3/6/1 7/6/1
f 9/4/1 4/4/1 8/4/1
f 10/4/1 4/4/1 9/4/1
f 11/1/1 6/1/1 5/1/1
f 12/4/1 7/4/1 6/4/1
f 12/1/1 6/1/1 11/1/1
f 12/4/1 8/4/1 7/4/1
f 12/4/1 9/4/1 8/4/1
f 13/1/1 10/1/1 9/1/1
f 13/4/1 9/4/1 12/4/1
f 14/1/1 10/1/1 13/1/1
f 15/4/1 12/4/1 11/4/1
f 15/4/1 13/4/1 12/4/1
f 15/4/1 14/4/1 13/4/1
f 16/4/1 14/4/1 15/4/1
f 21/7/1 18/7/1 17/7/1
f 22/7/1 18/7/1 21/7/1
f 23/7/1 20/7/1 19/7/1
f 24/7/1 20/7/1 23/7/1
f 29/7/1 26/7/1 25/7/1
f 30/7/1 26/7/1 29/7/1
f 31/7/1 28/7/1 27/7/1
f 32/7/1 28/7/1 31/7/1
f 37/7/1 34/7/1 33/7/1
f 38/7/1 34/7/1 37/7/1
f 39/7/1 36/7/1 35/7/1
f 40/7/1 36/7/1 39/7/1
f 45/4/1 42/4/1 41/4/1
f 45/3/1 43/3/1 42/3/1
f 46/4/1 44/4/1 43/4/1
f 46/3/1 43/3/1 45/3/1
f 47/4/1 45/4/1 41/4/1
f 47/4/1 46/4/1 45/4/1
f 48/4/1 44/4/1 46/4/1
f 48/4/1 46/4/1 47/4/1
f 53/7/1 50/7/1 49/7/1
f 54/7/1 50/7/1 53/7/1
f 55/7/1 52/7/1 51/7/1
f 56/7/1 52/7/1 55/7/1
f 61/7/1 58/7/1 57/7/1
f 62/7/1 58/7/1 61/7/1
f 63/7/1 60/7/1 59/7/1
f 64/7/1 60/7/1 63/7/1
f 69/7/1 66/7/1 65/7/1
f 70/7/1 66/7/1 69/7/1
f 71/7/1 68/7/1 67/7/1
f 72/7/1 68/7/1 71/7/1
f 73/7/2 74/7/2 77/7/2
f 77/7/2 74/7/2 78/7/2
f 75/7/2 76/7/2 79/7/2
f 79/7/2 76/7/2 80/7/2
f 81/7/2 82/7/2 85/7/2
f 85/7/2 82/7/2 86/7/2
f 83/7/2 84/7/2 87/7/2
f 87/7/2 84/7/2 88/7/2
f 89/7/2 90/7/2 93/7/2
f 93/7/2 90/7/2 94/7/2
f 91/7/2 92/7/2 95/7/2
f 95/7/2 92/7/2 96/7/2
f 97/7/2 98/7/2 101/7/2
f 101/7/2 98/7/2 102/7/2
f 99/7/2 100/7/2 103/7/2
f 103/7/2 100/7/2 104/7/2
f 105/7/2 106/7/2 109/7/2
f 109/7/2 106/7/2 110/7/2
f 107/7/2 108/7/2 111/7/2
f 111/7/2 108/7/2 112/7/2
f 113/7/2 114/7/2 117/7/2
f 117/7/2 114/7/2 118/7/2
f 115/7/2 116/7/2 119/7/2
f 119/7/2 116/7/2 120/7/2
f 121/4/2 122/4/2 125/4/2
f 122/3/2 123/3/2 125/3/2
f 123/4/2 124/4/2 126/4/2
f 125/3/2 123/3/2 126/3/2
f 121/4/2 125/4/2 127/4/2
f 125/4/2 126/4/2 127/4/2
f 126/4/2 124/4/2 128/4/2
f 127/4/2 126/4/2 128/4/2
f 129/4/2 130/4/2 133/4/2
f 130/6/2 131/6/2 134/6/2
f 133/4/2 130/4/2 134/4/2
f 131/4/2 132/4/2 135/4/2
f 134/6/2 131/6/2 135/6/2
f 135/4/2 132/4/2 136/4/2
f 133/1/2 134/1/2 137/1/2
f 129/4/2 133/4/2 137/4/2
f 134/4/2 135/4/2 138/4/2
f 137/1/2 134/1/2 138/1/2
f 135/1/2 136/1/2 139/1/2
f 138/4/2 135/4/2 139/4/2
f 136/4/2 132/4/2 140/4/2
f 139/1/2 136/1/2 140/1/2
f 138/4/2 139/4/2 141/4/2
f 137/4/2 138/4/2 141/4/2
f 139/4/2 140/4/2 141/4/2
f 129/4/2 137/4/2 141/4/2
f 140/4/2 132/4/2 142/4/2
f 141/4/2 140/4/2 142/4/2
f 146/7/3 144/7/3 143/7/3
f 147/7/3 144/7/3 146/7/3
f 149/7/3 146/7/3 145/7/3
f 149/7/3 148/7/3 147/7/3
f 149/7/3 147/7/3 146/7/3
f 150/7/3 148/7/3 149/7/3
f 151/7/3 148/7/3 150/7/3
f 152/7/3 148/7/3 151/7/3
f 153/7/3 151/7/3 150/7/3
f 154/7/3 151/7/3 153/7/3
f 158/7/3 156/7/3 155/7/3
f 159/7/3 156/7/3 158/7/3
f 161/7/3 159/7/3 158/7/3
f 161/7/3 160/7/3 159/7/3
f 161/7/3 158/7/3 157/7/3
f 162/7/3 160/7/3 161/7/3
f 163/7/3 160/7/3 162/7/3
f 164/7/3 160/7/3 163/7/3
f 165/7/3 163/7/3 162/7/3
f 166/7/3 163/7/3 165/7/3
f 171/4/3 168/4/3 167/4/3
f 171/1/3 169/1/3 168/1/3
f 172/4/3 170/4/3 169/4/3
f 172/1/3 169/1/3 171/1/3
f 173/4/3 171/4/3 167/4/3
f 173/4/3 172/4/3 171/4/3
f 174/4/3 172/4/3 173/4/3
f 175/4/3 172/4/3 174/4/3
f 176/4/3 170/4/3 172/4/3
f 176/4/3 172/4/3 175/4/3
f 177/4/3 170/4/3 176/4/3
f 180/4/3 178/4/3 177/4/3
f 180/4/3 177/4/3 176/4/3
f 181/4/3 178/4/3 180/4/3
f 182/4/3 178/4/3 181/4/3
f 184/4/3 180/4/3 179/4/3
f 184/4/3 181/4/3 180/4/3
f 185/4/3 184/4/3 183/4/3
f 186/4/3 181/4/3 184/4/3
f 186/4/3 184/4/3 185/4/3
f 187/4/3 181/4/3 186/4/3
f 188/4/3 181/4/3 187/4/3
f 190/4/3 181/4/3 188/4/3
f 191/3/3 182/3/3 181/3/3
f 191/4/3 181/4/3 190/4/3
f 192/4/3 178/4/3 182/4/3
f 192/3/3 182/3/3 191/3/3
f 194/4/3 191/4/3 190/4/3
f 194/4/3 190/4/3 189/4/3
f 194/4/3 192/4/3 191/4/3
f 195/4/3 192/4/3 194/4/3
f 196/4/3 178/4/3 192/4/3
f 196/4/3 192/4/3 195/4/3
f 197/4/3 195/4/3 194/4/3
f 197/4/3 194/4/3 193/4/3
f 198/4/3 195/4/3 197/4/3
f 201/7/3 200/7/3 199/7/3
f 202/7/3 200/7/3 201/7/3
f 205/7/3 204/7/3 203/7/3
f 206/7/3 204/7/3 205/7/3
f 207/7/4 208/7/4 209/7/4
f 209/7/4 208/7/4 210/7/4
f 211/7/4 212/7/4 213/7/4
f 213/7/4 212/7/4 214/7/4
f 215/4/4 216/4/4 219/4/4
f 216/1/4 217/1/4 219/1/4
f 217/4/4 218/4/4 220/4/4
f 219/1/4 217/1/4 220/1/4
f 215/4/4 219/4/4 221/4/4
f 219/4/4 220/4/4 221/4/4
f 221/4/4 220/4/4 222/4/4
f 222/4/4 220/4/4 223/4/4
f 220/4/4 218/4/4 224/4/4
f 223/4/4 220/4/4 224/4/4
f 224/4/4 218/4/4 225/4/4
f 225/4/4 226/4/4 228/4/4
f 224/4/4 225/4/4 228/4/4
f 228/4/4 226/4/4 229/4/4
f 229/4/4 226/4/4 230/4/4
f 227/4/4 228/4/4 232/4/4
f 228/4/4 229/4/4 232/4/4
f 231/4/4 232/4/4 233/4/4
f 232/4/4 229/4/4 234/4/4
f 233/4/4 232/4/4 234/4/4
f 234/4/4 229/4/4 235/4/4
f 235/4/4 229/4/4 236/4/4
f 236/4/4 229/4/4 238/4/4
f 229/3/4 230/3/4 239/3/4
f 238/4/4 229/4/4 239/4/4
f 230/4/4 226/4/4 240/4/4
f 239/3/4 230/3/4 240/3/4
f 238/4/4 239/4/4 242/4/4
f 237/4/4 238/4/4 242/4/4
f 239/4/4 240/4/4 242/4/4
f 242/4/4 240/4/4 243/4/4
f 240/4/4 226/4/4 244/4/4
f 243/4/4 240/4/4 244/4/4
f 242/4/4 243/4/4 245/4/4
f 241/4/4 242/4/4 245/4/4
f 245/4/4 243/4/4 246/4/4
f 247/7/4 248/7/4 250/7/4
f 250/7/4 248/7/4 251/7/4
f 249/7/4 250/7/4 253/7/4
f 251/7/4 252/7/4 253/7/4
f 250/7/4 251/7/4 253/7/4
f 253/7/4 252/7/4 254/7/4
f 254/7/4 252/7/4 255/7/4
f 255/7/4 252/7/4 256/7/4
f 254/7/4 255/7/4 257/7/4
f 257/7/4 255/7/4 258/7/4
f 259/7/4 260/7/4 262/7/4
f 262/7/4 260/7/4 263/7/4
f 262/7/4 263/7/4 265/7/4
f 263/7/4 264/7/4 265/7/4
f 261/7/4 262/7/4 265/7/4
f 265/7/4 264/7/4 266/7/4
f 266/7/4 264/7/4 267/7/4
f 267/7/4 264/7/4 268/7/4
f 266/7/4 267/7/4 269/7/4
f 269/7/4 267/7/4 270/7/4
f 275/7/5 272/7/5 271/7/5
f 276/7/5 272/7/5 275/7/5
f 277/7/5 274/7/5 273/7/5
f 278/7/5 274/7/5 277/7/5
f 283/7/5 280/7/5 279/7/5
f 284/7/5 280/7/5 283/7/5
f 285/7/5 282/7/5 281/7/5
f 286/7/5 282/7/5 285/7/5
f 296/7/5 288/7/5 287/7/5
f 297/7/5 288/7/5 296/7/5
f 298/7/5 290/7/5 289/7/5
f 299/7/5 290/7/5 298/7/5
f 300/7/5 292/7/5 291/7/5
f 301/7/5 292/7/5 300/7/5
f 302/7/5 294/7/5 293/7/5
f 303/7/5 294/7/5 302/7/5
f 305/4/5 296/4/5 295/4/5
f 306/2/5 297/2/5 296/2/5
f 306/4/5 296/4/5 305/4/5
f 306/2/5 299/2/5 298/2/5
f 306/2/5 298/2/5 297/2/5
f 307/4/5 300/4/5 299/4/5
f 307/2/5 299/2/5 306/2/5
f 308/2/5 301/2/5 300/2/5
f 308/4/5 300/4/5 307/4/5
f 308/2/5 303/2/5 302/2/5
f 308/2/5 302/2/5 301/2/5
f 309/4/5 305/4/5 295/4/5
f 310/2/5 307/2/5 306/2/5
f 310/4/5 305/4/5 309/4/5
f 310/2/5 306/2/5 305/2/5
f 310/2/5 308/2/5 307/2/5
f 311/2/5 303/2/5 308/2/5
f 311/2/5 308/2/5 310/2/5
f 311/4/5 304/4/5 303/4/5
f 312/4/5 304/4/5 311/4/5
f 313/6/5 310/6/5 309/6/5
f 314/2/5 311/2/5 310/2/5
f 314/6/5 310/6/5 313/6/5
f 315/6/5 312/6/5 311/6/5
f 315/2/5 311/2/5 314/2/5
f 316/6/5 312/6/5 315/6/5
f 317/4/5 314/4/5 313/4/5
f 317/2/5 315/2/5 314/2/5
f 318/2/5 315/2/5 317/2/5
f 319/2/5 315/2/5 318/2/5
f 320/2/5 315/2/5 319/2/5
f 321/4/5 317/4/5 313/4/5
f 321/4/5 318/4/5 317/4/5
f 322/2/5 319/2/5 318/2/5
f 322/4/5 318/4/5 321/4/5
f 323/2/5 319/2/5 322/2/5
f 324/2/5 319/2/5 323/2/5
f 325/4/5 320/4/5 319/4/5
f 325/2/5 319/2/5 324/2/5
f 326/2/5 315/2/5 320/2/5
f 326/4/5 320/4/5 325/4/5
f 327/2/5 315/2/5 326/2/5
f 328/2/5 315/2/5 327/2/5
f 329/4/5 316/4/5 315/4/5
f 329/2/5 315/2/5 328/2/5
f 330/4/5 316/4/5 329/4/5
f 331/7/5 323/7/5 322/7/5
f 332/7/5 323/7/5 331/7/5
f 333/7/5 325/7/5 324/7/5
f 334/7/5 325/7/5 333/7/5
f 335/7/5 327/7/5 326/7/5
f 336/7/5 327/7/5 335/7/5
f 337/7/5 329/7/5 328/7/5
f 338/7/5 329/7/5 337/7/5
f 339/7/6 340/7/6 347/7/6
f 347/7/6 340/7/6 348/7/6
f 341/7/6 342/7/6 349/7/6
f 349/7/6 342/7/6 350/7/6
f 343/7/6 344/7/6 351/7/6
f 351/7/6 344/7/6 352/7/6
f 345/7/6 346/7/6 353/7/6
f 353/7/6 346/7/6 354/7/6
f 355/7/6 356/7/6 363/7/6
f 363/7/6 356/7/6 364/7/6
f 357/7/6 358/7/6 365/7/6
f 365/7/6 358/7/6 366/7/6
f 359/7/6 360/7/6 367/7/6
f 367/7/6 360/7/6 368/7/6
f 361/7/6 362/7/6 369/7/6
f 369/7/6 362/7/6 370/7/6
f 371/7/6 372/7/6 375/7/6
f 375/7/6 372/7/6 376/7/6
f 373/7/6 374/7/6 377/7/6
f 377/7/6 374/7/6 378/7/6
f 379/7/6 380/7/6 383/7/6
f 383/7/6 380/7/6 384/7/6
f 381/7/6 382/7/6 385/7/6
f 385/7/6 382/7/6 386/7/6
f 387/4/6 388/4/6 391/4/6
f 389/4/6 390/4/6 392/4/6
f 387/4/6 391/4/6 393/4/6
f 392/4/6 390/4/6 394/4/6
f 387/4/6 393/4/6 395/4/6
f 395/4/6 393/4/6 396/4/6
f 394/4/6 390/4/6 397/4/6
f 397/4/6 390/4/6 398/4/6
f 399/4/6 400/4/6 401/4/6
f 401/4/6 400/4/6 402/4/6
