# MagicaVoxel @ Ephtracy

# group
o 

# material
mtllib samochod1.mtl
usemtl palette

# normals
vn -1 0 0
vn 1 0 0
vn 0 0 1
vn 0 0 -1
vn 0 -1 0
vn 0 1 0

# texcoords
vt 0.00195313 0.5
vt 0.423828 0.5
vt 0.615234 0.5
vt 0.982422 0.5
vt 0.986328 0.5

# verts
v 1.6 2.1 -0.1
v 1.6 2.1 -0.3
v 1.6 2.1 -0.8
v 1.6 2.1 -1
v 1.6 2.2 -0.1
v 1.6 2.2 -0.2
v 1.6 2.2 -0.3
v 1.6 2.2 -0.8
v 1.6 2.2 -0.9
v 1.6 2.2 -1
v 1.6 2.3 -0.1
v 1.6 2.3 -0.2
v 1.6 2.3 -0.9
v 1.6 2.3 -1
v 1.6 2.4 -0.1
v 1.6 2.4 -1
v 1.8 2.1 0
v 1.8 2.1 -0.1
v 1.8 2.1 -1
v 1.8 2.1 -1.1
v 1.8 2.2 0
v 1.8 2.2 -0.1
v 1.8 2.2 -1
v 1.8 2.2 -1.1
v 1.9 2 0
v 1.9 2 -0.1
v 1.9 2 -1
v 1.9 2 -1.1
v 1.9 2.1 0
v 1.9 2.1 -0.1
v 1.9 2.1 -1
v 1.9 2.1 -1.1
v 1.9 2.2 0
v 1.9 2.2 -0.1
v 1.9 2.2 -1
v 1.9 2.2 -1.1
v 1.9 2.3 0
v 1.9 2.3 -0.1
v 1.9 2.3 -1
v 1.9 2.3 -1.1
v 1.9 2.4 -0.1
v 1.9 2.4 -0.2
v 1.9 2.4 -0.9
v 1.9 2.4 -1
v 1.9 2.6 -0.2
v 1.9 2.6 -0.9
v 1.9 2.7 -0.1
v 1.9 2.7 -1
v 2.4 2.1 0
v 2.4 2.1 -0.1
v 2.4 2.1 -1
v 2.4 2.1 -1.1
v 2.4 2.2 0
v 2.4 2.2 -0.1
v 2.4 2.2 -1
v 2.4 2.2 -1.1
v 2.5 2 0
v 2.5 2 -0.1
v 2.5 2 -1
v 2.5 2 -1.1
v 2.5 2.1 0
v 2.5 2.1 -0.1
v 2.5 2.1 -1
v 2.5 2.1 -1.1
v 2.5 2.2 0
v 2.5 2.2 -0.1
v 2.5 2.2 -1
v 2.5 2.2 -1.1
v 2.5 2.3 0
v 2.5 2.3 -0.1
v 2.5 2.3 -1
v 2.5 2.3 -1.1
v 2 2 0
v 2 2 -0.1
v 2 2 -1
v 2 2 -1.1
v 2 2.1 0
v 2 2.1 -0.1
v 2 2.1 -1
v 2 2.1 -1.1
v 2 2.2 0
v 2 2.2 -0.1
v 2 2.2 -1
v 2 2.2 -1.1
v 2 2.3 0
v 2 2.3 -0.1
v 2 2.3 -1
v 2 2.3 -1.1
v 2.1 2.1 0
v 2.1 2.1 -0.1
v 2.1 2.1 -1
v 2.1 2.1 -1.1
v 2.1 2.2 0
v 2.1 2.2 -0.1
v 2.1 2.2 -1
v 2.1 2.2 -1.1
v 2.6 2 0
v 2.6 2 -0.1
v 2.6 2 -1
v 2.6 2 -1.1
v 2.6 2.1 0
v 2.6 2.1 -0.1
v 2.6 2.1 -1
v 2.6 2.1 -1.1
v 2.6 2.2 0
v 2.6 2.2 -0.1
v 2.6 2.2 -1
v 2.6 2.2 -1.1
v 2.6 2.3 0
v 2.6 2.3 -0.1
v 2.6 2.3 -1
v 2.6 2.3 -1.1
v 2.7 2.1 0
v 2.7 2.1 -0.1
v 2.7 2.1 -1
v 2.7 2.1 -1.1
v 2.7 2.2 0
v 2.7 2.2 -0.1
v 2.7 2.2 -1
v 2.7 2.2 -1.1
v 2.7 2.4 -0.1
v 2.7 2.4 -0.2
v 2.7 2.4 -0.9
v 2.7 2.4 -1
v 2.7 2.6 -0.2
v 2.7 2.6 -0.9
v 2.7 2.7 -0.1
v 2.7 2.7 -1
v 2.8 2.1 -0.1
v 2.8 2.1 -0.3
v 2.8 2.1 -0.8
v 2.8 2.1 -1
v 2.8 2.2 -0.2
v 2.8 2.2 -0.3
v 2.8 2.2 -0.8
v 2.8 2.2 -0.9
v 2.8 2.3 -0.2
v 2.8 2.3 -0.3
v 2.8 2.3 -0.8
v 2.8 2.3 -0.9
v 2.8 2.4 -0.1
v 2.8 2.4 -1
v 1.8 2.1 0
v 1.8 2.2 0
v 1.9 2 0
v 1.9 2.1 0
v 1.9 2.2 0
v 1.9 2.3 0
v 2 2 0
v 2 2.1 0
v 2 2.2 0
v 2 2.3 0
v 2.1 2.1 0
v 2.1 2.2 0
v 2.4 2.1 0
v 2.4 2.2 0
v 2.5 2 0
v 2.5 2.1 0
v 2.5 2.2 0
v 2.5 2.3 0
v 2.6 2 0
v 2.6 2.1 0
v 2.6 2.2 0
v 2.6 2.3 0
v 2.7 2.1 0
v 2.7 2.2 0
v 1.6 2.1 -0.1
v 1.6 2.2 -0.1
v 1.6 2.3 -0.1
v 1.6 2.4 -0.1
v 1.7 2.2 -0.1
v 1.7 2.3 -0.1
v 1.8 2.1 -0.1
v 1.8 2.2 -0.1
v 1.9 2.2 -0.1
v 1.9 2.3 -0.1
v 1.9 2.4 -0.1
v 1.9 2.7 -0.1
v 2 2.2 -0.1
v 2 2.3 -0.1
v 2 2.4 -0.1
v 2 2.6 -0.1
v 2.1 2.1 -0.1
v 2.1 2.2 -0.1
v 2.4 2.1 -0.1
v 2.4 2.2 -0.1
v 2.5 2.2 -0.1
v 2.5 2.3 -0.1
v 2.6 2.2 -0.1
v 2.6 2.3 -0.1
v 2.6 2.4 -0.1
v 2.6 2.6 -0.1
v 2.7 2.1 -0.1
v 2.7 2.2 -0.1
v 2.7 2.4 -0.1
v 2.7 2.7 -0.1
v 2.8 2.1 -0.1
v 2.8 2.4 -0.1
v 1.9 2 -1
v 1.9 2.1 -1
v 2 2 -1
v 2 2.1 -1
v 2.5 2 -1
v 2.5 2.1 -1
v 2.6 2 -1
v 2.6 2.1 -1
v 1.9 2 -0.1
v 1.9 2.1 -0.1
v 2 2 -0.1
v 2 2.1 -0.1
v 2.5 2 -0.1
v 2.5 2.1 -0.1
v 2.6 2 -0.1
v 2.6 2.1 -0.1
v 1.6 2.1 -1
v 1.6 2.2 -1
v 1.6 2.3 -1
v 1.6 2.4 -1
v 1.7 2.2 -1
v 1.7 2.3 -1
v 1.8 2.1 -1
v 1.8 2.2 -1
v 1.9 2.2 -1
v 1.9 2.3 -1
v 1.9 2.4 -1
v 1.9 2.7 -1
v 2 2.2 -1
v 2 2.3 -1
v 2 2.4 -1
v 2 2.6 -1
v 2.1 2.1 -1
v 2.1 2.2 -1
v 2.4 2.1 -1
v 2.4 2.2 -1
v 2.5 2.2 -1
v 2.5 2.3 -1
v 2.6 2.2 -1
v 2.6 2.3 -1
v 2.6 2.4 -1
v 2.6 2.6 -1
v 2.7 2.1 -1
v 2.7 2.2 -1
v 2.7 2.4 -1
v 2.7 2.7 -1
v 2.8 2.1 -1
v 2.8 2.4 -1
v 1.8 2.1 -1.1
v 1.8 2.2 -1.1
v 1.9 2 -1.1
v 1.9 2.1 -1.1
v 1.9 2.2 -1.1
v 1.9 2.3 -1.1
v 2 2 -1.1
v 2 2.1 -1.1
v 2 2.2 -1.1
v 2 2.3 -1.1
v 2.1 2.1 -1.1
v 2.1 2.2 -1.1
v 2.4 2.1 -1.1
v 2.4 2.2 -1.1
v 2.5 2 -1.1
v 2.5 2.1 -1.1
v 2.5 2.2 -1.1
v 2.5 2.3 -1.1
v 2.6 2 -1.1
v 2.6 2.1 -1.1
v 2.6 2.2 -1.1
v 2.6 2.3 -1.1
v 2.7 2.1 -1.1
v 2.7 2.2 -1.1
v 1.9 2 0
v 2 2 0
v 2.5 2 0
v 2.6 2 0
v 1.9 2 -0.1
v 2 2 -0.1
v 2.5 2 -0.1
v 2.6 2 -0.1
v 1.9 2 -1
v 2 2 -1
v 2.5 2 -1
v 2.6 2 -1
v 1.9 2 -1.1
v 2 2 -1.1
v 2.5 2 -1.1
v 2.6 2 -1.1
v 1.8 2.1 0
v 1.9 2.1 0
v 2 2.1 0
v 2.1 2.1 0
v 2.4 2.1 0
v 2.5 2.1 0
v 2.6 2.1 0
v 2.7 2.1 0
v 1.6 2.1 -0.1
v 1.8 2.1 -0.1
v 1.9 2.1 -0.1
v 2 2.1 -0.1
v 2.1 2.1 -0.1
v 2.4 2.1 -0.1
v 2.5 2.1 -0.1
v 2.6 2.1 -0.1
v 2.7 2.1 -0.1
v 2.8 2.1 -0.1
v 1.6 2.1 -0.3
v 1.7 2.1 -0.3
v 2.7 2.1 -0.3
v 2.8 2.1 -0.3
v 1.6 2.1 -0.8
v 1.7 2.1 -0.8
v 2.7 2.1 -0.8
v 2.8 2.1 -0.8
v 1.6 2.1 -1
v 1.8 2.1 -1
v 1.9 2.1 -1
v 2 2.1 -1
v 2.1 2.1 -1
v 2.4 2.1 -1
v 2.5 2.1 -1
v 2.6 2.1 -1
v 2.7 2.1 -1
v 2.8 2.1 -1
v 1.8 2.1 -1.1
v 1.9 2.1 -1.1
v 2 2.1 -1.1
v 2.1 2.1 -1.1
v 2.4 2.1 -1.1
v 2.5 2.1 -1.1
v 2.6 2.1 -1.1
v 2.7 2.1 -1.1
v 1.8 2.2 0
v 1.9 2.2 0
v 2 2.2 0
v 2.1 2.2 0
v 2.4 2.2 0
v 2.5 2.2 0
v 2.6 2.2 0
v 2.7 2.2 0
v 1.8 2.2 -0.1
v 1.9 2.2 -0.1
v 2 2.2 -0.1
v 2.1 2.2 -0.1
v 2.4 2.2 -0.1
v 2.5 2.2 -0.1
v 2.6 2.2 -0.1
v 2.7 2.2 -0.1
v 1.8 2.2 -1
v 1.9 2.2 -1
v 2 2.2 -1
v 2.1 2.2 -1
v 2.4 2.2 -1
v 2.5 2.2 -1
v 2.6 2.2 -1
v 2.7 2.2 -1
v 1.8 2.2 -1.1
v 1.9 2.2 -1.1
v 2 2.2 -1.1
v 2.1 2.2 -1.1
v 2.4 2.2 -1.1
v 2.5 2.2 -1.1
v 2.6 2.2 -1.1
v 2.7 2.2 -1.1
v 1.9 2.3 0
v 2 2.3 0
v 2.5 2.3 0
v 2.6 2.3 0
v 1.9 2.3 -0.1
v 2 2.3 -0.1
v 2.5 2.3 -0.1
v 2.6 2.3 -0.1
v 1.9 2.3 -1
v 2 2.3 -1
v 2.5 2.3 -1
v 2.6 2.3 -1
v 1.9 2.3 -1.1
v 2 2.3 -1.1
v 2.5 2.3 -1.1
v 2.6 2.3 -1.1
v 1.6 2.4 -0.1
v 1.9 2.4 -0.1
v 2.7 2.4 -0.1
v 2.8 2.4 -0.1
v 1.9 2.4 -0.2
v 2.7 2.4 -0.2
v 1.9 2.4 -0.9
v 2.7 2.4 -0.9
v 1.6 2.4 -1
v 1.9 2.4 -1
v 2.7 2.4 -1
v 2.8 2.4 -1
v 1.9 2.7 -0.1
v 2.7 2.7 -0.1
v 1.9 2.7 -1
v 2.7 2.7 -1

# faces
f 5/3/1 2/3/1 1/3/1
f 6/3/1 2/3/1 5/3/1
f 7/4/1 3/4/1 2/4/1
f 7/3/1 2/3/1 6/3/1
f 8/3/1 4/3/1 3/3/1
f 8/4/1 3/4/1 7/4/1
f 9/3/1 4/3/1 8/3/1
f 10/3/1 4/3/1 9/3/1
f 11/1/1 6/1/1 5/1/1
f 12/3/1 7/3/1 6/3/1
f 12/1/1 6/1/1 11/1/1
f 12/3/1 8/3/1 7/3/1
f 12/3/1 9/3/1 8/3/1
f 13/1/1 10/1/1 9/1/1
f 13/3/1 9/3/1 12/3/1
f 14/1/1 10/1/1 13/1/1
f 15/3/1 12/3/1 11/3/1
f 15/3/1 13/3/1 12/3/1
f 15/3/1 14/3/1 13/3/1
f 16/3/1 14/3/1 15/3/1
f 21/5/1 18/5/1 17/5/1
f 22/5/1 18/5/1 21/5/1
f 23/5/1 20/5/1 19/5/1
f 24/5/1 20/5/1 23/5/1
f 29/5/1 26/5/1 25/5/1
f 30/5/1 26/5/1 29/5/1
f 31/5/1 28/5/1 27/5/1
f 32/5/1 28/5/1 31/5/1
f 37/5/1 34/5/1 33/5/1
f 38/5/1 34/5/1 37/5/1
f 39/5/1 36/5/1 35/5/1
f 40/5/1 36/5/1 39/5/1
f 45/3/1 42/3/1 41/3/1
f 45/2/1 43/2/1 42/2/1
f 46/3/1 44/3/1 43/3/1
f 46/2/1 43/2/1 45/2/1
f 47/3/1 45/3/1 41/3/1
f 47/3/1 46/3/1 45/3/1
f 48/3/1 44/3/1 46/3/1
f 48/3/1 46/3/1 47/3/1
f 53/5/1 50/5/1 49/5/1
f 54/5/1 50/5/1 53/5/1
f 55/5/1 52/5/1 51/5/1
f 56/5/1 52/5/1 55/5/1
f 61/5/1 58/5/1 57/5/1
f 62/5/1 58/5/1 61/5/1
f 63/5/1 60/5/1 59/5/1
f 64/5/1 60/5/1 63/5/1
f 69/5/1 66/5/1 65/5/1
f 70/5/1 66/5/1 69/5/1
f 71/5/1 68/5/1 67/5/1
f 72/5/1 68/5/1 71/5/1
f 73/5/2 74/5/2 77/5/2
f 77/5/2 74/5/2 78/5/2
f 75/5/2 76/5/2 79/5/2
f 79/5/2 76/5/2 80/5/2
f 81/5/2 82/5/2 85/5/2
f 85/5/2 82/5/2 86/5/2
f 83/5/2 84/5/2 87/5/2
f 87/5/2 84/5/2 88/5/2
f 89/5/2 90/5/2 93/5/2
f 93/5/2 90/5/2 94/5/2
f 91/5/2 92/5/2 95/5/2
f 95/5/2 92/5/2 96/5/2
f 97/5/2 98/5/2 101/5/2
f 101/5/2 98/5/2 102/5/2
f 99/5/2 100/5/2 103/5/2
f 103/5/2 100/5/2 104/5/2
f 105/5/2 106/5/2 109/5/2
f 109/5/2 106/5/2 110/5/2
f 107/5/2 108/5/2 111/5/2
f 111/5/2 108/5/2 112/5/2
f 113/5/2 114/5/2 117/5/2
f 117/5/2 114/5/2 118/5/2
f 115/5/2 116/5/2 119/5/2
f 119/5/2 116/5/2 120/5/2
f 121/3/2 122/3/2 125/3/2
f 122/2/2 123/2/2 125/2/2
f 123/3/2 124/3/2 126/3/2
f 125/2/2 123/2/2 126/2/2
f 121/3/2 125/3/2 127/3/2
f 125/3/2 126/3/2 127/3/2
f 126/3/2 124/3/2 128/3/2
f 127/3/2 126/3/2 128/3/2
f 129/3/2 130/3/2 133/3/2
f 130/4/2 131/4/2 134/4/2
f 133/3/2 130/3/2 134/3/2
f 131/3/2 132/3/2 135/3/2
f 134/4/2 131/4/2 135/4/2
f 135/3/2 132/3/2 136/3/2
f 133/1/2 134/1/2 137/1/2
f 129/3/2 133/3/2 137/3/2
f 134/3/2 135/3/2 138/3/2
f 137/1/2 134/1/2 138/1/2
f 135/1/2 136/1/2 139/1/2
f 138/3/2 135/3/2 139/3/2
f 136/3/2 132/3/2 140/3/2
f 139/1/2 136/1/2 140/1/2
f 138/3/2 139/3/2 141/3/2
f 137/3/2 138/3/2 141/3/2
f 139/3/2 140/3/2 141/3/2
f 129/3/2 137/3/2 141/3/2
f 140/3/2 132/3/2 142/3/2
f 141/3/2 140/3/2 142/3/2
f 146/5/3 144/5/3 143/5/3
f 147/5/3 144/5/3 146/5/3
f 149/5/3 146/5/3 145/5/3
f 149/5/3 148/5/3 147/5/3
f 149/5/3 147/5/3 146/5/3
f 150/5/3 148/5/3 149/5/3
f 151/5/3 148/5/3 150/5/3
f 152/5/3 148/5/3 151/5/3
f 153/5/3 151/5/3 150/5/3
f 154/5/3 151/5/3 153/5/3
f 158/5/3 156/5/3 155/5/3
f 159/5/3 156/5/3 158/5/3
f 161/5/3 159/5/3 158/5/3
f 161/5/3 160/5/3 159/5/3
f 161/5/3 158/5/3 157/5/3
f 162/5/3 160/5/3 161/5/3
f 163/5/3 160/5/3 162/5/3
f 164/5/3 160/5/3 163/5/3
f 165/5/3 163/5/3 162/5/3
f 166/5/3 163/5/3 165/5/3
f 171/3/3 168/3/3 167/3/3
f 171/1/3 169/1/3 168/1/3
f 172/3/3 170/3/3 169/3/3
f 172/1/3 169/1/3 171/1/3
f 173/3/3 171/3/3 167/3/3
f 173/3/3 172/3/3 171/3/3
f 174/3/3 172/3/3 173/3/3
f 175/3/3 172/3/3 174/3/3
f 176/3/3 170/3/3 172/3/3
f 176/3/3 172/3/3 175/3/3
f 177/3/3 170/3/3 176/3/3
f 180/3/3 178/3/3 177/3/3
f 180/3/3 177/3/3 176/3/3
f 181/3/3 178/3/3 180/3/3
f 182/3/3 178/3/3 181/3/3
f 184/3/3 180/3/3 179/3/3
f 184/3/3 181/3/3 180/3/3
f 185/3/3 184/3/3 183/3/3
f 186/3/3 181/3/3 184/3/3
f 186/3/3 184/3/3 185/3/3
f 187/3/3 181/3/3 186/3/3
f 188/3/3 181/3/3 187/3/3
f 190/3/3 181/3/3 188/3/3
f 191/2/3 182/2/3 181/2/3
f 191/3/3 181/3/3 190/3/3
f 192/3/3 178/3/3 182/3/3
f 192/2/3 182/2/3 191/2/3
f 194/3/3 191/3/3 190/3/3
f 194/3/3 190/3/3 189/3/3
f 194/3/3 192/3/3 191/3/3
f 195/3/3 192/3/3 194/3/3
f 196/3/3 178/3/3 192/3/3
f 196/3/3 192/3/3 195/3/3
f 197/3/3 195/3/3 194/3/3
f 197/3/3 194/3/3 193/3/3
f 198/3/3 195/3/3 197/3/3
f 201/5/3 200/5/3 199/5/3
f 202/5/3 200/5/3 201/5/3
f 205/5/3 204/5/3 203/5/3
f 206/5/3 204/5/3 205/5/3
f 207/5/4 208/5/4 209/5/4
f 209/5/4 208/5/4 210/5/4
f 211/5/4 212/5/4 213/5/4
f 213/5/4 212/5/4 214/5/4
f 215/3/4 216/3/4 219/3/4
f 216/1/4 217/1/4 219/1/4
f 217/3/4 218/3/4 220/3/4
f 219/1/4 217/1/4 220/1/4
f 215/3/4 219/3/4 221/3/4
f 219/3/4 220/3/4 221/3/4
f 221/3/4 220/3/4 222/3/4
f 222/3/4 220/3/4 223/3/4
f 220/3/4 218/3/4 224/3/4
f 223/3/4 220/3/4 224/3/4
f 224/3/4 218/3/4 225/3/4
f 225/3/4 226/3/4 228/3/4
f 224/3/4 225/3/4 228/3/4
f 228/3/4 226/3/4 229/3/4
f 229/3/4 226/3/4 230/3/4
f 227/3/4 228/3/4 232/3/4
f 228/3/4 229/3/4 232/3/4
f 231/3/4 232/3/4 233/3/4
f 232/3/4 229/3/4 234/3/4
f 233/3/4 232/3/4 234/3/4
f 234/3/4 229/3/4 235/3/4
f 235/3/4 229/3/4 236/3/4
f 236/3/4 229/3/4 238/3/4
f 229/2/4 230/2/4 239/2/4
f 238/3/4 229/3/4 239/3/4
f 230/3/4 226/3/4 240/3/4
f 239/2/4 230/2/4 240/2/4
f 238/3/4 239/3/4 242/3/4
f 237/3/4 238/3/4 242/3/4
f 239/3/4 240/3/4 242/3/4
f 242/3/4 240/3/4 243/3/4
f 240/3/4 226/3/4 244/3/4
f 243/3/4 240/3/4 244/3/4
f 242/3/4 243/3/4 245/3/4
f 241/3/4 242/3/4 245/3/4
f 245/3/4 243/3/4 246/3/4
f 247/5/4 248/5/4 250/5/4
f 250/5/4 248/5/4 251/5/4
f 249/5/4 250/5/4 253/5/4
f 251/5/4 252/5/4 253/5/4
f 250/5/4 251/5/4 253/5/4
f 253/5/4 252/5/4 254/5/4
f 254/5/4 252/5/4 255/5/4
f 255/5/4 252/5/4 256/5/4
f 254/5/4 255/5/4 257/5/4
f 257/5/4 255/5/4 258/5/4
f 259/5/4 260/5/4 262/5/4
f 262/5/4 260/5/4 263/5/4
f 262/5/4 263/5/4 265/5/4
f 263/5/4 264/5/4 265/5/4
f 261/5/4 262/5/4 265/5/4
f 265/5/4 264/5/4 266/5/4
f 266/5/4 264/5/4 267/5/4
f 267/5/4 264/5/4 268/5/4
f 266/5/4 267/5/4 269/5/4
f 269/5/4 267/5/4 270/5/4
f 275/5/5 272/5/5 271/5/5
f 276/5/5 272/5/5 275/5/5
f 277/5/5 274/5/5 273/5/5
f 278/5/5 274/5/5 277/5/5
f 283/5/5 280/5/5 279/5/5
f 284/5/5 280/5/5 283/5/5
f 285/5/5 282/5/5 281/5/5
f 286/5/5 282/5/5 285/5/5
f 296/5/5 288/5/5 287/5/5
f 297/5/5 288/5/5 296/5/5
f 298/5/5 290/5/5 289/5/5
f 299/5/5 290/5/5 298/5/5
f 300/5/5 292/5/5 291/5/5
f 301/5/5 292/5/5 300/5/5
f 302/5/5 294/5/5 293/5/5
f 303/5/5 294/5/5 302/5/5
f 305/3/5 301/3/5 300/3/5
f 305/3/5 304/3/5 303/3/5
f 305/3/5 303/3/5 302/3/5
f 305/3/5 302/3/5 301/3/5
f 305/3/5 297/3/5 296/3/5
f 305/3/5 300/3/5 299/3/5
f 305/3/5 299/3/5 298/3/5
f 305/3/5 298/3/5 297/3/5
f 305/3/5 296/3/5 295/3/5
f 306/3/5 304/3/5 305/3/5
f 307/3/5 304/3/5 306/3/5
f 308/3/5 304/3/5 307/3/5
f 309/4/5 306/4/5 305/4/5
f 310/3/5 307/3/5 306/3/5
f 310/4/5 306/4/5 309/4/5
f 311/4/5 308/4/5 307/4/5
f 311/3/5 307/3/5 310/3/5
f 312/4/5 308/4/5 311/4/5
f 313/3/5 310/3/5 309/3/5
f 313/3/5 311/3/5 310/3/5
f 313/3/5 312/3/5 311/3/5
f 314/3/5 312/3/5 313/3/5
f 315/3/5 312/3/5 314/3/5
f 316/3/5 312/3/5 315/3/5
f 317/3/5 312/3/5 316/3/5
f 318/3/5 312/3/5 317/3/5
f 319/3/5 312/3/5 318/3/5
f 320/3/5 312/3/5 319/3/5
f 321/3/5 312/3/5 320/3/5
f 322/3/5 312/3/5 321/3/5
f 323/5/5 315/5/5 314/5/5
f 324/5/5 315/5/5 323/5/5
f 325/5/5 317/5/5 316/5/5
f 326/5/5 317/5/5 325/5/5
f 327/5/5 319/5/5 318/5/5
f 328/5/5 319/5/5 327/5/5
f 329/5/5 321/5/5 320/5/5
f 330/5/5 321/5/5 329/5/5
f 331/5/6 332/5/6 339/5/6
f 339/5/6 332/5/6 340/5/6
f 333/5/6 334/5/6 341/5/6
f 341/5/6 334/5/6 342/5/6
f 335/5/6 336/5/6 343/5/6
f 343/5/6 336/5/6 344/5/6
f 337/5/6 338/5/6 345/5/6
f 345/5/6 338/5/6 346/5/6
f 347/5/6 348/5/6 355/5/6
f 355/5/6 348/5/6 356/5/6
f 349/5/6 350/5/6 357/5/6
f 357/5/6 350/5/6 358/5/6
f 351/5/6 352/5/6 359/5/6
f 359/5/6 352/5/6 360/5/6
f 353/5/6 354/5/6 361/5/6
f 361/5/6 354/5/6 362/5/6
f 363/5/6 364/5/6 367/5/6
f 367/5/6 364/5/6 368/5/6
f 365/5/6 366/5/6 369/5/6
f 369/5/6 366/5/6 370/5/6
f 371/5/6 372/5/6 375/5/6
f 375/5/6 372/5/6 376/5/6
f 373/5/6 374/5/6 377/5/6
f 377/5/6 374/5/6 378/5/6
f 379/3/6 380/3/6 383/3/6
f 381/3/6 382/3/6 384/3/6
f 379/3/6 383/3/6 385/3/6
f 384/3/6 382/3/6 386/3/6
f 379/3/6 385/3/6 387/3/6
f 387/3/6 385/3/6 388/3/6
f 386/3/6 382/3/6 389/3/6
f 389/3/6 382/3/6 390/3/6
f 391/3/6 392/3/6 393/3/6
f 393/3/6 392/3/6 394/3/6
