# MagicaVoxel @ Ephtracy

# group
o 

# material
mtllib samochod_ver2_2.mtl
usemtl palette

# normals
vn -1 0 0
vn 1 0 0
vn 0 0 1
vn 0 0 -1
vn 0 -1 0
vn 0 1 0

# texcoords
vt 0.00195313 0.5
vt 0.275391 0.5
vt 0.416016 0.5
vt 0.423828 0.5
vt 0.615234 0.5
vt 0.982422 0.5
vt 0.986328 0.5

# verts
v -0.4 0.1 0.4
v -0.4 0.1 0.2
v -0.4 0.1 -0.3
v -0.4 0.1 -0.5
v -0.4 0.2 0.4
v -0.4 0.2 0.3
v -0.4 0.2 0.2
v -0.4 0.2 -0.3
v -0.4 0.2 -0.4
v -0.4 0.2 -0.5
v -0.4 0.3 0.4
v -0.4 0.3 0.3
v -0.4 0.3 -0.4
v -0.4 0.3 -0.5
v -0.4 0.4 0.4
v -0.4 0.4 -0.5
v -0.2 0.1 0.5
v -0.2 0.1 0.4
v -0.2 0.1 -0.5
v -0.2 0.1 -0.6
v -0.2 0.2 0.5
v -0.2 0.2 0.4
v -0.2 0.2 -0.5
v -0.2 0.2 -0.6
v -0.1 0 0.5
v -0.1 0 0.4
v -0.1 0 -0.5
v -0.1 0 -0.6
v -0.1 0.1 0.5
v -0.1 0.1 0.4
v -0.1 0.1 -0.5
v -0.1 0.1 -0.6
v -0.1 0.2 0.5
v -0.1 0.2 0.4
v -0.1 0.2 -0.5
v -0.1 0.2 -0.6
v -0.1 0.3 0.5
v -0.1 0.3 0.4
v -0.1 0.3 -0.5
v -0.1 0.3 -0.6
v -0.1 0.4 0.4
v -0.1 0.4 0.3
v -0.1 0.4 -0.4
v -0.1 0.4 -0.5
v -0.1 0.6 0.3
v -0.1 0.6 -0.4
v -0.1 0.7 0.4
v -0.1 0.7 -0.5
v 0.4 0.1 0.5
v 0.4 0.1 0.4
v 0.4 0.1 -0.5
v 0.4 0.1 -0.6
v 0.4 0.2 0.5
v 0.4 0.2 0.4
v 0.4 0.2 -0.5
v 0.4 0.2 -0.6
v 0.5 0 0.5
v 0.5 0 0.4
v 0.5 0 -0.5
v 0.5 0 -0.6
v 0.5 0.1 0.5
v 0.5 0.1 0.4
v 0.5 0.1 -0.5
v 0.5 0.1 -0.6
v 0.5 0.2 0.5
v 0.5 0.2 0.4
v 0.5 0.2 -0.5
v 0.5 0.2 -0.6
v 0.5 0.3 0.5
v 0.5 0.3 0.4
v 0.5 0.3 -0.5
v 0.5 0.3 -0.6
v 0 0 0.5
v 0 0 0.4
v 0 0 -0.5
v 0 0 -0.6
v 0 0.1 0.5
v 0 0.1 0.4
v 0 0.1 -0.5
v 0 0.1 -0.6
v 0 0.2 0.5
v 0 0.2 0.4
v 0 0.2 -0.5
v 0 0.2 -0.6
v 0 0.3 0.5
v 0 0.3 0.4
v 0 0.3 -0.5
v 0 0.3 -0.6
v 0.1 0.1 0.5
v 0.1 0.1 0.4
v 0.1 0.1 -0.5
v 0.1 0.1 -0.6
v 0.1 0.2 0.5
v 0.1 0.2 0.4
v 0.1 0.2 -0.5
v 0.1 0.2 -0.6
v 0.6 0 0.5
v 0.6 0 0.4
v 0.6 0 -0.5
v 0.6 0 -0.6
v 0.6 0.1 0.5
v 0.6 0.1 0.4
v 0.6 0.1 -0.5
v 0.6 0.1 -0.6
v 0.6 0.2 0.5
v 0.6 0.2 0.4
v 0.6 0.2 -0.5
v 0.6 0.2 -0.6
v 0.6 0.3 0.5
v 0.6 0.3 0.4
v 0.6 0.3 -0.5
v 0.6 0.3 -0.6
v 0.7 0.1 0.5
v 0.7 0.1 0.4
v 0.7 0.1 -0.5
v 0.7 0.1 -0.6
v 0.7 0.2 0.5
v 0.7 0.2 0.4
v 0.7 0.2 -0.5
v 0.7 0.2 -0.6
v 0.7 0.4 0.4
v 0.7 0.4 0.3
v 0.7 0.4 -0.4
v 0.7 0.4 -0.5
v 0.7 0.6 0.3
v 0.7 0.6 -0.4
v 0.7 0.7 0.4
v 0.7 0.7 -0.5
v 0.8 0.1 0.4
v 0.8 0.1 0.2
v 0.8 0.1 -0.3
v 0.8 0.1 -0.5
v 0.8 0.2 0.3
v 0.8 0.2 0.2
v 0.8 0.2 -0.3
v 0.8 0.2 -0.4
v 0.8 0.3 0.3
v 0.8 0.3 0.2
v 0.8 0.3 -0.3
v 0.8 0.3 -0.4
v 0.8 0.4 0.4
v 0.8 0.4 -0.5
v -0.2 0.1 0.5
v -0.2 0.2 0.5
v -0.1 0 0.5
v -0.1 0.1 0.5
v -0.1 0.2 0.5
v -0.1 0.3 0.5
v 0 0 0.5
v 0 0.1 0.5
v 0 0.2 0.5
v 0 0.3 0.5
v 0.1 0.1 0.5
v 0.1 0.2 0.5
v 0.4 0.1 0.5
v 0.4 0.2 0.5
v 0.5 0 0.5
v 0.5 0.1 0.5
v 0.5 0.2 0.5
v 0.5 0.3 0.5
v 0.6 0 0.5
v 0.6 0.1 0.5
v 0.6 0.2 0.5
v 0.6 0.3 0.5
v 0.7 0.1 0.5
v 0.7 0.2 0.5
v -0.4 0.1 0.4
v -0.4 0.2 0.4
v -0.4 0.3 0.4
v -0.4 0.4 0.4
v -0.3 0.2 0.4
v -0.3 0.3 0.4
v -0.2 0.1 0.4
v -0.2 0.2 0.4
v -0.1 0.2 0.4
v -0.1 0.3 0.4
v -0.1 0.4 0.4
v -0.1 0.7 0.4
v 0 0.2 0.4
v 0 0.3 0.4
v 0 0.4 0.4
v 0 0.6 0.4
v 0.1 0.1 0.4
v 0.1 0.2 0.4
v 0.4 0.1 0.4
v 0.4 0.2 0.4
v 0.5 0.2 0.4
v 0.5 0.3 0.4
v 0.6 0.2 0.4
v 0.6 0.3 0.4
v 0.6 0.4 0.4
v 0.6 0.6 0.4
v 0.7 0.1 0.4
v 0.7 0.2 0.4
v 0.7 0.4 0.4
v 0.7 0.7 0.4
v 0.8 0.1 0.4
v 0.8 0.4 0.4
v -0.1 0 -0.5
v -0.1 0.1 -0.5
v 0 0 -0.5
v 0 0.1 -0.5
v 0.5 0 -0.5
v 0.5 0.1 -0.5
v 0.6 0 -0.5
v 0.6 0.1 -0.5
v -0.1 0 0.4
v -0.1 0.1 0.4
v 0 0 0.4
v 0 0.1 0.4
v 0.5 0 0.4
v 0.5 0.1 0.4
v 0.6 0 0.4
v 0.6 0.1 0.4
v -0.4 0.1 -0.5
v -0.4 0.2 -0.5
v -0.4 0.3 -0.5
v -0.4 0.4 -0.5
v -0.3 0.2 -0.5
v -0.3 0.3 -0.5
v -0.2 0.1 -0.5
v -0.2 0.2 -0.5
v -0.1 0.2 -0.5
v -0.1 0.3 -0.5
v -0.1 0.4 -0.5
v -0.1 0.7 -0.5
v 0 0.2 -0.5
v 0 0.3 -0.5
v 0 0.4 -0.5
v 0 0.6 -0.5
v 0.1 0.1 -0.5
v 0.1 0.2 -0.5
v 0.4 0.1 -0.5
v 0.4 0.2 -0.5
v 0.5 0.2 -0.5
v 0.5 0.3 -0.5
v 0.6 0.2 -0.5
v 0.6 0.3 -0.5
v 0.6 0.4 -0.5
v 0.6 0.6 -0.5
v 0.7 0.1 -0.5
v 0.7 0.2 -0.5
v 0.7 0.4 -0.5
v 0.7 0.7 -0.5
v 0.8 0.1 -0.5
v 0.8 0.4 -0.5
v -0.2 0.1 -0.6
v -0.2 0.2 -0.6
v -0.1 0 -0.6
v -0.1 0.1 -0.6
v -0.1 0.2 -0.6
v -0.1 0.3 -0.6
v 0 0 -0.6
v 0 0.1 -0.6
v 0 0.2 -0.6
v 0 0.3 -0.6
v 0.1 0.1 -0.6
v 0.1 0.2 -0.6
v 0.4 0.1 -0.6
v 0.4 0.2 -0.6
v 0.5 0 -0.6
v 0.5 0.1 -0.6
v 0.5 0.2 -0.6
v 0.5 0.3 -0.6
v 0.6 0 -0.6
v 0.6 0.1 -0.6
v 0.6 0.2 -0.6
v 0.6 0.3 -0.6
v 0.7 0.1 -0.6
v 0.7 0.2 -0.6
v -0.1 0 0.5
v 0 0 0.5
v 0.5 0 0.5
v 0.6 0 0.5
v -0.1 0 0.4
v 0 0 0.4
v 0.5 0 0.4
v 0.6 0 0.4
v -0.1 0 -0.5
v 0 0 -0.5
v 0.5 0 -0.5
v 0.6 0 -0.5
v -0.1 0 -0.6
v 0 0 -0.6
v 0.5 0 -0.6
v 0.6 0 -0.6
v -0.2 0.1 0.5
v -0.1 0.1 0.5
v 0 0.1 0.5
v 0.1 0.1 0.5
v 0.4 0.1 0.5
v 0.5 0.1 0.5
v 0.6 0.1 0.5
v 0.7 0.1 0.5
v -0.4 0.1 0.4
v -0.2 0.1 0.4
v -0.1 0.1 0.4
v 0 0.1 0.4
v 0.1 0.1 0.4
v 0.4 0.1 0.4
v 0.5 0.1 0.4
v 0.6 0.1 0.4
v 0.7 0.1 0.4
v 0.8 0.1 0.4
v -0.3 0.1 0.3
v -0.2 0.1 0.3
v 0.1 0.1 0.3
v 0.4 0.1 0.3
v -0.4 0.1 0.2
v -0.3 0.1 0.2
v 0.7 0.1 0.2
v 0.8 0.1 0.2
v -0.4 0.1 -0.3
v -0.3 0.1 -0.3
v 0.7 0.1 -0.3
v 0.8 0.1 -0.3
v -0.3 0.1 -0.4
v -0.2 0.1 -0.4
v 0.1 0.1 -0.4
v 0.4 0.1 -0.4
v -0.4 0.1 -0.5
v -0.2 0.1 -0.5
v -0.1 0.1 -0.5
v 0 0.1 -0.5
v 0.1 0.1 -0.5
v 0.4 0.1 -0.5
v 0.5 0.1 -0.5
v 0.6 0.1 -0.5
v 0.7 0.1 -0.5
v 0.8 0.1 -0.5
v -0.2 0.1 -0.6
v -0.1 0.1 -0.6
v 0 0.1 -0.6
v 0.1 0.1 -0.6
v 0.4 0.1 -0.6
v 0.5 0.1 -0.6
v 0.6 0.1 -0.6
v 0.7 0.1 -0.6
v -0.2 0.2 0.5
v -0.1 0.2 0.5
v 0 0.2 0.5
v 0.1 0.2 0.5
v 0.4 0.2 0.5
v 0.5 0.2 0.5
v 0.6 0.2 0.5
v 0.7 0.2 0.5
v -0.2 0.2 0.4
v -0.1 0.2 0.4
v 0 0.2 0.4
v 0.1 0.2 0.4
v 0.4 0.2 0.4
v 0.5 0.2 0.4
v 0.6 0.2 0.4
v 0.7 0.2 0.4
v -0.2 0.2 -0.5
v -0.1 0.2 -0.5
v 0 0.2 -0.5
v 0.1 0.2 -0.5
v 0.4 0.2 -0.5
v 0.5 0.2 -0.5
v 0.6 0.2 -0.5
v 0.7 0.2 -0.5
v -0.2 0.2 -0.6
v -0.1 0.2 -0.6
v 0 0.2 -0.6
v 0.1 0.2 -0.6
v 0.4 0.2 -0.6
v 0.5 0.2 -0.6
v 0.6 0.2 -0.6
v 0.7 0.2 -0.6
v -0.1 0.3 0.5
v 0 0.3 0.5
v 0.5 0.3 0.5
v 0.6 0.3 0.5
v -0.1 0.3 0.4
v 0 0.3 0.4
v 0.5 0.3 0.4
v 0.6 0.3 0.4
v -0.1 0.3 -0.5
v 0 0.3 -0.5
v 0.5 0.3 -0.5
v 0.6 0.3 -0.5
v -0.1 0.3 -0.6
v 0 0.3 -0.6
v 0.5 0.3 -0.6
v 0.6 0.3 -0.6
v -0.4 0.4 0.4
v -0.1 0.4 0.4
v 0.7 0.4 0.4
v 0.8 0.4 0.4
v -0.1 0.4 0.3
v 0.7 0.4 0.3
v -0.1 0.4 -0.4
v 0.7 0.4 -0.4
v -0.4 0.4 -0.5
v -0.1 0.4 -0.5
v 0.7 0.4 -0.5
v 0.8 0.4 -0.5
v -0.1 0.7 0.4
v 0.7 0.7 0.4
v -0.1 0.7 -0.5
v 0.7 0.7 -0.5

# faces
f 5/2/1 2/2/1 1/2/1
f 6/2/1 2/2/1 5/2/1
f 7/6/1 3/6/1 2/6/1
f 7/2/1 2/2/1 6/2/1
f 8/2/1 4/2/1 3/2/1
f 8/6/1 3/6/1 7/6/1
f 9/2/1 4/2/1 8/2/1
f 10/2/1 4/2/1 9/2/1
f 11/1/1 6/1/1 5/1/1
f 12/2/1 7/2/1 6/2/1
f 12/1/1 6/1/1 11/1/1
f 12/2/1 8/2/1 7/2/1
f 12/2/1 9/2/1 8/2/1
f 13/1/1 10/1/1 9/1/1
f 13/2/1 9/2/1 12/2/1
f 14/1/1 10/1/1 13/1/1
f 15/2/1 12/2/1 11/2/1
f 15/2/1 13/2/1 12/2/1
f 15/2/1 14/2/1 13/2/1
f 16/2/1 14/2/1 15/2/1
f 21/7/1 18/7/1 17/7/1
f 22/7/1 18/7/1 21/7/1
f 23/7/1 20/7/1 19/7/1
f 24/7/1 20/7/1 23/7/1
f 29/7/1 26/7/1 25/7/1
f 30/7/1 26/7/1 29/7/1
f 31/7/1 28/7/1 27/7/1
f 32/7/1 28/7/1 31/7/1
f 37/7/1 34/7/1 33/7/1
f 38/7/1 34/7/1 37/7/1
f 39/7/1 36/7/1 35/7/1
f 40/7/1 36/7/1 39/7/1
f 45/2/1 42/2/1 41/2/1
f 45/4/1 43/4/1 42/4/1
f 46/2/1 44/2/1 43/2/1
f 46/4/1 43/4/1 45/4/1
f 47/2/1 45/2/1 41/2/1
f 47/2/1 46/2/1 45/2/1
f 48/2/1 44/2/1 46/2/1
f 48/2/1 46/2/1 47/2/1
f 53/7/1 50/7/1 49/7/1
f 54/7/1 50/7/1 53/7/1
f 55/7/1 52/7/1 51/7/1
f 56/7/1 52/7/1 55/7/1
f 61/7/1 58/7/1 57/7/1
f 62/7/1 58/7/1 61/7/1
f 63/7/1 60/7/1 59/7/1
f 64/7/1 60/7/1 63/7/1
f 69/7/1 66/7/1 65/7/1
f 70/7/1 66/7/1 69/7/1
f 71/7/1 68/7/1 67/7/1
f 72/7/1 68/7/1 71/7/1
f 73/7/2 74/7/2 77/7/2
f 77/7/2 74/7/2 78/7/2
f 75/7/2 76/7/2 79/7/2
f 79/7/2 76/7/2 80/7/2
f 81/7/2 82/7/2 85/7/2
f 85/7/2 82/7/2 86/7/2
f 83/7/2 84/7/2 87/7/2
f 87/7/2 84/7/2 88/7/2
f 89/7/2 90/7/2 93/7/2
f 93/7/2 90/7/2 94/7/2
f 91/7/2 92/7/2 95/7/2
f 95/7/2 92/7/2 96/7/2
f 97/7/2 98/7/2 101/7/2
f 101/7/2 98/7/2 102/7/2
f 99/7/2 100/7/2 103/7/2
f 103/7/2 100/7/2 104/7/2
f 105/7/2 106/7/2 109/7/2
f 109/7/2 106/7/2 110/7/2
f 107/7/2 108/7/2 111/7/2
f 111/7/2 108/7/2 112/7/2
f 113/7/2 114/7/2 117/7/2
f 117/7/2 114/7/2 118/7/2
f 115/7/2 116/7/2 119/7/2
f 119/7/2 116/7/2 120/7/2
f 121/2/2 122/2/2 125/2/2
f 122/4/2 123/4/2 125/4/2
f 123/2/2 124/2/2 126/2/2
f 125/4/2 123/4/2 126/4/2
f 121/2/2 125/2/2 127/2/2
f 125/2/2 126/2/2 127/2/2
f 126/2/2 124/2/2 128/2/2
f 127/2/2 126/2/2 128/2/2
f 129/2/2 130/2/2 133/2/2
f 130/6/2 131/6/2 134/6/2
f 133/2/2 130/2/2 134/2/2
f 131/2/2 132/2/2 135/2/2
f 134/6/2 131/6/2 135/6/2
f 135/2/2 132/2/2 136/2/2
f 133/1/2 134/1/2 137/1/2
f 129/2/2 133/2/2 137/2/2
f 134/2/2 135/2/2 138/2/2
f 137/1/2 134/1/2 138/1/2
f 135/1/2 136/1/2 139/1/2
f 138/2/2 135/2/2 139/2/2
f 136/2/2 132/2/2 140/2/2
f 139/1/2 136/1/2 140/1/2
f 138/2/2 139/2/2 141/2/2
f 137/2/2 138/2/2 141/2/2
f 139/2/2 140/2/2 141/2/2
f 129/2/2 137/2/2 141/2/2
f 140/2/2 132/2/2 142/2/2
f 141/2/2 140/2/2 142/2/2
f 146/7/3 144/7/3 143/7/3
f 147/7/3 144/7/3 146/7/3
f 149/7/3 146/7/3 145/7/3
f 149/7/3 148/7/3 147/7/3
f 149/7/3 147/7/3 146/7/3
f 150/7/3 148/7/3 149/7/3
f 151/7/3 148/7/3 150/7/3
f 152/7/3 148/7/3 151/7/3
f 153/7/3 151/7/3 150/7/3
f 154/7/3 151/7/3 153/7/3
f 158/7/3 156/7/3 155/7/3
f 159/7/3 156/7/3 158/7/3
f 161/7/3 159/7/3 158/7/3
f 161/7/3 160/7/3 159/7/3
f 161/7/3 158/7/3 157/7/3
f 162/7/3 160/7/3 161/7/3
f 163/7/3 160/7/3 162/7/3
f 164/7/3 160/7/3 163/7/3
f 165/7/3 163/7/3 162/7/3
f 166/7/3 163/7/3 165/7/3
f 171/2/3 168/2/3 167/2/3
f 171/1/3 169/1/3 168/1/3
f 172/2/3 170/2/3 169/2/3
f 172/1/3 169/1/3 171/1/3
f 173/2/3 171/2/3 167/2/3
f 173/2/3 172/2/3 171/2/3
f 174/2/3 172/2/3 173/2/3
f 175/2/3 172/2/3 174/2/3
f 176/2/3 170/2/3 172/2/3
f 176/2/3 172/2/3 175/2/3
f 177/2/3 170/2/3 176/2/3
f 180/2/3 178/2/3 177/2/3
f 180/2/3 177/2/3 176/2/3
f 181/2/3 178/2/3 180/2/3
f 182/2/3 178/2/3 181/2/3
f 184/2/3 180/2/3 179/2/3
f 184/2/3 181/2/3 180/2/3
f 185/2/3 184/2/3 183/2/3
f 186/2/3 181/2/3 184/2/3
f 186/2/3 184/2/3 185/2/3
f 187/2/3 181/2/3 186/2/3
f 188/2/3 181/2/3 187/2/3
f 190/2/3 181/2/3 188/2/3
f 191/4/3 182/4/3 181/4/3
f 191/2/3 181/2/3 190/2/3
f 192/2/3 178/2/3 182/2/3
f 192/4/3 182/4/3 191/4/3
f 194/2/3 191/2/3 190/2/3
f 194/2/3 190/2/3 189/2/3
f 194/2/3 192/2/3 191/2/3
f 195/2/3 192/2/3 194/2/3
f 196/2/3 178/2/3 192/2/3
f 196/2/3 192/2/3 195/2/3
f 197/2/3 195/2/3 194/2/3
f 197/2/3 194/2/3 193/2/3
f 198/2/3 195/2/3 197/2/3
f 201/7/3 200/7/3 199/7/3
f 202/7/3 200/7/3 201/7/3
f 205/7/3 204/7/3 203/7/3
f 206/7/3 204/7/3 205/7/3
f 207/7/4 208/7/4 209/7/4
f 209/7/4 208/7/4 210/7/4
f 211/7/4 212/7/4 213/7/4
f 213/7/4 212/7/4 214/7/4
f 215/2/4 216/2/4 219/2/4
f 216/1/4 217/1/4 219/1/4
f 217/2/4 218/2/4 220/2/4
f 219/1/4 217/1/4 220/1/4
f 215/2/4 219/2/4 221/2/4
f 219/2/4 220/2/4 221/2/4
f 221/2/4 220/2/4 222/2/4
f 222/2/4 220/2/4 223/2/4
f 220/2/4 218/2/4 224/2/4
f 223/2/4 220/2/4 224/2/4
f 224/2/4 218/2/4 225/2/4
f 225/2/4 226/2/4 228/2/4
f 224/2/4 225/2/4 228/2/4
f 228/2/4 226/2/4 229/2/4
f 229/2/4 226/2/4 230/2/4
f 227/2/4 228/2/4 232/2/4
f 228/2/4 229/2/4 232/2/4
f 231/2/4 232/2/4 233/2/4
f 232/2/4 229/2/4 234/2/4
f 233/2/4 232/2/4 234/2/4
f 234/2/4 229/2/4 235/2/4
f 235/2/4 229/2/4 236/2/4
f 236/2/4 229/2/4 238/2/4
f 229/4/4 230/4/4 239/4/4
f 238/2/4 229/2/4 239/2/4
f 230/2/4 226/2/4 240/2/4
f 239/4/4 230/4/4 240/4/4
f 238/2/4 239/2/4 242/2/4
f 237/2/4 238/2/4 242/2/4
f 239/2/4 240/2/4 242/2/4
f 242/2/4 240/2/4 243/2/4
f 240/2/4 226/2/4 244/2/4
f 243/2/4 240/2/4 244/2/4
f 242/2/4 243/2/4 245/2/4
f 241/2/4 242/2/4 245/2/4
f 245/2/4 243/2/4 246/2/4
f 247/7/4 248/7/4 250/7/4
f 250/7/4 248/7/4 251/7/4
f 249/7/4 250/7/4 253/7/4
f 251/7/4 252/7/4 253/7/4
f 250/7/4 251/7/4 253/7/4
f 253/7/4 252/7/4 254/7/4
f 254/7/4 252/7/4 255/7/4
f 255/7/4 252/7/4 256/7/4
f 254/7/4 255/7/4 257/7/4
f 257/7/4 255/7/4 258/7/4
f 259/7/4 260/7/4 262/7/4
f 262/7/4 260/7/4 263/7/4
f 262/7/4 263/7/4 265/7/4
f 263/7/4 264/7/4 265/7/4
f 261/7/4 262/7/4 265/7/4
f 265/7/4 264/7/4 266/7/4
f 266/7/4 264/7/4 267/7/4
f 267/7/4 264/7/4 268/7/4
f 266/7/4 267/7/4 269/7/4
f 269/7/4 267/7/4 270/7/4
f 275/7/5 272/7/5 271/7/5
f 276/7/5 272/7/5 275/7/5
f 277/7/5 274/7/5 273/7/5
f 278/7/5 274/7/5 277/7/5
f 283/7/5 280/7/5 279/7/5
f 284/7/5 280/7/5 283/7/5
f 285/7/5 282/7/5 281/7/5
f 286/7/5 282/7/5 285/7/5
f 296/7/5 288/7/5 287/7/5
f 297/7/5 288/7/5 296/7/5
f 298/7/5 290/7/5 289/7/5
f 299/7/5 290/7/5 298/7/5
f 300/7/5 292/7/5 291/7/5
f 301/7/5 292/7/5 300/7/5
f 302/7/5 294/7/5 293/7/5
f 303/7/5 294/7/5 302/7/5
f 305/2/5 296/2/5 295/2/5
f 306/3/5 297/3/5 296/3/5
f 306/2/5 296/2/5 305/2/5
f 306/3/5 299/3/5 298/3/5
f 306/3/5 298/3/5 297/3/5
f 307/2/5 300/2/5 299/2/5
f 307/3/5 299/3/5 306/3/5
f 308/3/5 301/3/5 300/3/5
f 308/2/5 300/2/5 307/2/5
f 308/3/5 303/3/5 302/3/5
f 308/3/5 302/3/5 301/3/5
f 309/2/5 305/2/5 295/2/5
f 310/3/5 307/3/5 306/3/5
f 310/2/5 305/2/5 309/2/5
f 310/3/5 306/3/5 305/3/5
f 310/3/5 308/3/5 307/3/5
f 311/3/5 303/3/5 308/3/5
f 311/3/5 308/3/5 310/3/5
f 311/2/5 304/2/5 303/2/5
f 312/2/5 304/2/5 311/2/5
f 313/6/5 310/6/5 309/6/5
f 314/3/5 311/3/5 310/3/5
f 314/6/5 310/6/5 313/6/5
f 315/6/5 312/6/5 311/6/5
f 315/3/5 311/3/5 314/3/5
f 316/6/5 312/6/5 315/6/5
f 317/2/5 314/2/5 313/2/5
f 317/3/5 315/3/5 314/3/5
f 318/3/5 315/3/5 317/3/5
f 319/3/5 315/3/5 318/3/5
f 320/3/5 315/3/5 319/3/5
f 321/2/5 317/2/5 313/2/5
f 321/2/5 318/2/5 317/2/5
f 322/3/5 319/3/5 318/3/5
f 322/2/5 318/2/5 321/2/5
f 323/3/5 319/3/5 322/3/5
f 324/3/5 319/3/5 323/3/5
f 325/2/5 320/2/5 319/2/5
f 325/3/5 319/3/5 324/3/5
f 326/3/5 315/3/5 320/3/5
f 326/2/5 320/2/5 325/2/5
f 327/3/5 315/3/5 326/3/5
f 328/3/5 315/3/5 327/3/5
f 329/2/5 316/2/5 315/2/5
f 329/3/5 315/3/5 328/3/5
f 330/2/5 316/2/5 329/2/5
f 331/7/5 323/7/5 322/7/5
f 332/7/5 323/7/5 331/7/5
f 333/7/5 325/7/5 324/7/5
f 334/7/5 325/7/5 333/7/5
f 335/7/5 327/7/5 326/7/5
f 336/7/5 327/7/5 335/7/5
f 337/7/5 329/7/5 328/7/5
f 338/7/5 329/7/5 337/7/5
f 339/7/6 340/7/6 347/7/6
f 347/7/6 340/7/6 348/7/6
f 341/7/6 342/7/6 349/7/6
f 349/7/6 342/7/6 350/7/6
f 343/7/6 344/7/6 351/7/6
f 351/7/6 344/7/6 352/7/6
f 345/7/6 346/7/6 353/7/6
f 353/7/6 346/7/6 354/7/6
f 355/7/6 356/7/6 363/7/6
f 363/7/6 356/7/6 364/7/6
f 357/7/6 358/7/6 365/7/6
f 365/7/6 358/7/6 366/7/6
f 359/7/6 360/7/6 367/7/6
f 367/7/6 360/7/6 368/7/6
f 361/7/6 362/7/6 369/7/6
f 369/7/6 362/7/6 370/7/6
f 371/7/6 372/7/6 375/7/6
f 375/7/6 372/7/6 376/7/6
f 373/7/6 374/7/6 377/7/6
f 377/7/6 374/7/6 378/7/6
f 379/7/6 380/7/6 383/7/6
f 383/7/6 380/7/6 384/7/6
f 381/7/6 382/7/6 385/7/6
f 385/7/6 382/7/6 386/7/6
f 387/2/6 388/2/6 391/2/6
f 389/2/6 390/2/6 392/2/6
f 387/2/6 391/2/6 393/2/6
f 392/2/6 390/2/6 394/2/6
f 387/2/6 393/2/6 395/2/6
f 395/2/6 393/2/6 396/2/6
f 394/2/6 390/2/6 397/2/6
f 397/2/6 390/2/6 398/2/6
f 399/2/6 400/2/6 401/2/6
f 401/2/6 400/2/6 402/2/6
