# Blender v2.91.0 OBJ File: 'drzewo_3.blend'
# www.blender.org
mtllib tile_7.mtl
o Cube.471_Cube.472
v 1.998858 -0.075796 -2.273813
v -1.998858 -0.075796 -2.273813
v -1.998858 -0.075796 1.723903
v 1.998858 -0.075796 1.723903
v 0.000000 -0.075796 1.723903
v 0.000000 -0.075796 -2.273813
v -1.998858 -0.075796 -0.274955
v 1.998858 -0.075796 -0.274955
v 0.000000 0.420703 -0.274955
v 0.999429 -0.075796 1.723903
v -0.999429 -0.075796 -2.273813
v -1.998858 -0.075796 0.724474
v 1.998858 -0.075796 0.724474
v -0.999429 -0.075796 1.723903
v 0.999429 -0.075796 -2.273813
v -1.998858 -0.075796 -1.274384
v 1.998858 -0.075796 -1.274384
v 0.000000 -0.075796 0.724474
v 0.000000 0.420703 -1.274384
v 0.999429 0.126902 -0.274955
v -0.999429 0.126902 -0.274955
v -0.999429 0.126903 -1.274384
v 0.999429 0.218005 -1.274384
v 0.999429 -0.075796 0.724474
v -0.999429 -0.075796 0.724474
vt 0.812500 0.687500
vt 0.875000 0.687500
vt 0.875000 0.750000
vt 0.812500 0.750000
vt 0.687500 0.687500
vt 0.750000 0.687500
vt 0.750000 0.750000
vt 0.687500 0.750000
vt 0.687500 0.562500
vt 0.750000 0.562500
vt 0.750000 0.625000
vt 0.687500 0.625000
vt 0.812500 0.562500
vt 0.875000 0.562500
vt 0.875000 0.625000
vt 0.812500 0.625000
vt 0.750000 0.500000
vt 0.812500 0.500000
vt 0.875000 0.500000
vt 0.625000 0.562500
vt 0.625000 0.625000
vt 0.625000 0.500000
vt 0.687500 0.500000
vt 0.625000 0.687500
vt 0.625000 0.750000
vn 0.0000 1.0000 0.0000
vn 0.2408 0.9696 0.0442
vn -0.1988 0.9800 0.0000
vn -0.2820 0.9594 0.0000
vn -0.1374 0.9350 -0.3270
vn -0.1004 0.9899 -0.1004
vn 0.1439 0.9791 -0.1439
vn 0.0939 0.9258 -0.3661
vn 0.1004 0.9899 0.1004
vn 0.1374 0.9350 0.3270
vn -0.1374 0.9350 0.3270
vn -0.1004 0.9899 0.1004
usemtl Material
s off
f 25/1/1 12/2/1 3/3/1 14/4/1
f 24/5/1 18/6/1 5/7/1 10/8/1
f 23/9/2 19/10/2 9/11/2 20/12/2
f 22/13/3 16/14/3 7/15/3 21/16/3
f 19/10/4 22/13/4 21/16/4 9/11/4
f 6/17/5 11/18/5 22/13/5 19/10/5
f 11/18/6 2/19/6 16/14/6 22/13/6
f 17/20/2 23/9/2 20/12/2 8/21/2
f 1/22/7 15/23/7 23/9/7 17/20/7
f 15/23/8 6/17/8 19/10/8 23/9/8
f 13/24/1 24/5/1 10/8/1 4/25/1
f 8/21/9 20/12/9 24/5/9 13/24/9
f 20/12/10 9/11/10 18/6/10 24/5/10
f 18/6/1 25/1/1 14/4/1 5/7/1
f 9/11/11 21/16/11 25/1/11 18/6/11
f 21/16/12 7/15/12 12/2/12 25/1/12
