# Blender v2.91.0 OBJ File: 'drzewo_3.blend'
# www.blender.org
mtllib tile_5.mtl
o Cube.015_Cube.008
v 0.640848 0.507830 -1.589886
v 0.694935 0.509977 -1.611834
v 0.615631 0.200003 -1.837566
v 0.822876 0.177173 -1.604214
v 0.902180 0.487147 -1.378489
v 0.226047 0.337106 -1.639447
v 0.243272 0.134275 -1.165758
v 0.243272 0.463186 -1.133578
v 1.144130 0.148779 0.120836
v 1.419341 0.020657 -0.004466
v 1.469958 0.216010 -0.006097
v 0.440035 0.331872 -0.661629
v 1.157284 0.426236 -0.755917
v 1.201644 0.340923 0.116069
v 0.243272 0.463189 -1.133614
v 0.722759 0.056148 -0.367225
v 0.245522 0.462648 -1.128080
v 0.695610 0.388050 -0.365611
v 0.217321 0.184186 -1.675903
v 1.469958 0.022667 -0.025014
v 1.144130 0.338639 0.139412
v 0.440035 0.087293 -0.685558
vn -0.3187 0.6099 -0.7256
vn 0.7333 0.2676 -0.6251
vn -0.9991 -0.0041 0.0419
vn -0.9994 -0.0034 0.0349
vn -0.9992 -0.0104 0.0394
vn 0.3776 -0.0902 0.9216
vn -0.9260 -0.0368 0.3758
vn -0.9260 -0.0371 0.3757
vn 0.4452 0.8931 0.0647
vn 0.9260 0.0368 -0.3758
vn -0.3496 0.9118 -0.2154
vn -0.7493 -0.0645 0.6591
vn -0.2430 -0.8928 0.3792
vn -0.0000 -0.9952 -0.0974
vn -0.6498 0.6170 0.4440
vn 0.0000 0.9952 0.0974
vn -0.3735 0.2352 -0.8973
vn -0.1668 0.6264 -0.7615
vn -0.9986 -0.0322 0.0422
vn -0.9975 0.0438 0.0550
vn 0.3777 -0.0902 0.9215
vn -0.9260 -0.0387 0.3756
vn -0.0002 0.9953 0.0973
vn -0.0014 0.9953 0.0970
usemtl Material.004
s 1
f 1//1 2//1 3//1
f 4//2 2//2 5//2
f 6//3 7//4 8//5
f 9//6 10//6 11//6
f 12//7 8//8 7//7
f 11//9 13//9 14//9
f 11//10 4//10 13//10
f 1//11 6//11 15//11
f 16//12 9//12 12//12
f 10//13 9//13 16//13
f 3//14 4//14 16//14
f 17//15 12//15 18//15
f 18//16 13//16 1//16
f 3//17 19//17 6//17
f 6//18 1//18 3//18
f 4//2 3//2 2//2
f 8//5 15//19 6//3
f 6//20 19//20 7//20
f 10//6 20//21 11//6
f 11//6 14//6 9//6
f 14//6 21//6 9//6
f 7//7 22//7 12//7
f 12//7 17//22 8//8
f 20//10 4//10 11//10
f 4//10 5//10 13//10
f 21//12 18//12 9//12
f 18//12 12//12 9//12
f 12//12 22//12 16//12
f 20//14 10//14 4//14
f 10//14 16//14 4//14
f 16//14 22//14 7//14
f 7//14 19//14 16//14
f 19//14 3//14 16//14
f 2//16 1//16 5//16
f 1//16 15//23 17//16
f 15//23 8//24 17//16
f 17//16 18//16 1//16
f 18//16 21//16 14//16
f 13//16 18//16 14//16
f 13//16 5//16 1//16
o Cube.465_Cube.466
v -1.998854 0.199890 -2.568780
v -1.998854 0.199891 1.428936
v 1.998862 0.199890 1.428936
v 1.998862 0.199890 -2.568780
v 1.998862 0.199890 -0.569922
v -1.998854 0.199891 -0.569922
v 0.000004 0.199891 1.428936
v 0.000004 0.199890 -2.568780
v 0.000004 0.402589 -0.569922
v 1.998862 0.199890 -1.569351
v -1.998854 0.199891 0.429507
v 0.999433 0.199890 1.428936
v 0.999433 0.199890 -2.568780
v 1.998862 0.199890 0.429507
v -1.998854 0.199891 -1.569351
v -0.999425 0.199891 1.428936
v -0.999425 0.199890 -2.568780
v 0.999433 0.199890 -0.569922
v -0.999425 0.402589 -0.569922
v 0.000004 0.402588 -1.569351
v 0.000004 0.402589 0.429507
v -0.999425 0.402589 0.429507
v -0.999425 0.199890 -1.569351
v 0.999433 0.199890 -1.569351
v 0.999433 0.199890 0.429507
vt 0.812500 0.687500
vt 0.875000 0.687500
vt 0.875000 0.750000
vt 0.812500 0.750000
vt 0.687500 0.687500
vt 0.750000 0.687500
vt 0.750000 0.750000
vt 0.687500 0.750000
vt 0.687500 0.562500
vt 0.750000 0.562500
vt 0.750000 0.625000
vt 0.687500 0.625000
vt 0.812500 0.562500
vt 0.875000 0.562500
vt 0.875000 0.625000
vt 0.812500 0.625000
vt 0.750000 0.500000
vt 0.812500 0.500000
vt 0.875000 0.500000
vt 0.625000 0.562500
vt 0.625000 0.625000
vt 0.625000 0.500000
vt 0.687500 0.500000
vt 0.625000 0.687500
vt 0.625000 0.750000
vn 0.0000 1.0000 -0.0000
vn -0.1004 0.9899 -0.1004
vn 0.0000 0.9800 0.1988
vn -0.1988 0.9800 -0.0000
vn -0.1004 0.9899 0.1004
vn 0.1004 0.9899 -0.1004
vn 0.1988 0.9800 -0.0000
vn 0.1004 0.9899 0.1004
usemtl Material
s off
f 47/1/25 34/2/25 25/3/25 36/4/25
f 46/5/25 40/6/25 27/7/25 32/8/25
f 45/9/26 41/10/26 31/11/26 42/12/26
f 44/13/27 38/14/27 29/15/27 43/16/27
f 41/10/25 44/13/25 43/16/25 31/11/25
f 28/17/28 33/18/28 44/13/28 41/10/28
f 33/18/29 24/19/29 38/14/29 44/13/29
f 39/20/26 45/9/26 42/12/26 30/21/26
f 23/22/25 37/23/25 45/9/25 39/20/25
f 37/23/26 28/17/26 41/10/26 45/9/26
f 35/24/25 46/5/25 32/8/25 26/25/25
f 30/21/30 42/12/30 46/5/30 35/24/30
f 42/12/31 31/11/31 40/6/31 46/5/31
f 40/6/25 47/1/25 36/4/25 27/7/25
f 31/11/31 43/16/31 47/1/31 40/6/31
f 43/16/32 29/15/32 34/2/32 47/1/32
o Cube.466_Cube.467
v 0.327088 0.412714 -0.207015
v 0.196486 0.406898 -0.093232
v 0.167261 0.429764 0.035629
v 0.275289 0.450887 0.058467
v 0.452588 0.441406 -0.178869
v 0.553294 0.283571 0.697607
v 0.431649 0.281327 0.743749
v 0.350016 0.233379 0.713545
v 0.377788 0.203560 0.663060
v 0.483433 0.403295 -0.262208
v 0.388996 0.381704 -0.283388
v 0.603887 0.197576 0.506195
v 0.850989 0.361752 -0.068908
v 0.854770 0.383429 0.012974
v 0.810576 0.419973 0.184834
v 0.648254 0.358980 0.518204
v 0.547531 0.313988 0.682586
v 0.706331 0.170436 0.176529
v 0.765309 0.202618 -0.071278
v 0.166983 0.360753 0.499426
v 0.335143 0.417639 0.511621
v 0.202193 0.355776 -0.231600
v 0.084959 0.256236 0.452977
v 0.154870 0.261464 0.590026
v 0.132701 0.175273 0.223149
v 0.261279 0.196954 0.528906
v 0.183909 0.188869 -0.216057
v 0.163483 0.170611 0.100937
v 0.663982 0.443428 -0.125869
v 0.724815 0.426765 -0.033398
v 0.478443 0.414989 0.463685
v 0.335158 0.417641 0.511629
v 0.757889 0.434544 0.174982
v 0.637460 0.160605 -0.098409
v 0.290646 0.143976 -0.183754
v 0.227051 0.269774 0.685000
v 0.316038 0.321868 0.704557
v 0.361574 0.179482 -0.265885
v 0.281256 0.213263 -0.290192
v 0.295014 0.338859 -0.301888
v 0.642504 0.404816 -0.222326
v 0.783225 0.343355 -0.179464
v 0.718752 0.223609 -0.181248
v 0.622546 0.191995 -0.201663
vt 0.375000 0.546423
vt 0.403107 0.500000
vt 0.429868 0.500000
vt 0.429046 0.601953
vt 0.375000 0.601915
vt 0.818793 0.750000
vt 0.813544 0.694810
vt 0.848603 0.671941
vt 0.875000 0.693793
vt 0.375000 0.601915
vt 0.375000 0.546423
vt 0.568793 0.000000
vt 0.625000 0.943793
vt 0.375000 0.819510
vt 0.387547 0.775287
vt 0.423549 0.761941
vt 0.511139 0.798222
vt 0.625000 0.912083
vt 0.568793 1.000000
vt 0.456211 1.000000
vt 0.375000 0.921291
vt 0.625000 0.500000
vt 0.625000 0.602090
vt 0.328577 0.500000
vt 0.685796 0.500000
vt 0.588489 0.326514
vt 0.717728 0.382731
vt 0.681217 0.419242
vt 0.511975 0.250000
vt 0.625000 0.136975
vt 0.375000 0.297125
vt 0.416875 0.250000
vt 0.375000 0.453577
vt 0.375000 0.680490
vt 0.385927 0.719017
vt 0.787083 0.750000
vt 0.559361 0.750000
vt 0.521769 0.696297
vt 0.625000 0.602097
vt 0.427532 0.736129
vt 0.435490 0.750000
vt 0.203709 0.750000
vt 0.375000 0.078709
vt 0.125000 0.541882
vt 0.456211 0.000000
vt 0.625000 0.056207
vt 0.375000 0.208118
vt 0.803073 0.584736
vt 0.798486 0.536511
vt 0.875000 0.613025
vt 0.751577 0.627236
vt 0.125000 0.541882
vt 0.172125 0.500000
vt 0.328577 0.500000
vt 0.375000 0.680490
vt 0.305490 0.750000
vt 0.203709 0.750000
vt 0.125000 0.671291
vt 0.375000 0.921291
vt 0.375000 0.819510
vt 0.375000 0.453577
vt 0.375000 0.297125
vt 0.375000 0.078709
vt 0.375000 0.208118
vn -0.1810 0.9666 -0.1812
vn 0.2371 -0.7737 0.5874
vn -0.1035 0.8895 -0.4451
vn 0.2936 -0.8406 0.4552
vn 0.8856 -0.3591 0.2945
vn -0.2843 0.9506 0.1245
vn -0.3343 0.8795 -0.3387
vn -0.8004 0.4544 0.3910
vn -0.3984 -0.8872 0.2325
vn -0.9834 0.1471 -0.1063
vn 0.4107 0.8942 -0.1779
vn 0.1635 0.9144 0.3703
vn 0.0300 0.9987 0.0405
vn 0.2173 0.9364 0.2756
vn 0.3285 0.9392 -0.0999
vn 0.3207 -0.9460 -0.0465
vn -0.3666 -0.9272 -0.0770
vn 0.0028 -0.9978 0.0660
vn -0.3383 -0.8792 0.3356
vn -0.4616 0.7614 0.4553
vn -0.2756 -0.0082 0.9613
vn 0.0914 0.8556 0.5095
vn 0.2426 -0.1163 -0.9631
vn 0.8015 -0.4253 -0.4205
vn -0.6046 -0.0079 -0.7965
vn -0.2602 0.8026 -0.5368
vn 0.3563 -0.8784 -0.3185
vn 0.4674 0.7799 -0.4163
vn -0.1907 -0.8303 -0.5237
vn 0.1203 -0.9449 -0.3046
vn 0.0883 0.9178 -0.3871
usemtl None
s 1
f 48/26/33 49/27/33 50/28/33 51/29/33 52/30/33
f 53/31/34 54/32/34 55/33/34 56/34/34
f 48/26/35 52/30/35 57/35/35 58/36/35
f 59/37/36 53/38/36 56/34/36
f 60/39/37 61/40/37 62/41/37 63/42/37 64/43/37 53/38/37 59/44/37 65/45/37 66/46/37
f 51/29/38 50/28/38 67/47/38 68/48/38
f 69/49/39 49/27/39 48/26/39
f 67/50/40 70/51/40 71/52/40
f 71/52/41 70/53/41 72/54/41 73/55/41
f 74/56/42 75/57/42 72/54/42 70/51/42 67/47/42 50/28/42 49/27/42 69/58/42
f 60/39/43 76/59/43 77/60/43 61/40/43
f 64/61/44 63/62/44 78/63/44 79/64/44
f 52/30/45 51/29/45 68/48/45 79/64/45 78/63/45 80/65/45 77/60/45 76/59/45
f 62/66/46 80/65/46 78/63/46 63/62/46
f 61/40/47 77/60/47 80/65/47 62/66/47
f 66/67/48 65/45/48 81/68/48
f 75/57/49 74/56/49 82/69/49
f 81/68/50 65/70/50 59/37/50 56/71/50 73/55/50 72/54/50 75/57/50 82/72/50
f 56/34/51 55/33/51 83/73/51 71/74/51 73/75/51
f 67/50/52 71/74/52 83/73/52 84/76/52 68/48/52
f 54/32/53 84/76/53 83/73/53 55/33/53
f 68/48/54 84/76/54 54/32/54 53/31/54 64/61/54 79/64/54
f 85/77/55 86/78/55 87/79/55 58/36/55 57/35/55 88/80/55 89/81/55 90/82/55 91/83/55
f 60/39/56 66/46/56 90/84/56 89/85/56
f 74/56/57 69/58/57 87/86/57 86/87/57
f 69/49/58 48/26/58 58/36/58 87/79/58
f 66/67/59 81/68/59 91/88/59 90/82/59
f 76/59/60 60/39/60 89/85/60 88/80/60
f 82/69/61 74/56/61 86/87/61 85/77/61
f 81/68/62 82/72/62 85/89/62 91/88/62
f 52/30/63 76/59/63 88/80/63 57/35/63
