# Blender v2.91.0 OBJ File: 'drzewo_3.blend'
# www.blender.org
mtllib tile_6.mtl
o Cube.470_Cube.471
v -1.998858 2.390485 0.000647
v 1.998858 2.390485 0.000647
v 1.998858 -1.607231 0.000647
v -1.998858 -1.607231 0.000647
v 0.000000 -1.607231 0.000647
v 0.000000 2.390485 0.000647
v 1.998858 0.391627 0.000647
v -1.998858 0.391627 0.000647
v 0.000000 0.391627 0.664630
v -0.999429 -1.607231 0.000647
v 0.999429 2.390485 0.000647
v 1.998858 -0.607803 0.000647
v -1.998858 -0.607803 0.000647
v 0.999429 -1.607231 0.000647
v -0.999429 2.390485 0.000647
v 1.998858 1.391055 0.000647
v -1.998858 1.391055 0.000647
v 0.000000 -0.607802 0.375942
v 0.000000 1.391056 0.915859
v -0.999429 0.391627 0.993351
v 0.999429 0.391627 0.203345
v 0.999429 1.391056 0.203345
v -0.999429 1.391056 1.084454
v -0.999429 -0.607802 0.375942
v 0.999429 -0.607803 0.000647
vt 0.812500 0.687500
vt 0.875000 0.687500
vt 0.875000 0.750000
vt 0.812500 0.750000
vt 0.687500 0.687500
vt 0.750000 0.687500
vt 0.750000 0.750000
vt 0.687500 0.750000
vt 0.687500 0.562500
vt 0.750000 0.562500
vt 0.750000 0.625000
vt 0.687500 0.625000
vt 0.812500 0.562500
vt 0.875000 0.562500
vt 0.875000 0.625000
vt 0.812500 0.625000
vt 0.750000 0.500000
vt 0.812500 0.500000
vt 0.875000 0.500000
vt 0.625000 0.562500
vt 0.625000 0.625000
vt 0.625000 0.500000
vt 0.687500 0.500000
vt 0.625000 0.687500
vt 0.625000 0.750000
vn 0.0000 0.0000 -1.0000
vn 0.0000 0.3515 -0.9362
vn -0.2382 0.1639 -0.9573
vn -0.1988 0.0000 -0.9800
vn -0.5034 0.1077 -0.8573
vn -0.2971 -0.4661 -0.8334
vn -0.1004 -0.1004 -0.9899
vn 0.7201 0.0316 -0.6932
vn 0.4303 -0.4303 -0.7936
vn -0.0595 -0.7059 -0.7058
vn 0.1815 0.1815 -0.9665
vn 0.5473 0.2470 -0.7997
vn -0.1481 0.4083 -0.9007
vn -0.1815 0.1815 -0.9665
vn -0.3765 0.2212 -0.8996
vn -0.1004 0.1004 -0.9899
usemtl Material
s off
f 25/1/1 12/2/1 3/3/1 14/4/1
f 24/5/2 18/6/2 5/7/2 10/8/2
f 23/9/3 19/10/3 9/11/3 20/12/3
f 22/13/4 16/14/4 7/15/4 21/16/4
f 19/10/5 22/13/5 21/16/5 9/11/5
f 6/17/6 11/18/6 22/13/6 19/10/6
f 11/18/7 2/19/7 16/14/7 22/13/7
f 17/20/8 23/9/8 20/12/8 8/21/8
f 1/22/9 15/23/9 23/9/9 17/20/9
f 15/23/10 6/17/10 19/10/10 23/9/10
f 13/24/11 24/5/11 10/8/11 4/25/11
f 8/21/12 20/12/12 24/5/12 13/24/12
f 20/12/13 9/11/13 18/6/13 24/5/13
f 18/6/14 25/1/14 14/4/14 5/7/14
f 9/11/15 21/16/15 25/1/15 18/6/15
f 21/16/16 7/15/16 12/2/16 25/1/16
