# MagicaVoxel @ Ephtracy

# group
o 

# material
mtllib autobus.mtl
usemtl palette

# normals
vn -1 0 0
vn 1 0 0
vn 0 0 1
vn 0 0 -1
vn 0 -1 0
vn 0 1 0

# texcoords
vt 0.00195313 0.5
vt 0.0410156 0.5
vt 0.697266 0.5
vt 0.990234 0.5
vt 0.994141 0.5

# verts
v 1.6 2.1 -0.1
v 1.6 2.1 -0.3
v 1.6 2.1 -0.7
v 1.6 2.1 -0.9
v 1.6 2.2 -0.1
v 1.6 2.2 -0.2
v 1.6 2.2 -0.8
v 1.6 2.2 -0.9
v 1.6 2.3 -0.1
v 1.6 2.3 -0.2
v 1.6 2.3 -0.3
v 1.6 2.3 -0.7
v 1.6 2.3 -0.8
v 1.6 2.3 -0.9
v 1.6 2.5 -0.2
v 1.6 2.5 -0.8
v 1.6 2.9 -0.2
v 1.6 2.9 -0.8
v 1.6 3 -0.1
v 1.6 3 -0.9
v 1.8 2.1 0
v 1.8 2.1 -0.1
v 1.8 2.1 -0.9
v 1.8 2.1 -1
v 1.8 2.2 0
v 1.8 2.2 -0.1
v 1.8 2.2 -0.9
v 1.8 2.2 -1
v 1.9 2 0
v 1.9 2 -0.3
v 1.9 2 -0.7
v 1.9 2 -1
v 1.9 2.1 0
v 1.9 2.1 -0.3
v 1.9 2.1 -0.7
v 1.9 2.1 -1
v 1.9 2.2 0
v 1.9 2.2 -0.1
v 1.9 2.2 -0.9
v 1.9 2.2 -1
v 1.9 2.3 0
v 1.9 2.3 -0.1
v 1.9 2.3 -0.9
v 1.9 2.3 -1
v 2.7 2.1 0
v 2.7 2.1 -0.1
v 2.7 2.2 0
v 2.7 2.2 -0.1
v 2.8 2 0
v 2.8 2 -0.3
v 2.8 2.1 0
v 2.8 2.1 -0.3
v 2.8 2.1 -0.9
v 2.8 2.1 -1
v 2.8 2.2 0
v 2.8 2.2 -0.1
v 2.8 2.2 -0.9
v 2.8 2.2 -1
v 2.8 2.3 0
v 2.8 2.3 -0.1
v 2.9 2 -0.7
v 2.9 2 -1
v 2.9 2.1 -0.7
v 2.9 2.1 -1
v 2.9 2.2 -0.9
v 2.9 2.2 -1
v 2.9 2.3 -0.9
v 2.9 2.3 -1
v 3.9 2.1 0
v 3.9 2.1 -0.1
v 3.9 2.1 -0.9
v 3.9 2.1 -1
v 3.9 2.2 0
v 3.9 2.2 -0.1
v 3.9 2.2 -0.9
v 3.9 2.2 -1
v 4 2 0
v 4 2 -0.3
v 4 2 -0.7
v 4 2 -1
v 4 2.1 0
v 4 2.1 -0.3
v 4 2.1 -0.7
v 4 2.1 -1
v 4 2.2 0
v 4 2.2 -0.1
v 4 2.2 -0.9
v 4 2.2 -1
v 4 2.3 0
v 4 2.3 -0.1
v 4 2.3 -0.9
v 4 2.3 -1
v 2 2 0
v 2 2 -0.3
v 2 2 -0.7
v 2 2 -1
v 2 2.1 0
v 2 2.1 -0.3
v 2 2.1 -0.7
v 2 2.1 -1
v 2 2.2 0
v 2 2.2 -0.1
v 2 2.2 -0.9
v 2 2.2 -1
v 2 2.3 0
v 2 2.3 -0.1
v 2 2.3 -0.9
v 2 2.3 -1
v 2.1 2.1 0
v 2.1 2.1 -0.1
v 2.1 2.1 -0.9
v 2.1 2.1 -1
v 2.1 2.2 0
v 2.1 2.2 -0.1
v 2.1 2.2 -0.9
v 2.1 2.2 -1
v 2.9 2 0
v 2.9 2 -0.3
v 2.9 2.1 0
v 2.9 2.1 -0.3
v 2.9 2.2 0
v 2.9 2.2 -0.1
v 2.9 2.3 0
v 2.9 2.3 -0.1
v 3 2 -0.7
v 3 2 -1
v 3 2.1 0
v 3 2.1 -0.1
v 3 2.1 -0.7
v 3 2.1 -1
v 3 2.2 0
v 3 2.2 -0.1
v 3 2.2 -0.9
v 3 2.2 -1
v 3 2.3 -0.9
v 3 2.3 -1
v 3.1 2.1 -0.9
v 3.1 2.1 -1
v 3.1 2.2 -0.9
v 3.1 2.2 -1
v 4.1 2 0
v 4.1 2 -0.3
v 4.1 2 -0.7
v 4.1 2 -1
v 4.1 2.1 0
v 4.1 2.1 -0.3
v 4.1 2.1 -0.7
v 4.1 2.1 -1
v 4.1 2.2 0
v 4.1 2.2 -0.1
v 4.1 2.2 -0.9
v 4.1 2.2 -1
v 4.1 2.3 0
v 4.1 2.3 -0.1
v 4.1 2.3 -0.9
v 4.1 2.3 -1
v 4.2 2.1 0
v 4.2 2.1 -0.1
v 4.2 2.1 -0.9
v 4.2 2.1 -1
v 4.2 2.2 0
v 4.2 2.2 -0.1
v 4.2 2.2 -0.9
v 4.2 2.2 -1
v 4.3 2.1 -0.1
v 4.3 2.1 -0.3
v 4.3 2.1 -0.7
v 4.3 2.1 -0.9
v 4.3 2.2 -0.3
v 4.3 2.2 -0.7
v 4.3 2.6 -0.2
v 4.3 2.6 -0.8
v 4.3 2.9 -0.2
v 4.3 2.9 -0.8
v 4.3 3 -0.1
v 4.3 3 -0.9
v 1.8 2.1 0
v 1.8 2.2 0
v 1.9 2 0
v 1.9 2.1 0
v 1.9 2.2 0
v 1.9 2.3 0
v 2 2 0
v 2 2.1 0
v 2 2.2 0
v 2 2.3 0
v 2.1 2.1 0
v 2.1 2.2 0
v 2.7 2.1 0
v 2.7 2.2 0
v 2.8 2 0
v 2.8 2.1 0
v 2.8 2.2 0
v 2.8 2.3 0
v 2.9 2 0
v 2.9 2.1 0
v 2.9 2.2 0
v 2.9 2.3 0
v 3 2.1 0
v 3 2.2 0
v 3.9 2.1 0
v 3.9 2.2 0
v 4 2 0
v 4 2.1 0
v 4 2.2 0
v 4 2.3 0
v 4.1 2 0
v 4.1 2.1 0
v 4.1 2.2 0
v 4.1 2.3 0
v 4.2 2.1 0
v 4.2 2.2 0
v 1.6 2.1 -0.1
v 1.6 2.2 -0.1
v 1.6 2.3 -0.1
v 1.6 3 -0.1
v 1.7 2.2 -0.1
v 1.7 2.3 -0.1
v 1.7 2.5 -0.1
v 1.7 2.9 -0.1
v 1.8 2.1 -0.1
v 1.8 2.2 -0.1
v 1.9 2.2 -0.1
v 1.9 2.3 -0.1
v 2 2.2 -0.1
v 2 2.3 -0.1
v 2.1 2.1 -0.1
v 2.1 2.2 -0.1
v 2.4 2.5 -0.1
v 2.4 2.9 -0.1
v 2.5 2.5 -0.1
v 2.5 2.9 -0.1
v 2.7 2.1 -0.1
v 2.7 2.2 -0.1
v 2.8 2.2 -0.1
v 2.8 2.3 -0.1
v 2.9 2.2 -0.1
v 2.9 2.3 -0.1
v 3 2.1 -0.1
v 3 2.2 -0.1
v 3.3 2.5 -0.1
v 3.3 2.9 -0.1
v 3.4 2.5 -0.1
v 3.4 2.9 -0.1
v 3.9 2.1 -0.1
v 3.9 2.2 -0.1
v 4 2.2 -0.1
v 4 2.3 -0.1
v 4.1 2.2 -0.1
v 4.1 2.3 -0.1
v 4.2 2.1 -0.1
v 4.2 2.2 -0.1
v 4.2 2.5 -0.1
v 4.2 2.9 -0.1
v 4.3 2.1 -0.1
v 4.3 3 -0.1
v 1.9 2 -0.7
v 1.9 2.1 -0.7
v 2 2 -0.7
v 2 2.1 -0.7
v 2.9 2 -0.7
v 2.9 2.1 -0.7
v 3 2 -0.7
v 3 2.1 -0.7
v 4 2 -0.7
v 4 2.1 -0.7
v 4.1 2 -0.7
v 4.1 2.1 -0.7
v 1.9 2 -0.3
v 1.9 2.1 -0.3
v 2 2 -0.3
v 2 2.1 -0.3
v 2.8 2 -0.3
v 2.8 2.1 -0.3
v 2.9 2 -0.3
v 2.9 2.1 -0.3
v 4 2 -0.3
v 4 2.1 -0.3
v 4.1 2 -0.3
v 4.1 2.1 -0.3
v 1.6 2.1 -0.9
v 1.6 2.2 -0.9
v 1.6 2.3 -0.9
v 1.6 3 -0.9
v 1.7 2.2 -0.9
v 1.7 2.3 -0.9
v 1.7 2.5 -0.9
v 1.7 2.9 -0.9
v 1.8 2.1 -0.9
v 1.8 2.2 -0.9
v 1.9 2.2 -0.9
v 1.9 2.3 -0.9
v 2 2.2 -0.9
v 2 2.3 -0.9
v 2.1 2.1 -0.9
v 2.1 2.2 -0.9
v 2.4 2.5 -0.9
v 2.4 2.9 -0.9
v 2.5 2.5 -0.9
v 2.5 2.9 -0.9
v 2.8 2.1 -0.9
v 2.8 2.2 -0.9
v 2.9 2.2 -0.9
v 2.9 2.3 -0.9
v 3 2.2 -0.9
v 3 2.3 -0.9
v 3.1 2.1 -0.9
v 3.1 2.2 -0.9
v 3.3 2.5 -0.9
v 3.3 2.9 -0.9
v 3.4 2.5 -0.9
v 3.4 2.9 -0.9
v 3.9 2.1 -0.9
v 3.9 2.2 -0.9
v 4 2.2 -0.9
v 4 2.3 -0.9
v 4.1 2.2 -0.9
v 4.1 2.3 -0.9
v 4.2 2.1 -0.9
v 4.2 2.2 -0.9
v 4.2 2.5 -0.9
v 4.2 2.9 -0.9
v 4.3 2.1 -0.9
v 4.3 3 -0.9
v 1.8 2.1 -1
v 1.8 2.2 -1
v 1.9 2 -1
v 1.9 2.1 -1
v 1.9 2.2 -1
v 1.9 2.3 -1
v 2 2 -1
v 2 2.1 -1
v 2 2.2 -1
v 2 2.3 -1
v 2.1 2.1 -1
v 2.1 2.2 -1
v 2.8 2.1 -1
v 2.8 2.2 -1
v 2.9 2 -1
v 2.9 2.1 -1
v 2.9 2.2 -1
v 2.9 2.3 -1
v 3 2 -1
v 3 2.1 -1
v 3 2.2 -1
v 3 2.3 -1
v 3.1 2.1 -1
v 3.1 2.2 -1
v 3.9 2.1 -1
v 3.9 2.2 -1
v 4 2 -1
v 4 2.1 -1
v 4 2.2 -1
v 4 2.3 -1
v 4.1 2 -1
v 4.1 2.1 -1
v 4.1 2.2 -1
v 4.1 2.3 -1
v 4.2 2.1 -1
v 4.2 2.2 -1
v 1.9 2 0
v 2 2 0
v 2.8 2 0
v 2.9 2 0
v 4 2 0
v 4.1 2 0
v 1.9 2 -0.3
v 2 2 -0.3
v 2.8 2 -0.3
v 2.9 2 -0.3
v 4 2 -0.3
v 4.1 2 -0.3
v 1.9 2 -0.7
v 2 2 -0.7
v 2.9 2 -0.7
v 3 2 -0.7
v 4 2 -0.7
v 4.1 2 -0.7
v 1.9 2 -1
v 2 2 -1
v 2.9 2 -1
v 3 2 -1
v 4 2 -1
v 4.1 2 -1
v 1.8 2.1 0
v 1.9 2.1 0
v 2 2.1 0
v 2.1 2.1 0
v 2.7 2.1 0
v 2.8 2.1 0
v 2.9 2.1 0
v 3 2.1 0
v 3.9 2.1 0
v 4 2.1 0
v 4.1 2.1 0
v 4.2 2.1 0
v 1.6 2.1 -0.1
v 1.8 2.1 -0.1
v 2.1 2.1 -0.1
v 2.7 2.1 -0.1
v 3 2.1 -0.1
v 3.9 2.1 -0.1
v 4.2 2.1 -0.1
v 4.3 2.1 -0.1
v 1.6 2.1 -0.3
v 1.7 2.1 -0.3
v 1.8 2.1 -0.3
v 1.9 2.1 -0.3
v 2 2.1 -0.3
v 2.1 2.1 -0.3
v 2.7 2.1 -0.3
v 2.8 2.1 -0.3
v 2.9 2.1 -0.3
v 3 2.1 -0.3
v 3.9 2.1 -0.3
v 4 2.1 -0.3
v 4.1 2.1 -0.3
v 4.2 2.1 -0.3
v 4.3 2.1 -0.3
v 1.6 2.1 -0.7
v 1.7 2.1 -0.7
v 1.8 2.1 -0.7
v 1.9 2.1 -0.7
v 2 2.1 -0.7
v 2.1 2.1 -0.7
v 2.8 2.1 -0.7
v 2.9 2.1 -0.7
v 3 2.1 -0.7
v 3.1 2.1 -0.7
v 3.9 2.1 -0.7
v 4 2.1 -0.7
v 4.1 2.1 -0.7
v 4.2 2.1 -0.7
v 4.3 2.1 -0.7
v 1.6 2.1 -0.9
v 1.8 2.1 -0.9
v 2.1 2.1 -0.9
v 2.8 2.1 -0.9
v 3.1 2.1 -0.9
v 3.9 2.1 -0.9
v 4.2 2.1 -0.9
v 4.3 2.1 -0.9
v 1.8 2.1 -1
v 1.9 2.1 -1
v 2 2.1 -1
v 2.1 2.1 -1
v 2.8 2.1 -1
v 2.9 2.1 -1
v 3 2.1 -1
v 3.1 2.1 -1
v 3.9 2.1 -1
v 4 2.1 -1
v 4.1 2.1 -1
v 4.2 2.1 -1
v 1.8 2.2 0
v 1.9 2.2 0
v 2 2.2 0
v 2.1 2.2 0
v 2.7 2.2 0
v 2.8 2.2 0
v 2.9 2.2 0
v 3 2.2 0
v 3.9 2.2 0
v 4 2.2 0
v 4.1 2.2 0
v 4.2 2.2 0
v 1.8 2.2 -0.1
v 1.9 2.2 -0.1
v 2 2.2 -0.1
v 2.1 2.2 -0.1
v 2.7 2.2 -0.1
v 2.8 2.2 -0.1
v 2.9 2.2 -0.1
v 3 2.2 -0.1
v 3.9 2.2 -0.1
v 4 2.2 -0.1
v 4.1 2.2 -0.1
v 4.2 2.2 -0.1
v 1.8 2.2 -0.9
v 1.9 2.2 -0.9
v 2 2.2 -0.9
v 2.1 2.2 -0.9
v 2.8 2.2 -0.9
v 2.9 2.2 -0.9
v 3 2.2 -0.9
v 3.1 2.2 -0.9
v 3.9 2.2 -0.9
v 4 2.2 -0.9
v 4.1 2.2 -0.9
v 4.2 2.2 -0.9
v 1.8 2.2 -1
v 1.9 2.2 -1
v 2 2.2 -1
v 2.1 2.2 -1
v 2.8 2.2 -1
v 2.9 2.2 -1
v 3 2.2 -1
v 3.1 2.2 -1
v 3.9 2.2 -1
v 4 2.2 -1
v 4.1 2.2 -1
v 4.2 2.2 -1
v 1.9 2.3 0
v 2 2.3 0
v 2.8 2.3 0
v 2.9 2.3 0
v 4 2.3 0
v 4.1 2.3 0
v 1.9 2.3 -0.1
v 2 2.3 -0.1
v 2.8 2.3 -0.1
v 2.9 2.3 -0.1
v 4 2.3 -0.1
v 4.1 2.3 -0.1
v 1.9 2.3 -0.9
v 2 2.3 -0.9
v 2.9 2.3 -0.9
v 3 2.3 -0.9
v 4 2.3 -0.9
v 4.1 2.3 -0.9
v 1.9 2.3 -1
v 2 2.3 -1
v 2.9 2.3 -1
v 3 2.3 -1
v 4 2.3 -1
v 4.1 2.3 -1
v 1.6 3 -0.1
v 4.3 3 -0.1
v 1.6 3 -0.9
v 4.3 3 -0.9

# faces
f 5/2/1 2/2/1 1/2/1
f 6/2/1 2/2/1 5/2/1
f 7/2/1 4/2/1 3/2/1
f 8/2/1 4/2/1 7/2/1
f 9/1/1 6/1/1 5/1/1
f 10/2/1 2/2/1 6/2/1
f 10/1/1 6/1/1 9/1/1
f 11/4/1 3/4/1 2/4/1
f 11/2/1 2/2/1 10/2/1
f 12/2/1 7/2/1 3/2/1
f 12/4/1 3/4/1 11/4/1
f 13/1/1 8/1/1 7/1/1
f 13/2/1 7/2/1 12/2/1
f 14/1/1 8/1/1 13/1/1
f 15/2/1 10/2/1 9/2/1
f 15/2/1 11/2/1 10/2/1
f 15/2/1 14/2/1 13/2/1
f 15/2/1 13/2/1 12/2/1
f 15/2/1 12/2/1 11/2/1
f 16/2/1 14/2/1 15/2/1
f 17/2/1 15/2/1 9/2/1
f 17/3/1 16/3/1 15/3/1
f 18/2/1 14/2/1 16/2/1
f 18/3/1 16/3/1 17/3/1
f 19/2/1 17/2/1 9/2/1
f 19/2/1 18/2/1 17/2/1
f 20/2/1 14/2/1 18/2/1
f 20/2/1 18/2/1 19/2/1
f 25/5/1 22/5/1 21/5/1
f 26/5/1 22/5/1 25/5/1
f 27/5/1 24/5/1 23/5/1
f 28/5/1 24/5/1 27/5/1
f 33/5/1 30/5/1 29/5/1
f 34/5/1 30/5/1 33/5/1
f 35/5/1 32/5/1 31/5/1
f 36/5/1 32/5/1 35/5/1
f 41/5/1 38/5/1 37/5/1
f 42/5/1 38/5/1 41/5/1
f 43/5/1 40/5/1 39/5/1
f 44/5/1 40/5/1 43/5/1
f 47/5/1 46/5/1 45/5/1
f 48/5/1 46/5/1 47/5/1
f 51/5/1 50/5/1 49/5/1
f 52/5/1 50/5/1 51/5/1
f 57/5/1 54/5/1 53/5/1
f 58/5/1 54/5/1 57/5/1
f 59/5/1 56/5/1 55/5/1
f 60/5/1 56/5/1 59/5/1
f 63/5/1 62/5/1 61/5/1
f 64/5/1 62/5/1 63/5/1
f 67/5/1 66/5/1 65/5/1
f 68/5/1 66/5/1 67/5/1
f 73/5/1 70/5/1 69/5/1
f 74/5/1 70/5/1 73/5/1
f 75/5/1 72/5/1 71/5/1
f 76/5/1 72/5/1 75/5/1
f 81/5/1 78/5/1 77/5/1
f 82/5/1 78/5/1 81/5/1
f 83/5/1 80/5/1 79/5/1
f 84/5/1 80/5/1 83/5/1
f 89/5/1 86/5/1 85/5/1
f 90/5/1 86/5/1 89/5/1
f 91/5/1 88/5/1 87/5/1
f 92/5/1 88/5/1 91/5/1
f 93/5/2 94/5/2 97/5/2
f 97/5/2 94/5/2 98/5/2
f 95/5/2 96/5/2 99/5/2
f 99/5/2 96/5/2 100/5/2
f 101/5/2 102/5/2 105/5/2
f 105/5/2 102/5/2 106/5/2
f 103/5/2 104/5/2 107/5/2
f 107/5/2 104/5/2 108/5/2
f 109/5/2 110/5/2 113/5/2
f 113/5/2 110/5/2 114/5/2
f 111/5/2 112/5/2 115/5/2
f 115/5/2 112/5/2 116/5/2
f 117/5/2 118/5/2 119/5/2
f 119/5/2 118/5/2 120/5/2
f 121/5/2 122/5/2 123/5/2
f 123/5/2 122/5/2 124/5/2
f 125/5/2 126/5/2 129/5/2
f 129/5/2 126/5/2 130/5/2
f 127/5/2 128/5/2 131/5/2
f 131/5/2 128/5/2 132/5/2
f 133/5/2 134/5/2 135/5/2
f 135/5/2 134/5/2 136/5/2
f 137/5/2 138/5/2 139/5/2
f 139/5/2 138/5/2 140/5/2
f 141/5/2 142/5/2 145/5/2
f 145/5/2 142/5/2 146/5/2
f 143/5/2 144/5/2 147/5/2
f 147/5/2 144/5/2 148/5/2
f 149/5/2 150/5/2 153/5/2
f 153/5/2 150/5/2 154/5/2
f 151/5/2 152/5/2 155/5/2
f 155/5/2 152/5/2 156/5/2
f 157/5/2 158/5/2 161/5/2
f 161/5/2 158/5/2 162/5/2
f 159/5/2 160/5/2 163/5/2
f 163/5/2 160/5/2 164/5/2
f 165/2/2 166/2/2 169/2/2
f 166/1/2 167/1/2 169/1/2
f 167/2/2 168/2/2 170/2/2
f 169/1/2 167/1/2 170/1/2
f 165/2/2 169/2/2 171/2/2
f 169/2/2 170/2/2 171/2/2
f 170/2/2 168/2/2 172/2/2
f 171/2/2 170/2/2 172/2/2
f 165/2/2 171/2/2 173/2/2
f 171/3/2 172/3/2 173/3/2
f 172/2/2 168/2/2 174/2/2
f 173/3/2 172/3/2 174/3/2
f 165/2/2 173/2/2 175/2/2
f 173/2/2 174/2/2 175/2/2
f 174/2/2 168/2/2 176/2/2
f 175/2/2 174/2/2 176/2/2
f 180/5/3 178/5/3 177/5/3
f 181/5/3 178/5/3 180/5/3
f 183/5/3 180/5/3 179/5/3
f 183/5/3 182/5/3 181/5/3
f 183/5/3 181/5/3 180/5/3
f 184/5/3 182/5/3 183/5/3
f 185/5/3 182/5/3 184/5/3
f 186/5/3 182/5/3 185/5/3
f 187/5/3 185/5/3 184/5/3
f 188/5/3 185/5/3 187/5/3
f 192/5/3 190/5/3 189/5/3
f 193/5/3 190/5/3 192/5/3
f 195/5/3 193/5/3 192/5/3
f 195/5/3 194/5/3 193/5/3
f 195/5/3 192/5/3 191/5/3
f 196/5/3 194/5/3 195/5/3
f 197/5/3 194/5/3 196/5/3
f 198/5/3 194/5/3 197/5/3
f 199/5/3 197/5/3 196/5/3
f 200/5/3 197/5/3 199/5/3
f 204/5/3 202/5/3 201/5/3
f 205/5/3 202/5/3 204/5/3
f 207/5/3 205/5/3 204/5/3
f 207/5/3 206/5/3 205/5/3
f 207/5/3 204/5/3 203/5/3
f 208/5/3 206/5/3 207/5/3
f 209/5/3 206/5/3 208/5/3
f 210/5/3 206/5/3 209/5/3
f 211/5/3 209/5/3 208/5/3
f 212/5/3 209/5/3 211/5/3
f 217/2/3 214/2/3 213/2/3
f 217/1/3 215/1/3 214/1/3
f 218/2/3 216/2/3 215/2/3
f 218/1/3 215/1/3 217/1/3
f 219/2/3 216/2/3 218/2/3
f 220/2/3 216/2/3 219/2/3
f 221/2/3 217/2/3 213/2/3
f 221/2/3 218/2/3 217/2/3
f 221/2/3 219/2/3 218/2/3
f 222/2/3 219/2/3 221/2/3
f 223/2/3 219/2/3 222/2/3
f 224/2/3 219/2/3 223/2/3
f 226/2/3 219/2/3 224/2/3
f 228/2/3 226/2/3 225/2/3
f 229/3/3 220/3/3 219/3/3
f 229/2/3 228/2/3 227/2/3
f 229/2/3 226/2/3 228/2/3
f 229/2/3 219/2/3 226/2/3
f 230/2/3 216/2/3 220/2/3
f 230/3/3 220/3/3 229/3/3
f 231/2/3 229/2/3 227/2/3
f 231/2/3 230/2/3 229/2/3
f 232/2/3 216/2/3 230/2/3
f 232/2/3 230/2/3 231/2/3
f 233/2/3 231/2/3 227/2/3
f 234/2/3 231/2/3 233/2/3
f 235/2/3 231/2/3 234/2/3
f 236/2/3 231/2/3 235/2/3
f 238/2/3 231/2/3 236/2/3
f 240/2/3 238/2/3 237/2/3
f 241/3/3 232/3/3 231/3/3
f 241/2/3 240/2/3 239/2/3
f 241/2/3 238/2/3 240/2/3
f 241/2/3 231/2/3 238/2/3
f 242/2/3 216/2/3 232/2/3
f 242/3/3 232/3/3 241/3/3
f 243/2/3 241/2/3 239/2/3
f 243/2/3 242/2/3 241/2/3
f 244/2/3 216/2/3 242/2/3
f 244/2/3 242/2/3 243/2/3
f 245/2/3 243/2/3 239/2/3
f 246/2/3 243/2/3 245/2/3
f 247/2/3 243/2/3 246/2/3
f 248/2/3 243/2/3 247/2/3
f 250/2/3 243/2/3 248/2/3
f 252/2/3 250/2/3 249/2/3
f 253/3/3 244/3/3 243/3/3
f 253/2/3 243/2/3 250/2/3
f 253/2/3 250/2/3 252/2/3
f 254/2/3 216/2/3 244/2/3
f 254/3/3 244/3/3 253/3/3
f 255/2/3 253/2/3 252/2/3
f 255/2/3 252/2/3 251/2/3
f 255/2/3 254/2/3 253/2/3
f 256/2/3 216/2/3 254/2/3
f 256/2/3 254/2/3 255/2/3
f 259/5/3 258/5/3 257/5/3
f 260/5/3 258/5/3 259/5/3
f 263/5/3 262/5/3 261/5/3
f 264/5/3 262/5/3 263/5/3
f 267/5/3 266/5/3 265/5/3
f 268/5/3 266/5/3 267/5/3
f 269/5/4 270/5/4 271/5/4
f 271/5/4 270/5/4 272/5/4
f 273/5/4 274/5/4 275/5/4
f 275/5/4 274/5/4 276/5/4
f 277/5/4 278/5/4 279/5/4
f 279/5/4 278/5/4 280/5/4
f 281/2/4 282/2/4 285/2/4
f 282/1/4 283/1/4 285/1/4
f 283/2/4 284/2/4 286/2/4
f 285/1/4 283/1/4 286/1/4
f 286/2/4 284/2/4 287/2/4
f 287/2/4 284/2/4 288/2/4
f 281/2/4 285/2/4 289/2/4
f 285/2/4 286/2/4 289/2/4
f 286/2/4 287/2/4 289/2/4
f 289/2/4 287/2/4 290/2/4
f 290/2/4 287/2/4 291/2/4
f 291/2/4 287/2/4 292/2/4
f 292/2/4 287/2/4 294/2/4
f 293/2/4 294/2/4 296/2/4
f 287/3/4 288/3/4 297/3/4
f 295/2/4 296/2/4 297/2/4
f 296/2/4 294/2/4 297/2/4
f 294/2/4 287/2/4 297/2/4
f 288/2/4 284/2/4 298/2/4
f 297/3/4 288/3/4 298/3/4
f 295/2/4 297/2/4 299/2/4
f 297/2/4 298/2/4 299/2/4
f 298/2/4 284/2/4 300/2/4
f 299/2/4 298/2/4 300/2/4
f 295/2/4 299/2/4 301/2/4
f 301/2/4 299/2/4 302/2/4
f 302/2/4 299/2/4 303/2/4
f 303/2/4 299/2/4 304/2/4
f 304/2/4 299/2/4 306/2/4
f 305/2/4 306/2/4 308/2/4
f 299/3/4 300/3/4 309/3/4
f 307/2/4 308/2/4 309/2/4
f 308/2/4 306/2/4 309/2/4
f 306/2/4 299/2/4 309/2/4
f 300/2/4 284/2/4 310/2/4
f 309/3/4 300/3/4 310/3/4
f 307/2/4 309/2/4 311/2/4
f 309/2/4 310/2/4 311/2/4
f 310/2/4 284/2/4 312/2/4
f 311/2/4 310/2/4 312/2/4
f 307/2/4 311/2/4 313/2/4
f 313/2/4 311/2/4 314/2/4
f 314/2/4 311/2/4 315/2/4
f 315/2/4 311/2/4 316/2/4
f 316/2/4 311/2/4 318/2/4
f 317/2/4 318/2/4 320/2/4
f 311/3/4 312/3/4 321/3/4
f 318/2/4 311/2/4 321/2/4
f 320/2/4 318/2/4 321/2/4
f 312/2/4 284/2/4 322/2/4
f 321/3/4 312/3/4 322/3/4
f 320/2/4 321/2/4 323/2/4
f 319/2/4 320/2/4 323/2/4
f 321/2/4 322/2/4 323/2/4
f 322/2/4 284/2/4 324/2/4
f 323/2/4 322/2/4 324/2/4
f 325/5/4 326/5/4 328/5/4
f 328/5/4 326/5/4 329/5/4
f 327/5/4 328/5/4 331/5/4
f 329/5/4 330/5/4 331/5/4
f 328/5/4 329/5/4 331/5/4
f 331/5/4 330/5/4 332/5/4
f 332/5/4 330/5/4 333/5/4
f 333/5/4 330/5/4 334/5/4
f 332/5/4 333/5/4 335/5/4
f 335/5/4 333/5/4 336/5/4
f 337/5/4 338/5/4 340/5/4
f 340/5/4 338/5/4 341/5/4
f 340/5/4 341/5/4 343/5/4
f 341/5/4 342/5/4 343/5/4
f 339/5/4 340/5/4 343/5/4
f 343/5/4 342/5/4 344/5/4
f 344/5/4 342/5/4 345/5/4
f 345/5/4 342/5/4 346/5/4
f 344/5/4 345/5/4 347/5/4
f 347/5/4 345/5/4 348/5/4
f 349/5/4 350/5/4 352/5/4
f 352/5/4 350/5/4 353/5/4
f 352/5/4 353/5/4 355/5/4
f 353/5/4 354/5/4 355/5/4
f 351/5/4 352/5/4 355/5/4
f 355/5/4 354/5/4 356/5/4
f 356/5/4 354/5/4 357/5/4
f 357/5/4 354/5/4 358/5/4
f 356/5/4 357/5/4 359/5/4
f 359/5/4 357/5/4 360/5/4
f 367/5/5 362/5/5 361/5/5
f 368/5/5 362/5/5 367/5/5
f 369/5/5 364/5/5 363/5/5
f 370/5/5 364/5/5 369/5/5
f 371/5/5 366/5/5 365/5/5
f 372/5/5 366/5/5 371/5/5
f 379/5/5 374/5/5 373/5/5
f 380/5/5 374/5/5 379/5/5
f 381/5/5 376/5/5 375/5/5
f 382/5/5 376/5/5 381/5/5
f 383/5/5 378/5/5 377/5/5
f 384/5/5 378/5/5 383/5/5
f 398/5/5 386/5/5 385/5/5
f 399/5/5 388/5/5 387/5/5
f 400/5/5 390/5/5 389/5/5
f 401/5/5 392/5/5 391/5/5
f 402/5/5 394/5/5 393/5/5
f 403/5/5 396/5/5 395/5/5
f 405/2/5 398/2/5 397/2/5
f 406/2/5 398/2/5 405/2/5
f 407/5/5 386/5/5 398/5/5
f 407/2/5 398/2/5 406/2/5
f 408/5/5 386/5/5 407/5/5
f 409/5/5 399/5/5 387/5/5
f 410/2/5 400/2/5 399/2/5
f 410/5/5 399/5/5 409/5/5
f 411/5/5 390/5/5 400/5/5
f 411/2/5 400/2/5 410/2/5
f 412/5/5 390/5/5 411/5/5
f 413/5/5 401/5/5 391/5/5
f 414/2/5 402/2/5 401/2/5
f 414/5/5 401/5/5 413/5/5
f 415/5/5 394/5/5 402/5/5
f 415/2/5 402/2/5 414/2/5
f 416/5/5 394/5/5 415/5/5
f 417/5/5 403/5/5 395/5/5
f 418/2/5 404/2/5 403/2/5
f 418/5/5 403/5/5 417/5/5
f 419/2/5 404/2/5 418/2/5
f 420/4/5 406/4/5 405/4/5
f 421/2/5 413/2/5 412/2/5
f 421/4/5 406/4/5 420/4/5
f 421/2/5 417/2/5 416/2/5
f 421/2/5 408/2/5 407/2/5
f 421/2/5 418/2/5 417/2/5
f 421/2/5 409/2/5 408/2/5
f 421/2/5 415/2/5 414/2/5
f 421/2/5 412/2/5 411/2/5
f 421/2/5 411/2/5 410/2/5
f 421/2/5 410/2/5 409/2/5
f 421/2/5 407/2/5 406/2/5
f 421/2/5 414/2/5 413/2/5
f 421/2/5 416/2/5 415/2/5
f 422/2/5 418/2/5 421/2/5
f 423/2/5 418/2/5 422/2/5
f 424/2/5 418/2/5 423/2/5
f 425/2/5 418/2/5 424/2/5
f 426/2/5 418/2/5 425/2/5
f 427/2/5 418/2/5 426/2/5
f 428/2/5 418/2/5 427/2/5
f 429/2/5 418/2/5 428/2/5
f 430/2/5 418/2/5 429/2/5
f 431/2/5 418/2/5 430/2/5
f 432/2/5 418/2/5 431/2/5
f 433/1/5 419/1/5 418/1/5
f 433/2/5 418/2/5 432/2/5
f 434/1/5 419/1/5 433/1/5
f 435/2/5 421/2/5 420/2/5
f 435/2/5 422/2/5 421/2/5
f 436/5/5 423/5/5 422/5/5
f 436/2/5 422/2/5 435/2/5
f 437/5/5 425/5/5 424/5/5
f 437/2/5 426/2/5 425/2/5
f 438/5/5 427/5/5 426/5/5
f 438/2/5 426/2/5 437/2/5
f 439/2/5 430/2/5 429/2/5
f 439/5/5 429/5/5 428/5/5
f 440/5/5 431/5/5 430/5/5
f 440/2/5 430/2/5 439/2/5
f 441/2/5 434/2/5 433/2/5
f 441/5/5 433/5/5 432/5/5
f 442/2/5 434/2/5 441/2/5
f 443/5/5 423/5/5 436/5/5
f 444/5/5 423/5/5 443/5/5
f 445/5/5 437/5/5 424/5/5
f 446/5/5 437/5/5 445/5/5
f 447/5/5 427/5/5 438/5/5
f 448/5/5 427/5/5 447/5/5
f 449/5/5 439/5/5 428/5/5
f 450/5/5 439/5/5 449/5/5
f 451/5/5 431/5/5 440/5/5
f 452/5/5 431/5/5 451/5/5
f 453/5/5 441/5/5 432/5/5
f 454/5/5 441/5/5 453/5/5
f 455/5/6 456/5/6 467/5/6
f 467/5/6 456/5/6 468/5/6
f 457/5/6 458/5/6 469/5/6
f 469/5/6 458/5/6 470/5/6
f 459/5/6 460/5/6 471/5/6
f 471/5/6 460/5/6 472/5/6
f 461/5/6 462/5/6 473/5/6
f 473/5/6 462/5/6 474/5/6
f 463/5/6 464/5/6 475/5/6
f 475/5/6 464/5/6 476/5/6
f 465/5/6 466/5/6 477/5/6
f 477/5/6 466/5/6 478/5/6
f 479/5/6 480/5/6 491/5/6
f 491/5/6 480/5/6 492/5/6
f 481/5/6 482/5/6 493/5/6
f 493/5/6 482/5/6 494/5/6
f 483/5/6 484/5/6 495/5/6
f 495/5/6 484/5/6 496/5/6
f 485/5/6 486/5/6 497/5/6
f 497/5/6 486/5/6 498/5/6
f 487/5/6 488/5/6 499/5/6
f 499/5/6 488/5/6 500/5/6
f 489/5/6 490/5/6 501/5/6
f 501/5/6 490/5/6 502/5/6
f 503/5/6 504/5/6 509/5/6
f 509/5/6 504/5/6 510/5/6
f 505/5/6 506/5/6 511/5/6
f 511/5/6 506/5/6 512/5/6
f 507/5/6 508/5/6 513/5/6
f 513/5/6 508/5/6 514/5/6
f 515/5/6 516/5/6 521/5/6
f 521/5/6 516/5/6 522/5/6
f 517/5/6 518/5/6 523/5/6
f 523/5/6 518/5/6 524/5/6
f 519/5/6 520/5/6 525/5/6
f 525/5/6 520/5/6 526/5/6
f 527/2/6 528/2/6 529/2/6
f 529/2/6 528/2/6 530/2/6
